STARTFONT 2.1
COMMENT
COMMENT Converted from OpenType font "NimbusSans-Regular.otf" by "otf2bdf 3.0".
COMMENT
FONT -FreeType-Nimbus Sans-Medium-R-Normal--36-260-100-100-P-189-ISO10646-1
SIZE 26 100 100
FONTBOUNDINGBOX 45 49 -8 -11
STARTPROPERTIES 19
FOUNDRY "FreeType"
FAMILY_NAME "Nimbus Sans"
WEIGHT_NAME "Medium"
SLANT "R"
SETWIDTH_NAME "Normal"
ADD_STYLE_NAME ""
PIXEL_SIZE 36
POINT_SIZE 260
RESOLUTION_X 100
RESOLUTION_Y 100
SPACING "P"
AVERAGE_WIDTH 189
CHARSET_REGISTRY "ISO10646"
CHARSET_ENCODING "1"
FONT_ASCENT 26
FONT_DESCENT 9
COPYRIGHT "(URW)++,Copyright 2014 by (URW)++ Design & Development"
_OTF_FONTFILE "NimbusSans-Regular.otf"
_OTF_PSNAME "NimbusSans-Regular"
ENDPROPERTIES
CHARS 854
STARTCHAR 0020
ENCODING 32
SWIDTH 276 0
DWIDTH 10 0
BBX 0 0 0 0
BITMAP
ENDCHAR
STARTCHAR 0021
ENCODING 33
SWIDTH 276 0
DWIDTH 10 0
BBX 4 26 4 0
BITMAP
F0
F0
F0
F0
F0
F0
F0
F0
F0
F0
F0
F0
60
60
60
60
60
60
60
60
00
00
F0
F0
F0
F0
ENDCHAR
STARTCHAR 0022
ENCODING 34
SWIDTH 360 0
DWIDTH 13 0
BBX 9 9 2 17
BITMAP
E380
E380
E380
E380
E380
E380
E380
E300
4300
ENDCHAR
STARTCHAR 0023
ENCODING 35
SWIDTH 553 0
DWIDTH 20 0
BBX 19 26 1 0
BITMAP
038300
038700
038700
038700
030700
070600
070600
7FFFE0
7FFFE0
070E00
060E00
0E0C00
0E1C00
0E1C00
0E1C00
0C1C00
FFFF80
FFFF80
1C3800
1C3800
1C3800
183800
383000
387000
387000
387000
ENDCHAR
STARTCHAR 0024
ENCODING 36
SWIDTH 553 0
DWIDTH 20 0
BBX 18 33 1 -5
BITMAP
00C000
00C000
03F000
0FFC00
1FFF00
3CCF00
78C780
70C380
70C380
70C000
70C000
78C000
3CC000
3FC000
1FF800
07FE00
00FF00
00CF80
00C3C0
00C1C0
E0C1C0
E0C1C0
70C1C0
70C1C0
70C380
3CC780
3FFF00
1FFE00
03F000
00C000
00C000
00C000
00C000
ENDCHAR
STARTCHAR 0025
ENCODING 37
SWIDTH 886 0
DWIDTH 32 0
BBX 30 26 1 0
BITMAP
00000E00
1FC00C00
3FE01C00
70F01800
E0703800
E0303000
E0307000
E0306000
E070E000
70F0C000
3FE18000
1FC18000
00030000
00070000
000607E0
000E1FF0
000C1C38
001C381C
0018301C
0038300C
0030301C
0070381C
00603838
00C01FF8
00C00FF0
018007C0
ENDCHAR
STARTCHAR 0026
ENCODING 38
SWIDTH 664 0
DWIDTH 24 0
BBX 21 26 2 0
BITMAP
03F000
07F800
0FFC00
1E1E00
1C0E00
1C0E00
1C0E00
1C0E00
0E1C00
0F7800
07F000
03C000
0FC000
1EE080
78F0E0
7078E0
E03DC0
E01FC0
E00FC0
E00F80
E00780
F00F80
783FC0
7FFDE0
3FF0F0
0FC078
ENDCHAR
STARTCHAR 0027
ENCODING 39
SWIDTH 193 0
DWIDTH 7 0
BBX 3 9 2 17
BITMAP
E0
E0
E0
E0
E0
E0
E0
E0
40
ENDCHAR
STARTCHAR 0028
ENCODING 40
SWIDTH 332 0
DWIDTH 12 0
BBX 7 34 3 -8
BITMAP
06
06
0C
1C
18
38
30
30
70
70
60
E0
E0
E0
E0
E0
E0
E0
E0
E0
E0
E0
E0
60
70
70
70
30
38
18
1C
0C
0E
06
ENDCHAR
STARTCHAR 0029
ENCODING 41
SWIDTH 332 0
DWIDTH 12 0
BBX 7 34 2 -8
BITMAP
C0
C0
60
70
30
38
38
18
1C
1C
0C
0E
0E
0E
0E
0E
0E
0E
0E
0E
0E
0E
0E
0C
1C
1C
18
18
38
30
70
60
C0
C0
ENDCHAR
STARTCHAR 002A
ENCODING 42
SWIDTH 387 0
DWIDTH 14 0
BBX 10 10 2 16
BITMAP
0C00
0C00
0C00
CDC0
FFC0
3F00
1E00
3F00
7380
6100
ENDCHAR
STARTCHAR 002B
ENCODING 43
SWIDTH 581 0
DWIDTH 21 0
BBX 17 17 2 0
BITMAP
01C000
01C000
01C000
01C000
01C000
01C000
01C000
FFFF80
FFFF80
FFFF80
01C000
01C000
01C000
01C000
01C000
01C000
01C000
ENDCHAR
STARTCHAR 002C
ENCODING 44
SWIDTH 276 0
DWIDTH 10 0
BBX 4 9 3 -5
BITMAP
F0
F0
F0
F0
30
30
30
20
E0
ENDCHAR
STARTCHAR 002D
ENCODING 45
SWIDTH 332 0
DWIDTH 12 0
BBX 8 3 2 8
BITMAP
FF
FF
FF
ENDCHAR
STARTCHAR 002E
ENCODING 46
SWIDTH 276 0
DWIDTH 10 0
BBX 4 4 3 0
BITMAP
F0
F0
F0
F0
ENDCHAR
STARTCHAR 002F
ENCODING 47
SWIDTH 276 0
DWIDTH 10 0
BBX 10 26 0 0
BITMAP
00C0
00C0
0180
0180
0180
0300
0300
0300
0600
0600
0600
0C00
0C00
0C00
1800
1800
1800
3000
3000
3000
3000
6000
6000
6000
C000
C000
ENDCHAR
STARTCHAR 0030
ENCODING 48
SWIDTH 553 0
DWIDTH 20 0
BBX 16 26 2 0
BITMAP
07E0
1FF8
3FFC
3C3C
781E
700E
F00F
E007
E007
E007
E007
E007
E007
E007
E007
E007
E007
E007
E007
F00F
700E
781E
381C
3FFC
1FF0
07E0
ENDCHAR
STARTCHAR 0031
ENCODING 49
SWIDTH 553 0
DWIDTH 20 0
BBX 9 26 4 0
BITMAP
0380
0380
0380
0780
1F80
FF80
FF80
0780
0780
0780
0780
0780
0780
0780
0780
0780
0780
0780
0780
0780
0780
0780
0780
0780
0780
0780
ENDCHAR
STARTCHAR 0032
ENCODING 50
SWIDTH 553 0
DWIDTH 20 0
BBX 17 26 1 0
BITMAP
03F800
0FFC00
1FFF00
3C0F00
380780
780380
700380
700380
700380
000380
000780
000700
001F00
003E00
00FC00
03F000
07C000
0F0000
1E0000
3C0000
780000
700000
700000
7FFF80
FFFF80
FFFF80
ENDCHAR
STARTCHAR 0033
ENCODING 51
SWIDTH 553 0
DWIDTH 20 0
BBX 17 26 1 0
BITMAP
07F000
0FFC00
1FFE00
3C1F00
780700
700700
700780
700700
000700
000700
001E00
01FC00
01FC00
01FF00
000F00
000780
000380
000380
E00380
F00380
700380
780780
7C0F00
3FFE00
1FFC00
07F000
ENDCHAR
STARTCHAR 0034
ENCODING 52
SWIDTH 553 0
DWIDTH 20 0
BBX 18 26 1 0
BITMAP
001C00
001C00
003C00
007C00
00FC00
00FC00
01DC00
039C00
039C00
071C00
0E1C00
0E1C00
1C1C00
381C00
781C00
701C00
E01C00
FFFFC0
FFFFC0
FFFFC0
001C00
001C00
001C00
001C00
001C00
001C00
ENDCHAR
STARTCHAR 0035
ENCODING 53
SWIDTH 553 0
DWIDTH 20 0
BBX 18 26 1 0
BITMAP
1FFF00
1FFF00
1FFF00
380000
380000
380000
380000
380000
39F000
3FFC00
7FFE00
7C1F00
780780
000780
000380
000380
0003C0
0003C0
000380
F00380
700380
780700
7C0F00
3FFE00
1FFC00
07F000
ENDCHAR
STARTCHAR 0036
ENCODING 54
SWIDTH 553 0
DWIDTH 20 0
BBX 17 26 2 0
BITMAP
03F000
0FF800
1FFC00
3C1E00
780E00
700F00
700700
E00000
E00000
E00000
E3F000
EFFC00
FFFE00
F81E00
F00F00
F00700
E00700
E00780
E00780
E00700
F00700
700F00
7C1E00
3FFC00
1FF800
07E000
ENDCHAR
STARTCHAR 0037
ENCODING 55
SWIDTH 553 0
DWIDTH 20 0
BBX 17 26 2 0
BITMAP
FFFF80
FFFF80
FFFF80
000700
000600
000E00
001C00
001800
003800
007000
007000
00E000
00E000
01C000
01C000
038000
038000
038000
070000
070000
0F0000
0E0000
0E0000
0E0000
1E0000
1C0000
ENDCHAR
STARTCHAR 0038
ENCODING 56
SWIDTH 553 0
DWIDTH 20 0
BBX 18 26 1 0
BITMAP
03F000
0FFC00
1FFE00
3C0F00
380700
780780
780780
780780
780700
380700
3E1E00
0FFC00
0FFC00
1FFE00
3C0F00
780780
700380
F00380
F003C0
F00380
700380
780780
3C0F00
3FFE00
0FFC00
03F000
ENDCHAR
STARTCHAR 0039
ENCODING 57
SWIDTH 553 0
DWIDTH 20 0
BBX 17 26 1 0
BITMAP
03F000
0FFC00
1FFE00
3C1E00
780700
700700
700380
F00380
F00380
F00380
700780
780780
3C1F80
3FFF80
1FFB80
07E380
000380
000380
000780
700700
780700
780F00
3C1E00
1FFC00
0FF800
07E000
ENDCHAR
STARTCHAR 003A
ENCODING 58
SWIDTH 276 0
DWIDTH 10 0
BBX 4 19 4 0
BITMAP
F0
F0
F0
F0
00
00
00
00
00
00
00
00
00
00
00
F0
F0
F0
F0
ENDCHAR
STARTCHAR 003B
ENCODING 59
SWIDTH 276 0
DWIDTH 10 0
BBX 4 24 4 -5
BITMAP
F0
F0
F0
F0
00
00
00
00
00
00
00
00
00
00
00
F0
F0
F0
F0
30
30
30
60
C0
ENDCHAR
STARTCHAR 003C
ENCODING 60
SWIDTH 581 0
DWIDTH 21 0
BBX 17 17 2 0
BITMAP
000180
000780
003F80
00FE00
03F000
1FC000
7E0000
F80000
F00000
FC0000
3F0000
0FE000
01F800
007F00
001F80
000380
000080
ENDCHAR
STARTCHAR 003D
ENCODING 61
SWIDTH 581 0
DWIDTH 21 0
BBX 17 9 2 4
BITMAP
FFFF80
FFFF80
FFFF80
000000
000000
000000
FFFF80
FFFF80
FFFF80
ENDCHAR
STARTCHAR 003E
ENCODING 62
SWIDTH 581 0
DWIDTH 21 0
BBX 17 17 2 0
BITMAP
C00000
F00000
FE0000
3F8000
07E000
01FC00
003F00
000F80
000380
001F80
007E00
03F800
0FC000
7F0000
FC0000
E00000
800000
ENDCHAR
STARTCHAR 003F
ENCODING 63
SWIDTH 553 0
DWIDTH 20 0
BBX 15 26 3 0
BITMAP
0FE0
1FF8
7FFC
783E
F01E
E00E
E00E
E00E
000E
001E
003C
0078
00F0
01E0
03C0
0380
0380
0380
0380
0000
0000
0000
0380
0380
0380
0380
ENDCHAR
STARTCHAR 0040
ENCODING 64
SWIDTH 1024 0
DWIDTH 37 0
BBX 33 31 1 -5
BITMAP
0003FC0000
001FFF8000
007FFFE000
01F803F000
03E000FC00
0780003E00
0F00001E00
1E00000F00
1C03F1C700
3807F9C780
380F1F8380
701C078380
7038078380
7078070380
E070070380
E070070380
E0700E0380
E0700E0700
F0700E0700
70701C0E00
70783C1C00
783EEFFC00
381FCFF000
3C0F87C000
1E00000000
0F00000000
07C0000000
03F0030000
01FFFF0000
007FFF8000
000FF80000
ENDCHAR
STARTCHAR 0041
ENCODING 65
SWIDTH 664 0
DWIDTH 24 0
BBX 22 26 1 0
BITMAP
007C00
00FC00
00FC00
00FE00
01FE00
01CE00
01CF00
03CF00
038700
038780
078380
070380
0F03C0
0E01C0
0E01C0
1FFFE0
1FFFE0
1FFFF0
3C00F0
380070
380078
780078
700038
70003C
F0003C
E0001C
ENDCHAR
STARTCHAR 0042
ENCODING 66
SWIDTH 664 0
DWIDTH 24 0
BBX 19 26 3 0
BITMAP
FFFC00
FFFF00
FFFF80
E007C0
E003C0
E001C0
E001C0
E001C0
E001C0
E003C0
E00780
FFFF00
FFFF00
FFFF80
E003C0
E001E0
E000E0
E000E0
E000E0
E000E0
E000E0
E001E0
E003C0
FFFFC0
FFFF80
FFFE00
ENDCHAR
STARTCHAR 0043
ENCODING 67
SWIDTH 720 0
DWIDTH 26 0
BBX 22 26 2 0
BITMAP
00FF00
03FFC0
0FFFE0
1F01F0
3C0078
380078
780038
70003C
F00000
F00000
E00000
E00000
E00000
E00000
E00000
E00000
F0001C
F0001C
70003C
78003C
3C0078
3E0078
1F81F0
0FFFE0
07FFC0
00FE00
ENDCHAR
STARTCHAR 0044
ENCODING 68
SWIDTH 720 0
DWIDTH 26 0
BBX 21 26 3 0
BITMAP
FFFC00
FFFF00
FFFF80
F007C0
F001E0
F000F0
F000F0
F00070
F00078
F00078
F00038
F00038
F00038
F00038
F00038
F00038
F00078
F00078
F00070
F000F0
F000F0
F001E0
F007C0
FFFF80
FFFF00
FFFC00
ENDCHAR
STARTCHAR 0045
ENCODING 69
SWIDTH 664 0
DWIDTH 24 0
BBX 19 26 3 0
BITMAP
FFFFC0
FFFFC0
FFFFC0
F00000
F00000
F00000
F00000
F00000
F00000
F00000
F00000
FFFFC0
FFFFC0
FFFFC0
F00000
F00000
F00000
F00000
F00000
F00000
F00000
F00000
F00000
FFFFE0
FFFFE0
FFFFE0
ENDCHAR
STARTCHAR 0046
ENCODING 70
SWIDTH 609 0
DWIDTH 22 0
BBX 18 26 3 0
BITMAP
FFFFC0
FFFFC0
FFFFC0
F00000
F00000
F00000
F00000
F00000
F00000
F00000
F00000
FFFF00
FFFF00
FFFF00
F00000
F00000
F00000
F00000
F00000
F00000
F00000
F00000
F00000
F00000
F00000
F00000
ENDCHAR
STARTCHAR 0047
ENCODING 71
SWIDTH 775 0
DWIDTH 28 0
BBX 24 26 2 0
BITMAP
00FF00
03FFE0
0FFFF0
1F81F8
3E007C
3C001C
78001E
70000E
F00000
E00000
E00000
E00000
E007FF
E007FF
E007FF
E00007
E00007
F0000F
70000F
78000F
3C001F
3E003F
1F80F7
0FFFE7
03FF87
00FE00
ENDCHAR
STARTCHAR 0048
ENCODING 72
SWIDTH 720 0
DWIDTH 26 0
BBX 20 26 3 0
BITMAP
E00070
E00070
E00070
E00070
E00070
E00070
E00070
E00070
E00070
E00070
E00070
FFFFF0
FFFFF0
FFFFF0
E00070
E00070
E00070
E00070
E00070
E00070
E00070
E00070
E00070
E00070
E00070
E00070
ENDCHAR
STARTCHAR 0049
ENCODING 73
SWIDTH 276 0
DWIDTH 10 0
BBX 3 26 4 0
BITMAP
E0
E0
E0
E0
E0
E0
E0
E0
E0
E0
E0
E0
E0
E0
E0
E0
E0
E0
E0
E0
E0
E0
E0
E0
E0
E0
ENDCHAR
STARTCHAR 004A
ENCODING 74
SWIDTH 498 0
DWIDTH 18 0
BBX 14 26 1 0
BITMAP
001C
001C
001C
001C
001C
001C
001C
001C
001C
001C
001C
001C
001C
001C
001C
001C
001C
E01C
E01C
E01C
E01C
F03C
F87C
7FF8
3FF0
0FC0
ENDCHAR
STARTCHAR 004B
ENCODING 75
SWIDTH 664 0
DWIDTH 24 0
BBX 20 26 3 0
BITMAP
E000F0
E001E0
E003C0
E00780
E00F00
E01E00
E03C00
E07800
E0F000
E1E000
E3C000
E7E000
EFE000
FEF000
FC7800
F87800
F03C00
E01E00
E00F00
E00F00
E00780
E003C0
E003C0
E001E0
E000F0
E000F0
ENDCHAR
STARTCHAR 004C
ENCODING 76
SWIDTH 553 0
DWIDTH 20 0
BBX 16 26 3 0
BITMAP
E000
E000
E000
E000
E000
E000
E000
E000
E000
E000
E000
E000
E000
E000
E000
E000
E000
E000
E000
E000
E000
E000
E000
FFFF
FFFF
FFFF
ENDCHAR
STARTCHAR 004D
ENCODING 77
SWIDTH 830 0
DWIDTH 30 0
BBX 24 26 3 0
BITMAP
F8000F
F8001F
F8001F
FC001F
FC003F
FC003F
EE003F
EE0077
EE0077
E70067
E700E7
E700E7
E380C7
E381C7
E381C7
E1C187
E1C387
E1C387
E0E307
E0E707
E0E707
E07607
E07E07
E07E07
E03C07
E03C07
ENDCHAR
STARTCHAR 004E
ENCODING 78
SWIDTH 720 0
DWIDTH 26 0
BBX 20 26 3 0
BITMAP
F00070
F00070
F80070
FC0070
FC0070
FE0070
EF0070
E70070
E78070
E3C070
E3C070
E1E070
E0E070
E0F070
E07870
E03870
E03C70
E01E70
E00E70
E00F70
E007F0
E003F0
E003F0
E001F0
E000F0
E000F0
ENDCHAR
STARTCHAR 004F
ENCODING 79
SWIDTH 775 0
DWIDTH 28 0
BBX 26 26 1 0
BITMAP
007F8000
01FFF000
07FFF800
0FC0FC00
1F003E00
3E000F00
3C000F00
78000780
78000380
70000380
700003C0
F00003C0
F00003C0
F00003C0
F00003C0
700003C0
70000380
78000380
78000780
3C000700
3E000F00
1F003E00
0FC0FC00
07FFF800
01FFE000
007F8000
ENDCHAR
STARTCHAR 0050
ENCODING 80
SWIDTH 664 0
DWIDTH 24 0
BBX 19 26 3 0
BITMAP
FFFE00
FFFF80
FFFFC0
F007C0
F001E0
F001E0
F000E0
F000E0
F000E0
F001E0
F001E0
F007C0
FFFFC0
FFFF80
FFFE00
F00000
F00000
F00000
F00000
F00000
F00000
F00000
F00000
F00000
F00000
F00000
ENDCHAR
STARTCHAR 0051
ENCODING 81
SWIDTH 775 0
DWIDTH 28 0
BBX 26 27 1 -1
BITMAP
007F8000
01FFF000
07FFF800
0FC0FC00
1F003E00
3E000F00
3C000F00
78000780
78000380
70000380
700003C0
F00003C0
F00003C0
F00003C0
F00003C0
700003C0
70000380
78000380
78008780
3C01C700
3E01EF00
1F007E00
0FC0FC00
07FFFE00
01FFEF80
007F8380
00000100
ENDCHAR
STARTCHAR 0052
ENCODING 82
SWIDTH 720 0
DWIDTH 26 0
BBX 22 26 3 0
BITMAP
FFFF00
FFFFC0
FFFFE0
F001F0
F000F0
F00070
F00078
F00078
F00070
F00070
F000F0
F001E0
FFFFC0
FFFF80
FFFFC0
F001E0
F000F0
F000F0
F00070
F00070
F00070
F00070
F00070
F00070
F00078
F0007C
ENDCHAR
STARTCHAR 0053
ENCODING 83
SWIDTH 664 0
DWIDTH 24 0
BBX 20 26 2 0
BITMAP
03FC00
0FFF00
1FFF80
3C07C0
7801E0
7000E0
7000E0
7000F0
700000
780000
7F0000
3FF000
0FFF00
01FFC0
000FE0
0001F0
0000F0
E00070
E00070
E00070
F00070
7800F0
7E03E0
3FFFC0
0FFF80
03FC00
ENDCHAR
STARTCHAR 0054
ENCODING 84
SWIDTH 609 0
DWIDTH 22 0
BBX 20 26 1 0
BITMAP
FFFFF0
FFFFF0
FFFFF0
00F000
00F000
00F000
00F000
00F000
00F000
00F000
00F000
00F000
00F000
00F000
00F000
00F000
00F000
00F000
00F000
00F000
00F000
00F000
00F000
00F000
00F000
00F000
ENDCHAR
STARTCHAR 0055
ENCODING 85
SWIDTH 720 0
DWIDTH 26 0
BBX 20 26 3 0
BITMAP
E00070
E00070
E00070
E00070
E00070
E00070
E00070
E00070
E00070
E00070
E00070
E00070
E00070
E00070
E00070
E00070
E00070
E00070
F00070
F00070
7000F0
7801E0
3E03E0
1FFFC0
0FFF00
03FC00
ENDCHAR
STARTCHAR 0056
ENCODING 86
SWIDTH 664 0
DWIDTH 24 0
BBX 22 26 1 0
BITMAP
F0001C
70003C
780038
780038
380078
3C0070
3C0070
1C00F0
1E00E0
0E00E0
0E01E0
0F01C0
0701C0
0703C0
078380
038380
038700
03C700
01C700
01EE00
00EE00
00EE00
00FC00
007C00
007C00
007800
ENDCHAR
STARTCHAR 0057
ENCODING 87
SWIDTH 941 0
DWIDTH 34 0
BBX 32 26 1 0
BITMAP
F003C007
F003C00F
F003E00F
7007E00F
7807E00E
7807F00E
7807701E
380E701E
3C0E701C
3C0E781C
3C1C383C
1C1C383C
1C1C3C38
1E1C1C38
0E381C78
0E381C78
0E381E70
0F780E70
07700E70
07700EF0
077007E0
07E007E0
03E007E0
03E007C0
03E003C0
03C003C0
ENDCHAR
STARTCHAR 0058
ENCODING 88
SWIDTH 664 0
DWIDTH 24 0
BBX 22 26 1 0
BITMAP
78003C
780078
3C00F0
1E00F0
1E01E0
0F03C0
078380
038780
03CF00
01EE00
00FE00
00FC00
007800
007C00
00FC00
01FE00
03CF00
03C780
078780
0F03C0
0F01E0
1E01E0
3C00F0
3C0078
780078
F0003C
ENDCHAR
STARTCHAR 0059
ENCODING 89
SWIDTH 664 0
DWIDTH 24 0
BBX 23 26 1 0
BITMAP
F0001E
F8003C
780078
3C0078
3C00F0
1E00E0
0F01E0
0F03C0
0783C0
038780
03C700
01EF00
01FE00
00FC00
007C00
007800
003800
003800
003800
003800
003800
003800
003800
003800
003800
003800
ENDCHAR
STARTCHAR 005A
ENCODING 90
SWIDTH 609 0
DWIDTH 22 0
BBX 20 26 1 0
BITMAP
7FFFF0
7FFFF0
7FFFF0
0001F0
0001E0
0003C0
000780
000F00
001F00
001E00
003C00
007800
00F800
00F000
01E000
03C000
078000
0F8000
0F0000
1E0000
3C0000
780000
F80000
FFFFF0
FFFFF0
FFFFF0
ENDCHAR
STARTCHAR 005B
ENCODING 91
SWIDTH 276 0
DWIDTH 10 0
BBX 7 34 2 -8
BITMAP
FE
FE
FE
E0
E0
E0
E0
E0
E0
E0
E0
E0
E0
E0
E0
E0
E0
E0
E0
E0
E0
E0
E0
E0
E0
E0
E0
E0
E0
E0
E0
FE
FE
FE
ENDCHAR
STARTCHAR 005C
ENCODING 92
SWIDTH 276 0
DWIDTH 10 0
BBX 10 26 0 0
BITMAP
C000
C000
6000
6000
6000
3000
3000
3000
3000
1800
1800
1800
0C00
0C00
0C00
0600
0600
0600
0300
0300
0300
0180
0180
0180
00C0
00C0
ENDCHAR
STARTCHAR 005D
ENCODING 93
SWIDTH 276 0
DWIDTH 10 0
BBX 7 34 1 -8
BITMAP
FE
FE
FE
0E
0E
0E
0E
0E
0E
0E
0E
0E
0E
0E
0E
0E
0E
0E
0E
0E
0E
0E
0E
0E
0E
0E
0E
0E
0E
0E
0E
FE
FE
FE
ENDCHAR
STARTCHAR 005E
ENCODING 94
SWIDTH 470 0
DWIDTH 17 0
BBX 13 14 2 12
BITMAP
0700
0700
0F80
0D80
1D80
1DC0
18C0
38E0
3060
7060
7070
6030
E038
C018
ENDCHAR
STARTCHAR 005F
ENCODING 95
SWIDTH 553 0
DWIDTH 20 0
BBX 22 2 -1 -6
BITMAP
FFFFFC
FFFFFC
ENDCHAR
STARTCHAR 0060
ENCODING 96
SWIDTH 332 0
DWIDTH 12 0
BBX 7 5 1 21
BITMAP
F0
78
38
1C
0E
ENDCHAR
STARTCHAR 0061
ENCODING 97
SWIDTH 553 0
DWIDTH 20 0
BBX 17 19 2 0
BITMAP
07F000
3FFC00
7FFC00
781E00
700E00
E00E00
000E00
001E00
07FE00
3FFE00
7E0E00
F00E00
E00E00
E00E00
E01E00
F03E00
FFFF80
7FEF80
1F8780
ENDCHAR
STARTCHAR 0062
ENCODING 98
SWIDTH 553 0
DWIDTH 20 0
BBX 17 26 2 0
BITMAP
E00000
E00000
E00000
E00000
E00000
E00000
E00000
E3F000
EFFC00
FFFE00
FC1E00
F80F00
F00700
E00780
E00380
E00380
E00380
E00380
E00380
E00780
F00700
F80F00
FC1E00
FFFC00
EFF800
E3E000
ENDCHAR
STARTCHAR 0063
ENCODING 99
SWIDTH 498 0
DWIDTH 18 0
BBX 16 19 1 0
BITMAP
03F0
0FF8
1FFE
3C1E
780F
7007
7007
E000
E000
E000
E000
E000
F007
7007
780F
3C1E
3FFE
0FF8
07F0
ENDCHAR
STARTCHAR 0064
ENCODING 100
SWIDTH 553 0
DWIDTH 20 0
BBX 17 26 1 0
BITMAP
000380
000380
000380
000380
000380
000380
000380
07E380
1FFB80
3FFF80
3C1F80
780F80
700780
F00780
E00380
E00380
E00380
E00380
E00380
F00780
700780
780F80
3C1F80
3FFF80
1FFB80
07E380
ENDCHAR
STARTCHAR 0065
ENCODING 101
SWIDTH 553 0
DWIDTH 20 0
BBX 18 19 1 0
BITMAP
03F000
0FFC00
1FFE00
3C0F00
380780
700380
700380
700380
7FFF80
FFFFC0
F00000
700000
700000
700380
780780
3C0F00
1FFE00
0FFC00
03F000
ENDCHAR
STARTCHAR 0066
ENCODING 102
SWIDTH 276 0
DWIDTH 10 0
BBX 8 26 1 0
BITMAP
0F
1F
3F
38
38
38
38
FF
FF
38
38
38
38
38
38
38
38
38
38
38
38
38
38
38
38
38
ENDCHAR
STARTCHAR 0067
ENCODING 103
SWIDTH 553 0
DWIDTH 20 0
BBX 16 26 1 -7
BITMAP
07E3
0FF3
1FFB
3C1F
780F
7007
7007
F007
E007
E007
E007
F007
7007
7007
780F
3C1F
1FFF
0FF7
07C7
0007
7007
700F
780E
3FFC
1FF8
07E0
ENDCHAR
STARTCHAR 0068
ENCODING 104
SWIDTH 553 0
DWIDTH 20 0
BBX 15 26 3 0
BITMAP
E000
E000
E000
E000
E000
E000
E000
E3E0
EFF8
FFFC
F83C
F01E
E01E
E00E
E00E
E00E
E00E
E00E
E00E
E00E
E00E
E00E
E00E
E00E
E00E
E00E
ENDCHAR
STARTCHAR 0069
ENCODING 105
SWIDTH 221 0
DWIDTH 8 0
BBX 3 26 2 0
BITMAP
E0
E0
E0
E0
00
00
00
E0
E0
E0
E0
E0
E0
E0
E0
E0
E0
E0
E0
E0
E0
E0
E0
E0
E0
E0
ENDCHAR
STARTCHAR 006A
ENCODING 106
SWIDTH 221 0
DWIDTH 8 0
BBX 7 34 -1 -8
BITMAP
0E
0E
0E
0E
00
00
00
0E
0E
0E
0E
0E
0E
0E
0E
0E
0E
0E
0E
0E
0E
0E
0E
0E
0E
0E
0E
0E
0E
0E
1E
FC
FC
F0
ENDCHAR
STARTCHAR 006B
ENCODING 107
SWIDTH 498 0
DWIDTH 18 0
BBX 16 26 2 0
BITMAP
E000
E000
E000
E000
E000
E000
E000
E01C
E038
E070
E0E0
E1C0
E380
E700
EF80
FFC0
FBC0
F1E0
E0E0
E0F0
E078
E038
E03C
E01E
E01E
E00F
ENDCHAR
STARTCHAR 006C
ENCODING 108
SWIDTH 221 0
DWIDTH 8 0
BBX 3 26 2 0
BITMAP
E0
E0
E0
E0
E0
E0
E0
E0
E0
E0
E0
E0
E0
E0
E0
E0
E0
E0
E0
E0
E0
E0
E0
E0
E0
E0
ENDCHAR
STARTCHAR 006D
ENCODING 109
SWIDTH 830 0
DWIDTH 30 0
BBX 25 19 3 1
BITMAP
C7E0FC00
DFF1FE00
FFFBFF00
F07E0F00
E03C0780
E03C0780
E03C0780
E03C0780
E03C0780
E03C0780
E03C0780
E03C0780
E03C0780
E03C0780
E03C0780
E03C0780
E03C0780
E03C0780
E03C0780
ENDCHAR
STARTCHAR 006E
ENCODING 110
SWIDTH 553 0
DWIDTH 20 0
BBX 15 19 3 1
BITMAP
C7E0
CFF8
DFFC
F83C
F01E
E00E
E00E
E00E
E00E
E00E
E00E
E00E
E00E
E00E
E00E
E00E
E00E
E00E
E00E
ENDCHAR
STARTCHAR 006F
ENCODING 111
SWIDTH 553 0
DWIDTH 20 0
BBX 17 19 1 0
BITMAP
03F000
0FFC00
1FFE00
3C0F00
780700
700780
700380
F00380
F00380
E00380
F00380
F00380
700380
700780
780700
3C0F00
1FFE00
0FFC00
03F000
ENDCHAR
STARTCHAR 0070
ENCODING 112
SWIDTH 553 0
DWIDTH 20 0
BBX 17 26 2 -6
BITMAP
E7F000
EFFC00
FFFE00
FC1E00
F80F00
F00700
E00780
E00380
E00380
E00380
E00380
E00380
E00780
F00700
F80F00
FC1E00
FFFE00
EFF800
E3F000
E00000
E00000
E00000
E00000
E00000
E00000
E00000
ENDCHAR
STARTCHAR 0071
ENCODING 113
SWIDTH 553 0
DWIDTH 20 0
BBX 17 27 1 -8
BITMAP
07E380
0FFB80
3FFF80
3C1F80
780F80
700780
F00780
E00380
E00380
E00380
E00380
E00380
F00780
F00780
780F80
7C1F80
3FFF80
1FFB80
07E380
000380
000380
000380
000380
000380
000380
000380
000080
ENDCHAR
STARTCHAR 0072
ENCODING 114
SWIDTH 332 0
DWIDTH 12 0
BBX 10 19 2 0
BITMAP
E1C0
E7C0
EFC0
EC00
F800
F000
F000
F000
F000
F000
F000
F000
F000
F000
F000
F000
F000
F000
F000
ENDCHAR
STARTCHAR 0073
ENCODING 115
SWIDTH 498 0
DWIDTH 18 0
BBX 16 19 1 0
BITMAP
07E0
1FF8
3FFC
781E
701E
700E
7000
7C00
3FC0
1FF8
01FE
001E
000F
F00F
F00E
781E
7FFC
3FF8
0FE0
ENDCHAR
STARTCHAR 0074
ENCODING 116
SWIDTH 276 0
DWIDTH 10 0
BBX 8 24 1 0
BITMAP
38
38
38
38
38
FF
FF
38
38
38
38
38
38
38
38
38
38
38
38
38
38
3F
3F
1F
ENDCHAR
STARTCHAR 0075
ENCODING 117
SWIDTH 553 0
DWIDTH 20 0
BBX 15 19 2 -1
BITMAP
E00E
E00E
E00E
E00E
E00E
E00E
E00E
E00E
E00E
E00E
E00E
E00E
E00E
E00E
F01E
783E
7FFE
3FF6
0FE6
ENDCHAR
STARTCHAR 0076
ENCODING 118
SWIDTH 498 0
DWIDTH 18 0
BBX 16 19 1 0
BITMAP
E007
E007
F00F
700E
700E
781C
381C
381C
3C38
1C38
1C38
1E70
0E70
0EE0
0FE0
07E0
07C0
07C0
0380
ENDCHAR
STARTCHAR 0077
ENCODING 119
SWIDTH 720 0
DWIDTH 26 0
BBX 25 19 0 0
BITMAP
F01E0380
701E0380
703E0380
703F0780
783F0700
38370700
38770700
3C738E00
1C738E00
1C638E00
1CE39C00
0EE1DC00
0EE1DC00
0EC1DC00
0FC1F800
07C0F800
07C0F800
0780F000
0380F000
ENDCHAR
STARTCHAR 0078
ENCODING 120
SWIDTH 498 0
DWIDTH 18 0
BBX 16 19 1 0
BITMAP
F00F
700E
381C
3C38
1C38
0E70
0FE0
07E0
03C0
03C0
07C0
07E0
0EF0
1E70
1C38
383C
781C
700E
E00F
ENDCHAR
STARTCHAR 0079
ENCODING 121
SWIDTH 498 0
DWIDTH 18 0
BBX 16 27 1 -8
BITMAP
E007
E00F
700E
700E
701E
381C
381C
383C
1C38
1C38
1C70
0E70
0E70
0EE0
07E0
07E0
07C0
03C0
03C0
0380
0380
0700
0700
0F00
7E00
7C00
7800
ENDCHAR
STARTCHAR 007A
ENCODING 122
SWIDTH 498 0
DWIDTH 18 0
BBX 15 19 1 0
BITMAP
7FFE
7FFE
7FFE
001C
0038
0078
00F0
01E0
01C0
0380
0780
0F00
1E00
3C00
3800
7000
FFFE
FFFE
FFFE
ENDCHAR
STARTCHAR 007B
ENCODING 123
SWIDTH 332 0
DWIDTH 12 0
BBX 8 34 2 -8
BITMAP
0F
1F
1C
38
38
38
38
38
38
38
38
38
38
38
38
F0
E0
E0
F0
38
38
38
38
38
38
38
38
38
38
38
38
1C
1F
0F
ENDCHAR
STARTCHAR 007C
ENCODING 124
SWIDTH 249 0
DWIDTH 9 0
BBX 2 34 4 -8
BITMAP
C0
C0
C0
C0
C0
C0
C0
C0
C0
C0
C0
C0
C0
C0
C0
C0
C0
C0
C0
C0
C0
C0
C0
C0
C0
C0
C0
C0
C0
C0
C0
C0
C0
C0
ENDCHAR
STARTCHAR 007D
ENCODING 125
SWIDTH 332 0
DWIDTH 12 0
BBX 8 34 1 -8
BITMAP
F0
F8
38
1C
1C
1C
1C
1C
1C
1C
1C
1C
1C
1C
1C
0F
07
07
0F
0C
1C
1C
1C
1C
1C
1C
1C
1C
1C
1C
1C
38
F8
F0
ENDCHAR
STARTCHAR 007E
ENCODING 126
SWIDTH 581 0
DWIDTH 21 0
BBX 15 6 3 10
BITMAP
3800
7E06
EF86
C3C6
C1FE
C07C
ENDCHAR
STARTCHAR 00A0
ENCODING 160
SWIDTH 276 0
DWIDTH 10 0
BBX 0 0 0 0
BITMAP
ENDCHAR
STARTCHAR 00A1
ENCODING 161
SWIDTH 332 0
DWIDTH 12 0
BBX 3 26 4 -7
BITMAP
E0
E0
E0
E0
00
00
60
60
60
60
60
60
60
E0
E0
E0
E0
E0
E0
E0
E0
E0
E0
E0
E0
E0
ENDCHAR
STARTCHAR 00A2
ENCODING 162
SWIDTH 553 0
DWIDTH 20 0
BBX 16 27 2 -4
BITMAP
0080
0080
0080
0080
07F8
1FFC
3EBE
388F
7087
7087
E080
E080
E080
E080
E080
E080
E080
F087
7087
788F
3C9E
1FFC
0FF8
03E0
0080
0080
0080
ENDCHAR
STARTCHAR 00A3
ENCODING 163
SWIDTH 553 0
DWIDTH 20 0
BBX 18 26 1 0
BITMAP
01F800
0FFE00
1FFF00
3C0F00
380780
780380
700380
700380
780000
780000
3C0000
1C0000
FFF000
FFF000
0F0000
070000
070000
070000
0E0000
0E0000
1C0000
3BC000
7FF980
7FFFC0
70FFC0
001F00
ENDCHAR
STARTCHAR 00A4
ENCODING 164
SWIDTH 553 0
DWIDTH 20 0
BBX 15 15 3 5
BITMAP
4008
E79C
FFFE
7FFC
7878
7038
E01C
E01C
E01C
7038
7878
7FF8
FFFC
EF9C
4008
ENDCHAR
STARTCHAR 00A5
ENCODING 165
SWIDTH 553 0
DWIDTH 20 0
BBX 20 26 0 0
BITMAP
F000F0
7000E0
3801C0
3801C0
1C0380
1C0380
0E0700
070700
070E00
038C00
039C00
01F800
01F800
3FFFC0
3FFFC0
007000
007000
007000
3FFFC0
3FFFC0
007000
007000
007000
007000
007000
007000
ENDCHAR
STARTCHAR 00A6
ENCODING 166
SWIDTH 249 0
DWIDTH 9 0
BBX 2 34 4 -8
BITMAP
C0
C0
C0
C0
C0
C0
C0
C0
C0
C0
C0
C0
C0
C0
00
00
00
00
00
C0
C0
C0
C0
C0
C0
C0
C0
C0
C0
C0
C0
C0
C0
C0
ENDCHAR
STARTCHAR 00A7
ENCODING 167
SWIDTH 553 0
DWIDTH 20 0
BBX 16 34 2 -8
BITMAP
03E0
0FF8
1FFC
3C3C
381E
380E
380E
3C00
1F00
1F80
3FE0
73F0
E0FC
C07E
C01E
E00F
E007
F807
7C07
3E07
1F87
0FCE
03FC
01F0
0078
003C
001C
701C
701C
781C
3C3C
3FF8
1FF0
0780
ENDCHAR
STARTCHAR 00A8
ENCODING 168
SWIDTH 332 0
DWIDTH 12 0
BBX 10 4 1 22
BITMAP
F3C0
F3C0
F3C0
F3C0
ENDCHAR
STARTCHAR 00A9
ENCODING 169
SWIDTH 747 0
DWIDTH 27 0
BBX 27 26 0 0
BITMAP
003F8000
01FFF000
07E0FC00
0F001E00
1C000F00
381F0780
707FC380
70F1E1C0
E0E0E0C0
E1C060E0
C18000E0
C1800060
C1800060
C1800060
C1800060
C18070E0
E1C060E0
E0E0E0C0
70F1C1C0
707FC380
381F0780
1C000F00
0F001E00
07E0F800
01FFF000
007F8000
ENDCHAR
STARTCHAR 00AA
ENCODING 170
SWIDTH 360 0
DWIDTH 13 0
BBX 11 16 1 10
BITMAP
1F00
3F80
61C0
60C0
00C0
1FC0
78C0
60C0
C0C0
E1C0
7FE0
3CE0
0000
0000
7FE0
7FE0
ENDCHAR
STARTCHAR 00AB
ENCODING 171
SWIDTH 553 0
DWIDTH 20 0
BBX 12 11 4 5
BITMAP
1810
3830
78F0
E1E0
C180
C180
E1C0
F0F0
3870
1830
0810
ENDCHAR
STARTCHAR 00AC
ENCODING 172
SWIDTH 581 0
DWIDTH 21 0
BBX 19 11 1 3
BITMAP
FFFFE0
FFFFE0
FFFFE0
0000E0
0000E0
0000E0
0000E0
0000E0
0000E0
0000E0
0000E0
ENDCHAR
STARTCHAR 00AD
ENCODING 173
SWIDTH 332 0
DWIDTH 12 0
BBX 8 3 2 8
BITMAP
FF
FF
FF
ENDCHAR
STARTCHAR 00AE
ENCODING 174
SWIDTH 747 0
DWIDTH 27 0
BBX 27 26 0 0
BITMAP
003F8000
01FFF000
07E0FC00
0F001E00
1C000F00
39FFC380
71FFE380
71C0F1C0
E1C070C0
E1C070E0
C1C070E0
C1C0E060
C1FFE060
C1FFE060
C1C0E060
C1C060E0
E1C060E0
E1C070C0
71C071C0
71C07380
38000780
1C000F00
0F001E00
07E0F800
01FFF000
007F8000
ENDCHAR
STARTCHAR 00AF
ENCODING 175
SWIDTH 332 0
DWIDTH 12 0
BBX 10 3 1 23
BITMAP
FFC0
FFC0
FFC0
ENDCHAR
STARTCHAR 00B0
ENCODING 176
SWIDTH 387 0
DWIDTH 14 0
BBX 11 11 2 14
BITMAP
1F00
7F80
71C0
C0C0
C0E0
C060
C0E0
C0C0
71C0
7F80
1F00
ENDCHAR
STARTCHAR 00B1
ENCODING 177
SWIDTH 581 0
DWIDTH 21 0
BBX 17 23 2 0
BITMAP
01C000
01C000
01C000
01C000
01C000
01C000
01C000
FFFF80
FFFF80
FFFF80
01C000
01C000
01C000
01C000
01C000
01C000
01C000
01C000
000000
000000
FFFF80
FFFF80
FFFF80
ENDCHAR
STARTCHAR 00B2
ENCODING 178
SWIDTH 332 0
DWIDTH 12 0
BBX 11 16 0 10
BITMAP
0F80
3FC0
70E0
6060
6060
6060
0060
00E0
03C0
0F00
1C00
3800
7000
6000
7FE0
FFE0
ENDCHAR
STARTCHAR 00B3
ENCODING 179
SWIDTH 332 0
DWIDTH 12 0
BBX 11 16 0 10
BITMAP
1F00
3FC0
70C0
60E0
6060
00E0
07C0
0780
03C0
0060
0060
E060
E060
70E0
7FC0
1F00
ENDCHAR
STARTCHAR 00B4
ENCODING 180
SWIDTH 332 0
DWIDTH 12 0
BBX 6 5 4 21
BITMAP
3C
38
70
60
C0
ENDCHAR
STARTCHAR 00B5
ENCODING 181
SWIDTH 553 0
DWIDTH 20 0
BBX 18 26 2 -7
BITMAP
E00E00
E00E00
E00E00
E00E00
E00E00
E00E00
E00E00
E00E00
E00E00
E00E00
E00E00
E00E00
E00E00
E00E00
F01E00
F83E00
FFF7C0
FFE7C0
EF83C0
E00000
E00000
E00000
E00000
E00000
E00000
E00000
ENDCHAR
STARTCHAR 00B6
ENCODING 182
SWIDTH 526 0
DWIDTH 19 0
BBX 17 33 2 -7
BITMAP
07FF80
1FFF80
3FCE00
7FCE00
7FCE00
FFCE00
FFCE00
FFCE00
FFCE00
FFCE00
FFCE00
FFCE00
7FCE00
7FCE00
3FCE00
1FCE00
07CE00
01CE00
01CE00
01CE00
01CE00
01CE00
01CE00
01CE00
01CE00
01CE00
01CE00
01CE00
01CE00
01CE00
01CE00
01CE00
01CE00
ENDCHAR
STARTCHAR 00B7
ENCODING 183
SWIDTH 276 0
DWIDTH 10 0
BBX 4 4 4 8
BITMAP
F0
F0
F0
F0
ENDCHAR
STARTCHAR 00B8
ENCODING 184
SWIDTH 332 0
DWIDTH 12 0
BBX 8 7 2 -7
BITMAP
08
18
1F
07
03
C7
FE
ENDCHAR
STARTCHAR 00B9
ENCODING 185
SWIDTH 332 0
DWIDTH 12 0
BBX 6 16 2 10
BITMAP
0C
0C
1C
FC
FC
1C
1C
1C
1C
1C
1C
1C
1C
1C
1C
1C
ENDCHAR
STARTCHAR 00BA
ENCODING 186
SWIDTH 360 0
DWIDTH 13 0
BBX 11 16 1 10
BITMAP
1F00
3F80
71C0
60C0
60E0
E060
E060
60E0
60C0
71C0
3F80
1F00
0000
0000
7FC0
7FC0
ENDCHAR
STARTCHAR 00BB
ENCODING 187
SWIDTH 553 0
DWIDTH 20 0
BBX 12 11 4 5
BITMAP
8100
C1C0
F1E0
78F0
1830
1830
3870
F0E0
E1C0
C180
8100
ENDCHAR
STARTCHAR 00BC
ENCODING 188
SWIDTH 830 0
DWIDTH 30 0
BBX 28 26 1 0
BITMAP
0C000600
0C000C00
3C001800
FC001800
FC003000
1C007000
1C006000
1C00C000
1C00C000
1C018000
1C0300C0
1C0301C0
1C0601C0
1C0E03C0
1C0C06C0
00180CC0
00181CC0
003018C0
006030C0
006060C0
00C07FF0
01C07FF0
018000C0
030000C0
030000C0
06000000
ENDCHAR
STARTCHAR 00BD
ENCODING 189
SWIDTH 830 0
DWIDTH 30 0
BBX 28 26 1 0
BITMAP
0C000C00
0C001800
3C003000
FC003000
1C006000
1C00E000
1C00C000
1C018000
1C018000
1C030000
1C060F80
1C061FE0
1C0C3870
1C1C3030
1C183030
00300030
00300070
006000E0
00C003C0
00C00F00
01801C00
01803800
03003000
06007FF0
06007FF0
0C000000
ENDCHAR
STARTCHAR 00BE
ENCODING 190
SWIDTH 830 0
DWIDTH 30 0
BBX 28 26 1 0
BITMAP
1F000300
7FC00600
61C00C00
E0C00C00
E0C01800
00C01800
07C03000
0F806000
03C06000
00E0C000
006180C0
C06181C0
E0E301C0
E1C703C0
7FC606C0
1F0C0CC0
000C1CC0
001818C0
003030C0
003060C0
00607FF0
00E07FF0
00C000C0
018000C0
018000C0
03000000
ENDCHAR
STARTCHAR 00BF
ENCODING 191
SWIDTH 609 0
DWIDTH 22 0
BBX 16 27 3 -8
BITMAP
01C0
01C0
01C0
01C0
0000
0000
0000
01C0
01C0
01C0
01C0
03C0
0780
0F00
1E00
3C00
7800
7000
7007
F007
F007
7007
780E
7C1E
3FFC
1FF8
03E0
ENDCHAR
STARTCHAR 00C0
ENCODING 192
SWIDTH 664 0
DWIDTH 24 0
BBX 22 34 1 0
BITMAP
03C000
01E000
00E000
007000
003800
001800
000000
000000
007C00
00FC00
00FC00
00FE00
01FE00
01CE00
01CF00
03CF00
038700
038780
078380
070380
0F03C0
0E01C0
0E01C0
1FFFE0
1FFFE0
1FFFF0
3C00F0
380070
380078
780078
700038
70003C
F0003C
E0001C
ENDCHAR
STARTCHAR 00C1
ENCODING 193
SWIDTH 664 0
DWIDTH 24 0
BBX 22 34 1 0
BITMAP
000F00
000E00
001C00
003800
003000
006000
000000
000000
007C00
00FC00
00FC00
00FE00
01FE00
01CE00
01CF00
03CF00
038700
038780
078380
070380
0F03C0
0E01C0
0E01C0
1FFFE0
1FFFE0
1FFFF0
3C00F0
380070
380078
780078
700038
70003C
F0003C
E0001C
ENDCHAR
STARTCHAR 00C2
ENCODING 194
SWIDTH 664 0
DWIDTH 24 0
BBX 22 34 1 0
BITMAP
007800
007C00
00FC00
01CE00
018600
030300
000000
000000
007C00
00FC00
00FC00
00FE00
01FE00
01CE00
01CF00
03CF00
038700
038780
078380
070380
0F03C0
0E01C0
0E01C0
1FFFE0
1FFFE0
1FFFF0
3C00F0
380070
380078
780078
700038
70003C
F0003C
E0001C
ENDCHAR
STARTCHAR 00C3
ENCODING 195
SWIDTH 664 0
DWIDTH 24 0
BBX 22 33 1 0
BITMAP
01C180
03FF00
03FF00
070E00
000000
000000
000000
007C00
00FC00
00FC00
00FE00
01FE00
01CE00
01CF00
03CF00
038700
038780
078380
070380
0F03C0
0E01C0
0E01C0
1FFFE0
1FFFE0
1FFFF0
3C00F0
380070
380078
780078
700038
70003C
F0003C
E0001C
ENDCHAR
STARTCHAR 00C4
ENCODING 196
SWIDTH 664 0
DWIDTH 24 0
BBX 22 33 1 0
BITMAP
03CF00
03CF00
03CF00
03CF00
000000
000000
000000
007C00
00FC00
00FC00
00FE00
01FE00
01CE00
01CF00
03CF00
038700
038780
078380
070380
0F03C0
0E01C0
0E01C0
1FFFE0
1FFFE0
1FFFF0
3C00F0
380070
380078
780078
700038
70003C
F0003C
E0001C
ENDCHAR
STARTCHAR 00C5
ENCODING 197
SWIDTH 664 0
DWIDTH 24 0
BBX 22 34 1 0
BITMAP
007800
00FC00
00C400
00C400
00FC00
007800
000000
000000
007C00
00FC00
00FC00
00FE00
01FE00
01CE00
01CF00
03CF00
038700
038780
078380
070380
0F03C0
0E01C0
0E01C0
1FFFE0
1FFFE0
1FFFF0
3C00F0
380070
380078
780078
700038
70003C
F0003C
E0001C
ENDCHAR
STARTCHAR 00C6
ENCODING 198
SWIDTH 996 0
DWIDTH 36 0
BBX 33 26 1 0
BITMAP
003FFFFF80
003FFFFF80
007FFFFF80
0070E00000
00F0E00000
00E0E00000
01E0E00000
01C0E00000
01C0E00000
03C0E00000
0380E00000
0780FFFF00
0700FFFF00
0700FFFF00
0F00E00000
0FFFE00000
1FFFE00000
1FFFE00000
1C00E00000
3C00E00000
3800E00000
7800E00000
7000E00000
F000FFFF80
F000FFFF80
E000FFFF80
ENDCHAR
STARTCHAR 00C7
ENCODING 199
SWIDTH 720 0
DWIDTH 26 0
BBX 22 33 2 -7
BITMAP
00FF00
03FFC0
0FFFE0
1F01F0
3E00F8
3C0078
780038
70003C
F00000
F00000
E00000
E00000
E00000
E00000
E00000
E00000
E00000
F0001C
F0001C
70003C
78003C
3C0078
3E00F8
1F81F0
0FFFE0
03FFC0
00FE00
002000
003C00
005E00
000E00
010E00
01FC00
ENDCHAR
STARTCHAR 00C8
ENCODING 200
SWIDTH 664 0
DWIDTH 24 0
BBX 19 34 3 0
BITMAP
078000
038000
01C000
00E000
006000
003000
000000
000000
FFFFC0
FFFFC0
FFFFC0
F00000
F00000
F00000
F00000
F00000
F00000
F00000
F00000
FFFFC0
FFFFC0
FFFFC0
F00000
F00000
F00000
F00000
F00000
F00000
F00000
F00000
F00000
FFFFE0
FFFFE0
FFFFE0
ENDCHAR
STARTCHAR 00C9
ENCODING 201
SWIDTH 664 0
DWIDTH 24 0
BBX 19 34 3 0
BITMAP
003C00
003800
007000
00E000
00C000
018000
000000
000000
FFFFC0
FFFFC0
FFFFC0
F00000
F00000
F00000
F00000
F00000
F00000
F00000
F00000
FFFFC0
FFFFC0
FFFFC0
F00000
F00000
F00000
F00000
F00000
F00000
F00000
F00000
F00000
FFFFE0
FFFFE0
FFFFE0
ENDCHAR
STARTCHAR 00CA
ENCODING 202
SWIDTH 664 0
DWIDTH 24 0
BBX 19 34 3 0
BITMAP
00E000
01F000
03B800
033800
071C00
0E0C00
000000
000000
FFFFC0
FFFFC0
FFFFC0
F00000
F00000
F00000
F00000
F00000
F00000
F00000
F00000
FFFFC0
FFFFC0
FFFFC0
F00000
F00000
F00000
F00000
F00000
F00000
F00000
F00000
F00000
FFFFE0
FFFFE0
FFFFE0
ENDCHAR
STARTCHAR 00CB
ENCODING 203
SWIDTH 664 0
DWIDTH 24 0
BBX 19 33 3 0
BITMAP
073C00
073C00
073C00
073C00
000000
000000
000000
FFFFC0
FFFFC0
FFFFC0
F00000
F00000
F00000
F00000
F00000
F00000
F00000
F00000
FFFFC0
FFFFC0
FFFFC0
F00000
F00000
F00000
F00000
F00000
F00000
F00000
F00000
F00000
FFFFE0
FFFFE0
FFFFE0
ENDCHAR
STARTCHAR 00CC
ENCODING 204
SWIDTH 276 0
DWIDTH 10 0
BBX 7 34 0 0
BITMAP
F0
78
38
1C
0E
06
00
00
0E
0E
0E
0E
0E
0E
0E
0E
0E
0E
0E
0E
0E
0E
0E
0E
0E
0E
0E
0E
0E
0E
0E
0E
0E
0E
ENDCHAR
STARTCHAR 00CD
ENCODING 205
SWIDTH 276 0
DWIDTH 10 0
BBX 7 34 3 0
BITMAP
1E
3C
38
70
E0
C0
00
00
70
70
70
70
70
70
70
70
70
70
70
70
70
70
70
70
70
70
70
70
70
70
70
70
70
70
ENDCHAR
STARTCHAR 00CE
ENCODING 206
SWIDTH 276 0
DWIDTH 10 0
BBX 10 34 0 0
BITMAP
1E00
1F00
3F00
7380
6180
E0C0
0000
0000
0E00
0E00
0E00
0E00
0E00
0E00
0E00
0E00
0E00
0E00
0E00
0E00
0E00
0E00
0E00
0E00
0E00
0E00
0E00
0E00
0E00
0E00
0E00
0E00
0E00
0E00
ENDCHAR
STARTCHAR 00CF
ENCODING 207
SWIDTH 276 0
DWIDTH 10 0
BBX 10 33 0 0
BITMAP
F3C0
F3C0
F3C0
F3C0
0000
0000
0000
0E00
0E00
0E00
0E00
0E00
0E00
0E00
0E00
0E00
0E00
0E00
0E00
0E00
0E00
0E00
0E00
0E00
0E00
0E00
0E00
0E00
0E00
0E00
0E00
0E00
0E00
ENDCHAR
STARTCHAR 00D0
ENCODING 208
SWIDTH 720 0
DWIDTH 26 0
BBX 23 26 1 0
BITMAP
3FFF00
3FFFC0
3FFFE0
3C01F0
3C0078
3C003C
3C003C
3C001C
3C001E
3C001E
3C000E
3C000E
FFF00E
FFF00E
3C000E
3C000E
3C001E
3C001E
3C001C
3C003C
3C003C
3C0078
3C01F0
3FFFE0
3FFFC0
3FFF00
ENDCHAR
STARTCHAR 00D1
ENCODING 209
SWIDTH 720 0
DWIDTH 26 0
BBX 20 33 3 0
BITMAP
03C300
07F700
07FE00
061C00
000000
000000
000000
F00070
F00070
F80070
FC0070
FC0070
FE0070
EF0070
E70070
E78070
E3C070
E3C070
E1E070
E0E070
E0F070
E07870
E03870
E03C70
E01E70
E00E70
E00F70
E007F0
E003F0
E003F0
E001F0
E001F0
E000F0
ENDCHAR
STARTCHAR 00D2
ENCODING 210
SWIDTH 775 0
DWIDTH 28 0
BBX 26 33 1 0
BITMAP
00F00000
00380000
001C0000
000C0000
00060000
00000000
00000000
007F8000
01FFF000
07FFF800
0FC0FC00
1F003E00
3E000F00
3C000F00
78000780
78000380
70000380
700003C0
F00003C0
F00003C0
F00003C0
F00003C0
700003C0
70000380
78000380
78000780
3C000700
3E000F00
1F003E00
0FC0FC00
07FFF800
01FFE000
007F8000
ENDCHAR
STARTCHAR 00D3
ENCODING 211
SWIDTH 775 0
DWIDTH 28 0
BBX 26 33 1 0
BITMAP
0003C000
00078000
000E0000
000C0000
00180000
00000000
00000000
007F8000
01FFF000
07FFF800
0FC0FC00
1F003E00
3E000F00
3C000F00
78000780
78000380
70000380
700003C0
F00003C0
F00003C0
F00003C0
F00003C0
700003C0
70000380
78000380
78000780
3C000700
3E000F00
1F003E00
0FC0FC00
07FFF800
01FFE000
007F8000
ENDCHAR
STARTCHAR 00D4
ENCODING 212
SWIDTH 775 0
DWIDTH 28 0
BBX 26 33 1 0
BITMAP
001E0000
003F0000
00338000
00718000
00E1C000
00000000
00000000
007F8000
01FFF000
07FFF800
0FC0FC00
1F003E00
3E000F00
3C000F00
78000780
78000380
70000380
700003C0
F00003C0
F00003C0
F00003C0
F00003C0
700003C0
70000380
78000380
78000780
3C000700
3E000F00
1F003E00
0FC0FC00
07FFF800
01FFE000
007F8000
ENDCHAR
STARTCHAR 00D5
ENCODING 213
SWIDTH 775 0
DWIDTH 28 0
BBX 26 32 1 0
BITMAP
0078E000
00FFC000
00C7C000
00000000
00000000
00000000
007F8000
01FFF000
07FFF800
0FC0FC00
1F003E00
3E000F00
3C000F00
78000780
78000380
70000380
700003C0
F00003C0
F00003C0
F00003C0
F00003C0
700003C0
70000380
78000380
78000780
3C000700
3E000F00
1F003E00
0FC0FC00
07FFF800
01FFE000
007F8000
ENDCHAR
STARTCHAR 00D6
ENCODING 214
SWIDTH 775 0
DWIDTH 28 0
BBX 26 32 1 0
BITMAP
00F3C000
00F3C000
00F3C000
00F3C000
00000000
00000000
007F8000
01FFF000
07FFF800
0FC0FC00
1F003E00
3E000F00
3C000F00
78000780
78000380
70000380
700003C0
F00003C0
F00003C0
F00003C0
F00003C0
700003C0
70000380
78000380
78000780
3C000700
3E000F00
1F003E00
0FC0FC00
07FFF800
01FFE000
007F8000
ENDCHAR
STARTCHAR 00D7
ENCODING 215
SWIDTH 581 0
DWIDTH 21 0
BBX 13 13 4 1
BITMAP
C018
E038
7070
38E0
1DC0
0F80
0700
0F80
1DC0
38E0
7070
E038
C018
ENDCHAR
STARTCHAR 00D8
ENCODING 216
SWIDTH 775 0
DWIDTH 28 0
BBX 26 26 1 1
BITMAP
007F81C0
01FFE180
07FFFB00
0FC0FE00
1F003E00
3C001F00
3C003F00
78006780
7000C780
70018380
F0030380
F00603C0
F00C03C0
F01803C0
F03003C0
F06003C0
70C00380
71800380
7B000780
3E000F00
3E000F00
1F003E00
3FC0FC00
77FFF800
E1FFE000
407F8000
ENDCHAR
STARTCHAR 00D9
ENCODING 217
SWIDTH 720 0
DWIDTH 26 0
BBX 20 34 3 0
BITMAP
078000
03C000
01C000
00E000
007000
003000
000000
000000
E00070
E00070
E00070
E00070
E00070
E00070
E00070
E00070
E00070
E00070
E00070
E00070
E00070
E00070
E00070
E00070
E00070
E00070
F00070
F00070
7000F0
7801E0
3E03E0
1FFFC0
0FFF00
03FC00
ENDCHAR
STARTCHAR 00DA
ENCODING 218
SWIDTH 720 0
DWIDTH 26 0
BBX 20 34 3 0
BITMAP
001E00
003C00
003800
007000
00E000
00C000
000000
000000
E00070
E00070
E00070
E00070
E00070
E00070
E00070
E00070
E00070
E00070
E00070
E00070
E00070
E00070
E00070
E00070
E00070
E00070
F00070
F00070
7000F0
7801E0
3E03E0
1FFFC0
0FFF00
03FC00
ENDCHAR
STARTCHAR 00DB
ENCODING 219
SWIDTH 720 0
DWIDTH 26 0
BBX 20 34 3 0
BITMAP
00F000
00F800
01F800
039C00
030E00
070600
000000
000000
E00070
E00070
E00070
E00070
E00070
E00070
E00070
E00070
E00070
E00070
E00070
E00070
E00070
E00070
E00070
E00070
E00070
E00070
F00070
F00070
7000F0
7801E0
3E03E0
1FFFC0
0FFF00
03FC00
ENDCHAR
STARTCHAR 00DC
ENCODING 220
SWIDTH 720 0
DWIDTH 26 0
BBX 20 33 3 0
BITMAP
079E00
079E00
079E00
079E00
000000
000000
000000
E00070
E00070
E00070
E00070
E00070
E00070
E00070
E00070
E00070
E00070
E00070
E00070
E00070
E00070
E00070
E00070
E00070
E00070
F00070
F00070
7000F0
7801E0
3E03E0
1FFFC0
0FFF00
03FC00
ENDCHAR
STARTCHAR 00DD
ENCODING 221
SWIDTH 664 0
DWIDTH 24 0
BBX 23 34 1 0
BITMAP
000F00
001E00
001C00
003800
003000
006000
000000
000000
F0001E
F8003C
780078
3C0078
3C00F0
1E00E0
0F01E0
0F03C0
078380
038780
03C700
01EF00
01FE00
00FC00
007C00
007800
003800
003800
003800
003800
003800
003800
003800
003800
003800
003800
ENDCHAR
STARTCHAR 00DE
ENCODING 222
SWIDTH 664 0
DWIDTH 24 0
BBX 19 26 3 0
BITMAP
F00000
F00000
F00000
F00000
FFFC00
FFFF00
FFFFC0
F007C0
F001E0
F001E0
F000E0
F000E0
F000E0
F001E0
F001E0
F007C0
FFFFC0
FFFF80
FFFE00
F00000
F00000
F00000
F00000
F00000
F00000
F00000
ENDCHAR
STARTCHAR 00DF
ENCODING 223
SWIDTH 609 0
DWIDTH 22 0
BBX 17 26 3 0
BITMAP
07E000
3FF800
7FFC00
F81E00
E00F00
E00F00
E00700
E00700
E00E00
E01E00
E0F800
E1F000
E1FC00
E03E00
E00F00
E00780
E00380
E00380
E00380
E00380
E00780
E00F00
E01F00
E3FE00
E3FC00
E3E000
ENDCHAR
STARTCHAR 00E0
ENCODING 224
SWIDTH 553 0
DWIDTH 20 0
BBX 17 26 2 0
BITMAP
1E0000
0F0000
038000
018000
00C000
000000
000000
07F000
3FFC00
7FFC00
781E00
700E00
E00E00
000E00
001E00
07FE00
3FFE00
7E0E00
F00E00
E00E00
E00E00
E01E00
F03E00
FFFF80
7FEF80
1F8780
ENDCHAR
STARTCHAR 00E1
ENCODING 225
SWIDTH 553 0
DWIDTH 20 0
BBX 17 26 2 0
BITMAP
007800
00E000
01C000
018000
030000
000000
000000
07F000
3FFC00
7FFC00
781E00
700E00
E00E00
000E00
001E00
07FE00
3FFE00
7E0E00
F00E00
E00E00
E00E00
E01E00
F03E00
FFFF80
7FEF80
1F8780
ENDCHAR
STARTCHAR 00E2
ENCODING 226
SWIDTH 553 0
DWIDTH 20 0
BBX 17 26 2 0
BITMAP
03C000
07E000
06E000
0E7000
1C3800
000000
000000
07F000
3FFC00
7FFC00
781E00
700E00
E00E00
000E00
001E00
07FE00
3FFE00
7E0E00
F00E00
E00E00
E00E00
E01E00
F03E00
FFFF80
7FEF80
1F8780
ENDCHAR
STARTCHAR 00E3
ENCODING 227
SWIDTH 553 0
DWIDTH 20 0
BBX 17 26 2 0
BITMAP
0E1C00
1FF800
1BF800
307000
000000
000000
000000
07F000
3FFC00
7FFC00
781E00
700E00
E00E00
000E00
001E00
07FE00
3FFE00
7E0E00
F00E00
E00E00
E00E00
E01E00
F03E00
FFFF80
7FEF80
1F8780
ENDCHAR
STARTCHAR 00E4
ENCODING 228
SWIDTH 553 0
DWIDTH 20 0
BBX 17 26 2 0
BITMAP
1E7800
1E7800
1E7800
1E7800
000000
000000
000000
07F000
3FFC00
7FFC00
781E00
700E00
E00E00
000E00
001E00
07FE00
3FFE00
7E0E00
F00E00
E00E00
E00E00
E01E00
F03E00
FFFF80
7FEF80
1F8780
ENDCHAR
STARTCHAR 00E5
ENCODING 229
SWIDTH 553 0
DWIDTH 20 0
BBX 17 26 2 1
BITMAP
03C000
066000
046000
066000
03C000
010000
000000
07F000
3FFC00
7FFC00
781E00
700E00
E00E00
000E00
001E00
07FE00
3FFE00
7E0E00
F00E00
E00E00
E00E00
E01E00
F03E00
FFFF80
7FEF80
1F8780
ENDCHAR
STARTCHAR 00E6
ENCODING 230
SWIDTH 886 0
DWIDTH 32 0
BBX 30 19 1 0
BITMAP
07F03F00
1FFCFFC0
3FFFFFE0
380FC0F0
70078078
70070038
00070038
000F0038
03FFFFF8
1FFFFFFC
7F870000
78070000
F0070000
E0070038
F00F8078
703FC0F0
7FF9FFE0
3FE0FFC0
0F803F00
ENDCHAR
STARTCHAR 00E7
ENCODING 231
SWIDTH 498 0
DWIDTH 18 0
BBX 16 26 1 -7
BITMAP
03F0
0FF8
1FFE
3C1E
780F
7007
7007
F000
E000
E000
E000
E000
F000
7007
7007
780F
3C1E
1FFC
0FF8
03E0
0100
03E0
0070
0070
1870
1FE0
ENDCHAR
STARTCHAR 00E8
ENCODING 232
SWIDTH 553 0
DWIDTH 20 0
BBX 18 26 1 0
BITMAP
070000
038000
01C000
00C000
006000
000000
000000
03F000
0FFC00
1FFE00
3C0F00
380780
700380
700380
700380
7FFF80
FFFFC0
F00000
700000
700000
700380
780780
3C0F00
1FFE00
0FFC00
03F000
ENDCHAR
STARTCHAR 00E9
ENCODING 233
SWIDTH 553 0
DWIDTH 20 0
BBX 18 26 1 0
BITMAP
003C00
007800
00F000
00E000
01C000
000000
000000
03F000
0FFC00
1FFE00
3C0F00
380780
700380
700380
700380
7FFF80
FFFFC0
F00000
700000
700000
700380
780780
3C0F00
1FFE00
0FFC00
03F000
ENDCHAR
STARTCHAR 00EA
ENCODING 234
SWIDTH 553 0
DWIDTH 20 0
BBX 18 26 1 0
BITMAP
01E000
01F000
03B800
071800
060C00
000000
000000
03F000
0FFC00
1FFE00
3C0F00
380780
700380
700380
700380
7FFF80
FFFFC0
F00000
700000
700000
700380
780780
3C0F00
1FFE00
0FFC00
03F000
ENDCHAR
STARTCHAR 00EB
ENCODING 235
SWIDTH 553 0
DWIDTH 20 0
BBX 18 26 1 0
BITMAP
073C00
073C00
073C00
073C00
000000
000000
000000
03F000
0FFC00
1FFE00
3C0F00
380780
700380
700380
700380
7FFF80
FFFFC0
F00000
700000
700000
700380
780780
3C0F00
1FFE00
0FFC00
03F000
ENDCHAR
STARTCHAR 00EC
ENCODING 236
SWIDTH 276 0
DWIDTH 10 0
BBX 7 26 0 0
BITMAP
F0
78
1C
0C
06
00
00
1C
1C
1C
1C
1C
1C
1C
1C
1C
1C
1C
1C
1C
1C
1C
1C
1C
1C
1C
ENDCHAR
STARTCHAR 00ED
ENCODING 237
SWIDTH 276 0
DWIDTH 10 0
BBX 6 26 3 0
BITMAP
3C
38
70
E0
C0
00
00
E0
E0
E0
E0
E0
E0
E0
E0
E0
E0
E0
E0
E0
E0
E0
E0
E0
E0
E0
ENDCHAR
STARTCHAR 00EE
ENCODING 238
SWIDTH 276 0
DWIDTH 10 0
BBX 10 26 0 0
BITMAP
1E00
3F00
7300
6180
C1C0
0000
0000
1C00
1C00
1C00
1C00
1C00
1C00
1C00
1C00
1C00
1C00
1C00
1C00
1C00
1C00
1C00
1C00
1C00
1C00
1C00
ENDCHAR
STARTCHAR 00EF
ENCODING 239
SWIDTH 276 0
DWIDTH 10 0
BBX 10 26 0 0
BITMAP
F3C0
F3C0
F3C0
F3C0
0000
0000
0000
1C00
1C00
1C00
1C00
1C00
1C00
1C00
1C00
1C00
1C00
1C00
1C00
1C00
1C00
1C00
1C00
1C00
1C00
1C00
ENDCHAR
STARTCHAR 00F0
ENCODING 240
SWIDTH 553 0
DWIDTH 20 0
BBX 17 26 1 1
BITMAP
1C3000
1FF000
07C000
0FC000
3DE000
10F000
007800
03FC00
0FFE00
1FFF00
3C0F00
780780
700780
700380
F00380
F00380
E00380
F00380
F00380
700380
700780
780700
3C0F00
1FFE00
0FFC00
03F000
ENDCHAR
STARTCHAR 00F1
ENCODING 241
SWIDTH 553 0
DWIDTH 20 0
BBX 15 26 3 0
BITMAP
1C18
3FF0
37F0
70E0
0000
0000
0000
C7E0
CFF8
DFFC
F83C
F01E
E00E
E00E
E00E
E00E
E00E
E00E
E00E
E00E
E00E
E00E
E00E
E00E
E00E
E00E
ENDCHAR
STARTCHAR 00F2
ENCODING 242
SWIDTH 553 0
DWIDTH 20 0
BBX 17 26 1 0
BITMAP
0F0000
078000
03C000
01C000
00E000
000000
000000
03F000
0FFC00
1FFE00
3C0F00
780700
700780
700380
F00380
F00380
E00380
F00380
F00380
700380
700780
780700
3C0F00
1FFE00
0FFC00
03F000
ENDCHAR
STARTCHAR 00F3
ENCODING 243
SWIDTH 553 0
DWIDTH 20 0
BBX 17 26 1 0
BITMAP
007800
007000
00E000
01C000
018000
000000
000000
03F000
0FFC00
1FFE00
3C0F00
780700
700780
700380
F00380
F00380
E00380
F00380
F00380
700380
700780
780700
3C0F00
1FFE00
0FFC00
03F000
ENDCHAR
STARTCHAR 00F4
ENCODING 244
SWIDTH 553 0
DWIDTH 20 0
BBX 17 26 1 0
BITMAP
01E000
03F000
077000
063800
0E1C00
000000
000000
03F000
0FFC00
1FFE00
3C0F00
780700
700780
700380
F00380
F00380
E00380
F00380
F00380
700380
700780
780700
3C0F00
1FFE00
0FFC00
03F000
ENDCHAR
STARTCHAR 00F5
ENCODING 245
SWIDTH 553 0
DWIDTH 20 0
BBX 17 26 1 0
BITMAP
070E00
0FFC00
0DFC00
183800
000000
000000
000000
03F000
0FFC00
1FFE00
3C0F00
780700
700780
700380
F00380
F00380
E00380
F00380
F00380
700380
700780
780700
3C0F00
1FFE00
0FFC00
03F000
ENDCHAR
STARTCHAR 00F6
ENCODING 246
SWIDTH 553 0
DWIDTH 20 0
BBX 17 26 1 0
BITMAP
0F3C00
0F3C00
0F3C00
0F3C00
000000
000000
000000
03F000
0FFC00
1FFE00
3C0F00
780700
700780
700380
F00380
F00380
E00380
F00380
F00380
700380
700780
780700
3C0F00
1FFE00
0FFC00
03F000
ENDCHAR
STARTCHAR 00F7
ENCODING 247
SWIDTH 581 0
DWIDTH 21 0
BBX 17 17 2 0
BITMAP
01C000
01C000
01C000
01C000
000000
000000
000000
FFFF80
FFFF80
FFFF80
000000
000000
000000
01C000
01C000
01C000
01C000
ENDCHAR
STARTCHAR 00F8
ENCODING 248
SWIDTH 609 0
DWIDTH 22 0
BBX 18 19 1 0
BITMAP
03F080
0FFCC0
1FFF80
3C0F00
780700
700F80
701B80
F03380
F06380
E0C380
E18380
F30380
760380
7C0780
780700
3C0F00
7FFE00
CFFC00
83F000
ENDCHAR
STARTCHAR 00F9
ENCODING 249
SWIDTH 553 0
DWIDTH 20 0
BBX 15 26 2 -1
BITMAP
1E00
0F00
0700
0380
01C0
0000
0000
E00E
E00E
E00E
E00E
E00E
E00E
E00E
E00E
E00E
E00E
E00E
E00E
E00E
E00E
F01E
783E
7FFE
3FF6
0FE6
ENDCHAR
STARTCHAR 00FA
ENCODING 250
SWIDTH 553 0
DWIDTH 20 0
BBX 15 26 2 -1
BITMAP
00F0
00E0
01C0
0380
0300
0000
0000
E00E
E00E
E00E
E00E
E00E
E00E
E00E
E00E
E00E
E00E
E00E
E00E
E00E
E00E
F01E
783E
7FFE
3FF6
0FE6
ENDCHAR
STARTCHAR 00FB
ENCODING 251
SWIDTH 553 0
DWIDTH 20 0
BBX 15 26 2 -1
BITMAP
03C0
07E0
06E0
0E70
1C38
0000
0000
E00E
E00E
E00E
E00E
E00E
E00E
E00E
E00E
E00E
E00E
E00E
E00E
E00E
E00E
F01E
783E
7FFE
3FF6
0FE6
ENDCHAR
STARTCHAR 00FC
ENCODING 252
SWIDTH 553 0
DWIDTH 20 0
BBX 15 26 2 -1
BITMAP
1E78
1E78
1E78
1E78
0000
0000
0000
E00E
E00E
E00E
E00E
E00E
E00E
E00E
E00E
E00E
E00E
E00E
E00E
E00E
E00E
F01E
783E
7FFE
3FF6
0FE6
ENDCHAR
STARTCHAR 00FD
ENCODING 253
SWIDTH 498 0
DWIDTH 18 0
BBX 16 34 1 -8
BITMAP
00F0
00E0
01C0
0380
0300
0000
0000
E007
E00F
700E
700E
701E
381C
381C
383C
1C38
1C38
1C70
0E70
0E70
0EE0
07E0
07E0
07C0
03C0
03C0
0380
0380
0700
0700
0F00
7E00
7C00
7800
ENDCHAR
STARTCHAR 00FE
ENCODING 254
SWIDTH 553 0
DWIDTH 20 0
BBX 17 32 2 -7
BITMAP
E00000
E00000
E00000
E00000
E00000
E00000
E3F000
EFF800
FFFE00
FC1E00
F80F00
F00700
E00780
E00780
E00380
E00380
E00380
E00380
E00780
F00700
F80F00
FC1E00
FFFE00
EFF800
E3F000
E00000
E00000
E00000
E00000
E00000
E00000
E00000
ENDCHAR
STARTCHAR 00FF
ENCODING 255
SWIDTH 498 0
DWIDTH 18 0
BBX 16 34 1 -8
BITMAP
1E78
1E78
1E78
1E78
0000
0000
0000
E007
E00F
700E
700E
701E
381C
381C
383C
1C38
1C38
1C70
0E70
0E70
0EE0
07E0
07E0
07C0
03C0
03C0
0380
0380
0700
0700
0F00
7E00
7C00
7800
ENDCHAR
STARTCHAR 0100
ENCODING 256
SWIDTH 664 0
DWIDTH 24 0
BBX 22 32 1 0
BITMAP
03FF00
03FF00
03FF00
000000
000000
000000
007C00
00FC00
00FC00
00FE00
01FE00
01CE00
01CF00
03CF00
038700
038780
078380
070380
0F03C0
0E01C0
0E01C0
1FFFE0
1FFFE0
1FFFF0
3C00F0
380070
380078
780078
700038
70003C
F0003C
E0001C
ENDCHAR
STARTCHAR 0101
ENCODING 257
SWIDTH 553 0
DWIDTH 20 0
BBX 17 25 2 0
BITMAP
1FF800
1FF800
1FF800
000000
000000
000000
07F000
3FFC00
7FFC00
781E00
700E00
E00E00
000E00
001E00
07FE00
3FFE00
7E0E00
F00E00
E00E00
E00E00
E01E00
F03E00
FFFF80
7FEF80
1F8780
ENDCHAR
STARTCHAR 0102
ENCODING 258
SWIDTH 664 0
DWIDTH 24 0
BBX 22 33 1 0
BITMAP
030300
038700
03FF00
01FE00
000000
000000
000000
007C00
00FC00
00FC00
00FE00
01FE00
01CE00
01CF00
03CF00
038700
038780
078380
070380
0F03C0
0E01C0
0E01C0
1FFFE0
1FFFE0
1FFFF0
3C00F0
380070
380078
780078
700038
70003C
F0003C
E0001C
ENDCHAR
STARTCHAR 0103
ENCODING 259
SWIDTH 553 0
DWIDTH 20 0
BBX 17 26 2 0
BITMAP
181800
181800
1FF800
0FF000
07E000
000000
000000
07F000
3FFC00
7FFC00
781E00
700E00
E00E00
000E00
001E00
07FE00
3FFE00
7E0E00
F00E00
E00E00
E00E00
E01E00
F03E00
FFFF80
7FEF80
1F8780
ENDCHAR
STARTCHAR 0104
ENCODING 260
SWIDTH 664 0
DWIDTH 24 0
BBX 24 34 1 -8
BITMAP
007C00
00FC00
00FC00
00FE00
01FE00
01CE00
01CF00
03CF00
038700
038780
078380
070380
0F03C0
0E01C0
0E01C0
1FFFE0
1FFFE0
1FFFF0
3C00F0
380070
380078
780078
700038
70003C
F0003C
E0001C
00001C
000030
000060
000060
0000E0
000070
00003F
000004
ENDCHAR
STARTCHAR 0105
ENCODING 261
SWIDTH 553 0
DWIDTH 20 0
BBX 20 26 2 -7
BITMAP
07F000
1FFC00
7FFC00
781E00
700E00
F00E00
000E00
001E00
07FE00
3FFE00
7E0E00
F00E00
E00E00
E00E00
E01E00
F03E00
FFFF80
7FEF80
1F8780
000300
000600
000E00
000E00
000E00
0007F0
0000C0
ENDCHAR
STARTCHAR 0106
ENCODING 262
SWIDTH 720 0
DWIDTH 26 0
BBX 22 33 2 0
BITMAP
000F00
000E00
001C00
003800
003000
000000
000000
00FF00
03FFC0
0FFFE0
1F01F0
3C0078
380078
780038
70003C
F00000
F00000
E00000
E00000
E00000
E00000
E00000
E00000
F0001C
F0001C
70003C
78003C
3C0078
3E0078
1F81F0
0FFFE0
07FFC0
00FE00
ENDCHAR
STARTCHAR 0107
ENCODING 263
SWIDTH 498 0
DWIDTH 18 0
BBX 16 26 1 0
BITMAP
0078
0070
00E0
01C0
0180
0000
0000
03F0
0FF8
1FFE
3C1E
780F
7007
7007
E000
E000
E000
E000
E000
F007
7007
780F
3C1E
3FFE
0FF8
07F0
ENDCHAR
STARTCHAR 0108
ENCODING 264
SWIDTH 720 0
DWIDTH 26 0
BBX 22 33 2 0
BITMAP
007C00
007C00
00EE00
01C700
018300
000000
000000
00FF00
03FFC0
0FFFE0
1F01F0
3C0078
380078
780038
70003C
F00000
F00000
E00000
E00000
E00000
E00000
E00000
E00000
F0001C
F0001C
70003C
78003C
3C0078
3E0078
1F81F0
0FFFE0
07FFC0
00FE00
ENDCHAR
STARTCHAR 0109
ENCODING 265
SWIDTH 498 0
DWIDTH 18 0
BBX 16 26 1 0
BITMAP
01E0
03E0
0770
0638
0C18
0000
0000
03F0
0FF8
1FFE
3C1E
780F
7007
7007
E000
E000
E000
E000
E000
F007
7007
780F
3C1E
3FFE
0FF8
07F0
ENDCHAR
STARTCHAR 010A
ENCODING 266
SWIDTH 720 0
DWIDTH 26 0
BBX 22 32 2 0
BITMAP
003C00
003C00
003C00
003C00
000000
000000
00FF00
03FFC0
0FFFE0
1F01F0
3C0078
380078
780038
70003C
F00000
F00000
E00000
E00000
E00000
E00000
E00000
E00000
F0001C
F0001C
70003C
78003C
3C0078
3E0078
1F81F0
0FFFE0
07FFC0
00FE00
ENDCHAR
STARTCHAR 010B
ENCODING 267
SWIDTH 498 0
DWIDTH 18 0
BBX 16 26 1 0
BITMAP
01C0
01C0
01C0
01C0
0000
0000
0000
03F0
0FF8
1FFE
3C1E
780F
7007
7007
E000
E000
E000
E000
E000
F007
7007
780F
3C1E
3FFE
0FF8
07F0
ENDCHAR
STARTCHAR 010C
ENCODING 268
SWIDTH 720 0
DWIDTH 26 0
BBX 22 33 2 0
BITMAP
018300
00C700
00EE00
007E00
003C00
000000
000000
00FF00
03FFC0
0FFFE0
1F01F0
3C0078
380078
780038
70003C
F00000
F00000
E00000
E00000
E00000
E00000
E00000
E00000
F0001C
F0001C
70003C
78003C
3C0078
3E0078
1F81F0
0FFFE0
07FFC0
00FE00
ENDCHAR
STARTCHAR 010D
ENCODING 269
SWIDTH 498 0
DWIDTH 18 0
BBX 16 26 1 0
BITMAP
0C18
0E38
0770
03E0
03E0
0000
0000
03F0
0FF8
1FFE
3C1E
780F
7007
7007
E000
E000
E000
E000
E000
F007
7007
780F
3C1E
3FFE
0FF8
07F0
ENDCHAR
STARTCHAR 010E
ENCODING 270
SWIDTH 720 0
DWIDTH 26 0
BBX 21 34 3 0
BITMAP
0C0C00
061C00
073800
03F000
01F000
01E000
000000
000000
FFFC00
FFFF00
FFFF80
F007C0
F001E0
F000F0
F000F0
F00070
F00078
F00078
F00038
F00038
F00038
F00038
F00038
F00038
F00078
F00078
F00070
F000F0
F000F0
F001E0
F007C0
FFFF80
FFFF00
FFFC00
ENDCHAR
STARTCHAR 010F
ENCODING 271
SWIDTH 636 0
DWIDTH 23 0
BBX 22 26 1 0
BITMAP
00039C
00039C
00039C
00039C
000384
000384
00038C
07E398
1FFB80
3FFF80
3C1F80
780F80
700780
F00780
E00380
E00380
E00380
E00380
E00380
F00780
700780
780F80
3C1F80
3FFF80
1FFB80
07E380
ENDCHAR
STARTCHAR 0110
ENCODING 272
SWIDTH 720 0
DWIDTH 26 0
BBX 23 26 1 0
BITMAP
3FFF00
3FFFC0
3FFFE0
3C01F0
3C0078
3C003C
3C003C
3C001C
3C001E
3C001E
3C000E
3C000E
FFF00E
FFF00E
3C000E
3C000E
3C001E
3C001E
3C001C
3C003C
3C003C
3C0078
3C01F0
3FFFE0
3FFFC0
3FFF00
ENDCHAR
STARTCHAR 0111
ENCODING 273
SWIDTH 553 0
DWIDTH 20 0
BBX 19 26 1 0
BITMAP
000380
000380
000380
00FFE0
00FFE0
000380
000380
07E380
1FFB80
3FFF80
3C1F80
780F80
700780
F00780
E00380
E00380
E00380
E00380
E00380
F00780
700780
780F80
3C1F80
3FFF80
1FFB80
07E380
ENDCHAR
STARTCHAR 0112
ENCODING 274
SWIDTH 664 0
DWIDTH 24 0
BBX 19 32 3 0
BITMAP
0FFC00
0FFC00
0FFC00
000000
000000
000000
FFFFC0
FFFFC0
FFFFC0
F00000
F00000
F00000
F00000
F00000
F00000
F00000
F00000
FFFFC0
FFFFC0
FFFFC0
F00000
F00000
F00000
F00000
F00000
F00000
F00000
F00000
F00000
FFFFE0
FFFFE0
FFFFE0
ENDCHAR
STARTCHAR 0113
ENCODING 275
SWIDTH 553 0
DWIDTH 20 0
BBX 18 25 1 0
BITMAP
0FFC00
0FFC00
0FFC00
000000
000000
000000
03F000
0FFC00
1FFE00
3C0F00
380780
700380
700380
700380
7FFF80
FFFFC0
F00000
700000
700000
700380
780780
3C0F00
1FFE00
0FFC00
03F000
ENDCHAR
STARTCHAR 0114
ENCODING 276
SWIDTH 664 0
DWIDTH 24 0
BBX 19 33 3 0
BITMAP
0C0600
0E0C00
07FC00
03F800
000000
000000
000000
FFFFC0
FFFFC0
FFFFC0
F00000
F00000
F00000
F00000
F00000
F00000
F00000
F00000
FFFFC0
FFFFC0
FFFFC0
F00000
F00000
F00000
F00000
F00000
F00000
F00000
F00000
F00000
FFFFE0
FFFFE0
FFFFE0
ENDCHAR
STARTCHAR 0115
ENCODING 277
SWIDTH 553 0
DWIDTH 20 0
BBX 18 26 1 0
BITMAP
0C0600
0E0E00
0FFC00
07F800
01F000
000000
000000
03F000
0FFC00
1FFE00
3C0F00
380780
700380
700380
700380
7FFF80
FFFFC0
F00000
700000
700000
700380
780780
3C0F00
1FFE00
0FFC00
03F000
ENDCHAR
STARTCHAR 0116
ENCODING 278
SWIDTH 664 0
DWIDTH 24 0
BBX 19 33 3 0
BITMAP
00E000
00E000
00E000
00E000
000000
000000
000000
FFFFC0
FFFFC0
FFFFC0
F00000
F00000
F00000
F00000
F00000
F00000
F00000
F00000
FFFFC0
FFFFC0
FFFFC0
F00000
F00000
F00000
F00000
F00000
F00000
F00000
F00000
F00000
FFFFE0
FFFFE0
FFFFE0
ENDCHAR
STARTCHAR 0117
ENCODING 279
SWIDTH 553 0
DWIDTH 20 0
BBX 18 26 1 0
BITMAP
01E000
01E000
01E000
01E000
000000
000000
000000
03F000
0FFC00
1FFE00
3C0F00
380780
700380
700380
700380
7FFF80
FFFFC0
F00000
700000
700000
700380
780780
3C0F00
1FFE00
0FFC00
03F000
ENDCHAR
STARTCHAR 0118
ENCODING 280
SWIDTH 664 0
DWIDTH 24 0
BBX 21 34 3 -8
BITMAP
FFFFC0
FFFFC0
FFFFC0
F00000
F00000
F00000
F00000
F00000
F00000
F00000
F00000
FFFFC0
FFFFC0
FFFFC0
F00000
F00000
F00000
F00000
F00000
F00000
F00000
F00000
F00000
FFFFE0
FFFFE0
FFFFE0
0000C0
000380
000700
000700
000700
000700
0003F8
000060
ENDCHAR
STARTCHAR 0119
ENCODING 281
SWIDTH 553 0
DWIDTH 20 0
BBX 18 26 1 -7
BITMAP
03F000
0FFC00
1FFE00
3C0F00
380780
700380
700380
700380
7FFFC0
FFFFC0
F00000
700000
700000
700380
780780
3C0F00
1FFE00
0FFC00
03F800
001800
003000
007000
007000
007000
003F80
000600
ENDCHAR
STARTCHAR 011A
ENCODING 282
SWIDTH 664 0
DWIDTH 24 0
BBX 19 34 3 0
BITMAP
0E0E00
071C00
031800
03B800
01F000
00E000
000000
000000
FFFFC0
FFFFC0
FFFFC0
F00000
F00000
F00000
F00000
F00000
F00000
F00000
F00000
FFFFC0
FFFFC0
FFFFC0
F00000
F00000
F00000
F00000
F00000
F00000
F00000
F00000
F00000
FFFFE0
FFFFE0
FFFFE0
ENDCHAR
STARTCHAR 011B
ENCODING 283
SWIDTH 553 0
DWIDTH 20 0
BBX 18 26 1 0
BITMAP
0E0C00
071C00
03B800
03F000
01F000
000000
000000
03F000
0FFC00
1FFE00
3C0F00
380780
700380
700380
700380
7FFF80
FFFFC0
F00000
700000
700000
700380
780780
3C0F00
1FFE00
0FFC00
03F000
ENDCHAR
STARTCHAR 011C
ENCODING 284
SWIDTH 775 0
DWIDTH 28 0
BBX 24 33 2 0
BITMAP
003C00
007E00
00E600
00E700
01C380
000000
000000
00FF00
03FFE0
0FFFF0
1F81F8
3E007C
3C001C
78001E
70000E
F00000
E00000
E00000
E00000
E007FF
E007FF
E007FF
E00007
E00007
F0000F
70000F
78000F
3C001F
3E003F
1F80F7
0FFFE7
03FF87
00FE00
ENDCHAR
STARTCHAR 011D
ENCODING 285
SWIDTH 553 0
DWIDTH 20 0
BBX 16 33 1 -7
BITMAP
01E0
03F0
0770
0638
0C1C
0000
0000
07E3
0FF3
1FFB
3C1F
780F
7007
7007
F007
E007
E007
E007
F007
7007
7007
780F
3C1F
1FFF
0FF7
07C7
0007
7007
700F
780E
3FFC
1FF8
07E0
ENDCHAR
STARTCHAR 011E
ENCODING 286
SWIDTH 775 0
DWIDTH 28 0
BBX 24 33 2 0
BITMAP
0180C0
01C1C0
01F780
00FF80
003E00
000000
000000
00FF00
03FFE0
0FFFF0
1F81F8
3E007C
3C001C
78001E
70000E
F00000
E00000
E00000
E00000
E007FF
E007FF
E007FF
E00007
E00007
F0000F
70000F
78000F
3C001F
3E003F
1F80F7
0FFFE7
03FF87
00FE00
ENDCHAR
STARTCHAR 011F
ENCODING 287
SWIDTH 553 0
DWIDTH 20 0
BBX 16 33 1 -7
BITMAP
1C0C
1C1C
0FFC
07F8
03E0
0000
0000
07E3
0FF3
1FFB
3C1F
780F
7007
7007
F007
E007
E007
E007
F007
7007
7007
780F
3C1F
1FFF
0FF7
07C7
0007
7007
700F
780E
3FFC
1FF8
07E0
ENDCHAR
STARTCHAR 0120
ENCODING 288
SWIDTH 775 0
DWIDTH 28 0
BBX 24 32 2 0
BITMAP
003C00
003C00
003C00
003C00
000000
000000
00FF00
03FFE0
0FFFF0
1F81F8
3E007C
3C001C
78001E
70000E
F00000
E00000
E00000
E00000
E007FF
E007FF
E007FF
E00007
E00007
F0000F
70000F
78000F
3C001F
3E003F
1F80F7
0FFFE7
03FF87
00FE00
ENDCHAR
STARTCHAR 0121
ENCODING 289
SWIDTH 553 0
DWIDTH 20 0
BBX 16 33 1 -7
BITMAP
01C0
01C0
01C0
01C0
0000
0000
0000
07E3
0FF3
1FFB
3C1F
780F
7007
7007
F007
E007
E007
E007
F007
7007
7007
780F
3C1F
1FFF
0FF7
07C7
0007
7007
700F
780E
3FFC
1FF8
07E0
ENDCHAR
STARTCHAR 0122
ENCODING 290
SWIDTH 775 0
DWIDTH 28 0
BBX 24 35 2 -10
BITMAP
00FF00
03FFE0
0FFFF0
1F81F8
3E007C
3C001C
78001E
70000E
F00000
E00000
E00000
E00000
E007FF
E007FF
E007FF
E00007
E00007
F0000F
70000F
78000F
3C001F
3E003F
1F80F7
0FFFE7
03FF87
00FE00
000000
003C00
003C00
003C00
003C00
000C00
000C00
000800
003800
ENDCHAR
STARTCHAR 0123
ENCODING 291
SWIDTH 553 0
DWIDTH 20 0
BBX 16 36 1 -7
BITMAP
00C0
01C0
0180
0100
01C0
01C0
01C0
01C0
0000
0000
07E3
0FF3
1FFB
3C1F
780F
7007
7007
F007
E007
E007
E007
F007
7007
7007
780F
3C1F
1FFF
0FF7
07C7
0007
7007
700F
780E
3FFC
1FF8
07E0
ENDCHAR
STARTCHAR 0124
ENCODING 292
SWIDTH 720 0
DWIDTH 26 0
BBX 20 34 3 0
BITMAP
007000
00F800
01D800
019C00
038E00
070600
000000
000000
E00070
E00070
E00070
E00070
E00070
E00070
E00070
E00070
E00070
E00070
E00070
FFFFF0
FFFFF0
FFFFF0
E00070
E00070
E00070
E00070
E00070
E00070
E00070
E00070
E00070
E00070
E00070
E00070
ENDCHAR
STARTCHAR 0125
ENCODING 293
SWIDTH 553 0
DWIDTH 20 0
BBX 19 34 -1 0
BITMAP
1E0000
1F0000
3F0000
738000
618000
C0C000
000000
000000
0E0000
0E0000
0E0000
0E0000
0E0000
0E0000
0E0000
0E3E00
0EFF80
0FFFC0
0F83C0
0F01E0
0E01E0
0E00E0
0E00E0
0E00E0
0E00E0
0E00E0
0E00E0
0E00E0
0E00E0
0E00E0
0E00E0
0E00E0
0E00E0
0E00E0
ENDCHAR
STARTCHAR 0126
ENCODING 294
SWIDTH 720 0
DWIDTH 26 0
BBX 26 26 0 0
BITMAP
1C000E00
1C000E00
1C000E00
1C000E00
1C000E00
FFFFFFC0
FFFFFFC0
FFFFFFC0
1C000E00
1C000E00
1C000E00
1FFFFE00
1FFFFE00
1FFFFE00
1C000E00
1C000E00
1C000E00
1C000E00
1C000E00
1C000E00
1C000E00
1C000E00
1C000E00
1C000E00
1C000E00
1C000E00
ENDCHAR
STARTCHAR 0127
ENCODING 295
SWIDTH 553 0
DWIDTH 20 0
BBX 18 26 0 0
BITMAP
1C0000
1C0000
1C0000
FFF800
FFF800
1C0000
1C0000
1C7C00
1DFF00
1FFF80
1F0780
1E03C0
1C03C0
1C01C0
1C01C0
1C01C0
1C01C0
1C01C0
1C01C0
1C01C0
1C01C0
1C01C0
1C01C0
1C01C0
1C01C0
1C01C0
ENDCHAR
STARTCHAR 0128
ENCODING 296
SWIDTH 276 0
DWIDTH 10 0
BBX 11 33 -1 0
BITMAP
3860
7FE0
6FE0
C3C0
0000
0000
0000
0700
0700
0700
0700
0700
0700
0700
0700
0700
0700
0700
0700
0700
0700
0700
0700
0700
0700
0700
0700
0700
0700
0700
0700
0700
0700
ENDCHAR
STARTCHAR 0129
ENCODING 297
SWIDTH 276 0
DWIDTH 10 0
BBX 11 26 -1 0
BITMAP
3860
7FE0
6FE0
C3C0
0000
0000
0000
0E00
0E00
0E00
0E00
0E00
0E00
0E00
0E00
0E00
0E00
0E00
0E00
0E00
0E00
0E00
0E00
0E00
0E00
0E00
ENDCHAR
STARTCHAR 012A
ENCODING 298
SWIDTH 276 0
DWIDTH 10 0
BBX 9 32 1 0
BITMAP
FF80
FF80
FF80
0000
0000
0000
1C00
1C00
1C00
1C00
1C00
1C00
1C00
1C00
1C00
1C00
1C00
1C00
1C00
1C00
1C00
1C00
1C00
1C00
1C00
1C00
1C00
1C00
1C00
1C00
1C00
1C00
ENDCHAR
STARTCHAR 012B
ENCODING 299
SWIDTH 276 0
DWIDTH 10 0
BBX 8 26 1 0
BITMAP
FF
FF
FF
00
00
00
00
38
38
38
38
38
38
38
38
38
38
38
38
38
38
38
38
38
38
38
ENDCHAR
STARTCHAR 012C
ENCODING 300
SWIDTH 276 0
DWIDTH 10 0
BBX 10 33 0 0
BITMAP
C0C0
E1C0
FFC0
7F80
0000
0000
0000
1E00
1E00
1E00
1E00
1E00
1E00
1E00
1E00
1E00
1E00
1E00
1E00
1E00
1E00
1E00
1E00
1E00
1E00
1E00
1E00
1E00
1E00
1E00
1E00
1E00
1E00
ENDCHAR
STARTCHAR 012D
ENCODING 301
SWIDTH 276 0
DWIDTH 10 0
BBX 10 26 0 0
BITMAP
C0C0
E1C0
FFC0
7F80
0000
0000
0000
1C00
1C00
1C00
1C00
1C00
1C00
1C00
1C00
1C00
1C00
1C00
1C00
1C00
1C00
1C00
1C00
1C00
1C00
1C00
ENDCHAR
STARTCHAR 012E
ENCODING 302
SWIDTH 276 0
DWIDTH 10 0
BBX 6 34 2 -8
BITMAP
38
38
38
38
38
38
38
38
38
38
38
38
38
38
38
38
38
38
38
38
38
38
38
38
38
38
18
30
60
E0
E0
70
7C
18
ENDCHAR
STARTCHAR 012F
ENCODING 303
SWIDTH 221 0
DWIDTH 8 0
BBX 6 34 1 -8
BITMAP
70
70
70
70
00
00
00
70
70
70
70
70
70
70
70
70
70
70
70
70
70
70
70
70
70
70
30
60
E0
E0
E0
E0
7C
18
ENDCHAR
STARTCHAR 0130
ENCODING 304
SWIDTH 276 0
DWIDTH 10 0
BBX 4 33 3 0
BITMAP
F0
F0
F0
F0
00
00
00
70
70
70
70
70
70
70
70
70
70
70
70
70
70
70
70
70
70
70
70
70
70
70
70
70
70
ENDCHAR
STARTCHAR 0131
ENCODING 305
SWIDTH 276 0
DWIDTH 10 0
BBX 3 19 3 0
BITMAP
E0
E0
E0
E0
E0
E0
E0
E0
E0
E0
E0
E0
E0
E0
E0
E0
E0
E0
E0
ENDCHAR
STARTCHAR 0132
ENCODING 306
SWIDTH 747 0
DWIDTH 27 0
BBX 20 26 4 0
BITMAP
E000F0
E000F0
E000F0
E000F0
E000F0
E000F0
E000F0
E000F0
E000F0
E000F0
E000F0
E000F0
E000F0
E000F0
E000F0
E000F0
E000F0
E700F0
E700F0
E700F0
E780F0
E780E0
E3C1E0
E3FFC0
E1FF80
E07E00
ENDCHAR
STARTCHAR 0133
ENCODING 307
SWIDTH 443 0
DWIDTH 16 0
BBX 10 34 3 -8
BITMAP
E1C0
E1C0
E1C0
E1C0
0000
0000
0000
E1C0
E1C0
E1C0
E1C0
E1C0
E1C0
E1C0
E1C0
E1C0
E1C0
E1C0
E1C0
E1C0
E1C0
E1C0
E1C0
E1C0
E1C0
E1C0
01C0
01C0
01C0
01C0
01C0
0FC0
0F80
0F00
ENDCHAR
STARTCHAR 0134
ENCODING 308
SWIDTH 498 0
DWIDTH 18 0
BBX 17 34 1 0
BITMAP
003C00
003E00
007E00
006700
00C380
01C180
000000
000000
001C00
001C00
001C00
001C00
001C00
001C00
001C00
001C00
001C00
001C00
001C00
001C00
001C00
001C00
001C00
001C00
001C00
E01C00
E01C00
E01C00
E01C00
F03C00
F87C00
7FF800
3FF000
0FC000
ENDCHAR
STARTCHAR 0135
ENCODING 309
SWIDTH 221 0
DWIDTH 8 0
BBX 10 34 -1 -8
BITMAP
1E00
3F00
7300
6380
C1C0
0000
0000
0E00
0E00
0E00
0E00
0E00
0E00
0E00
0E00
0E00
0E00
0E00
0E00
0E00
0E00
0E00
0E00
0E00
0E00
0E00
0E00
0E00
0E00
0E00
1E00
FC00
FC00
F000
ENDCHAR
STARTCHAR 0136
ENCODING 310
SWIDTH 664 0
DWIDTH 24 0
BBX 20 36 3 -10
BITMAP
E000F0
E001E0
E003C0
E00780
E00F00
E01E00
E03C00
E07800
E0F000
E1E000
E3C000
E7E000
EFE000
FEF000
FC7800
F87800
F03C00
E01E00
E00F00
E00F00
E00780
E003C0
E003C0
E001E0
E000F0
E000F0
000000
000000
00E000
00E000
00E000
00E000
002000
002000
006000
00C000
ENDCHAR
STARTCHAR 0137
ENCODING 311
SWIDTH 498 0
DWIDTH 18 0
BBX 16 36 2 -10
BITMAP
E000
E000
E000
E000
E000
E000
E000
E01C
E038
E070
E0E0
E1C0
E380
E700
EF80
FFC0
FBC0
F1E0
E0E0
E0F0
E078
E038
E03C
E01E
E01E
E00F
0000
0000
0380
0380
0380
0380
0080
0080
0180
0300
ENDCHAR
STARTCHAR 0138
ENCODING 312
SWIDTH 498 0
DWIDTH 18 0
BBX 15 18 1 0
BITMAP
E01E
E038
E070
E0E0
E1C0
E380
E700
EF00
FF80
FB80
F1C0
E0E0
E060
E070
E038
E018
E01C
E00E
ENDCHAR
STARTCHAR 0139
ENCODING 313
SWIDTH 553 0
DWIDTH 20 0
BBX 16 34 3 0
BITMAP
1E00
3C00
3800
7000
E000
C000
0000
0000
E000
E000
E000
E000
E000
E000
E000
E000
E000
E000
E000
E000
E000
E000
E000
E000
E000
E000
E000
E000
E000
E000
E000
FFFF
FFFF
FFFF
ENDCHAR
STARTCHAR 013A
ENCODING 314
SWIDTH 221 0
DWIDTH 8 0
BBX 8 34 2 0
BITMAP
0F
1E
3C
38
70
E0
00
00
E0
E0
E0
E0
E0
E0
E0
E0
E0
E0
E0
E0
E0
E0
E0
E0
E0
E0
E0
E0
E0
E0
E0
E0
E0
E0
ENDCHAR
STARTCHAR 013B
ENCODING 315
SWIDTH 553 0
DWIDTH 20 0
BBX 16 36 3 -10
BITMAP
E000
E000
E000
E000
E000
E000
E000
E000
E000
E000
E000
E000
E000
E000
E000
E000
E000
E000
E000
E000
E000
E000
E000
FFFF
FFFF
FFFF
0000
0000
03C0
03C0
03C0
03C0
00C0
00C0
0180
0300
ENDCHAR
STARTCHAR 013C
ENCODING 316
SWIDTH 221 0
DWIDTH 8 0
BBX 4 36 2 -10
BITMAP
E0
E0
E0
E0
E0
E0
E0
E0
E0
E0
E0
E0
E0
E0
E0
E0
E0
E0
E0
E0
E0
E0
E0
E0
E0
E0
00
00
F0
F0
F0
F0
30
30
60
C0
ENDCHAR
STARTCHAR 013D
ENCODING 317
SWIDTH 553 0
DWIDTH 20 0
BBX 16 26 3 0
BITMAP
E1C0
E1C0
E1C0
E1C0
E040
E040
E0C0
E180
E000
E000
E000
E000
E000
E000
E000
E000
E000
E000
E000
E000
E000
E000
E000
FFFF
FFFF
FFFF
ENDCHAR
STARTCHAR 013E
ENCODING 318
SWIDTH 304 0
DWIDTH 11 0
BBX 9 26 2 0
BITMAP
E780
E780
E780
E780
E180
E180
E300
E600
E000
E000
E000
E000
E000
E000
E000
E000
E000
E000
E000
E000
E000
E000
E000
E000
E000
E000
ENDCHAR
STARTCHAR 013F
ENCODING 319
SWIDTH 553 0
DWIDTH 20 0
BBX 16 26 3 0
BITMAP
E000
E000
E000
E000
E000
E000
E000
E000
E000
E000
E000
E078
E078
E078
E078
E000
E000
E000
E000
E000
E000
E000
E000
FFFF
FFFF
FFFF
ENDCHAR
STARTCHAR 0140
ENCODING 320
SWIDTH 332 0
DWIDTH 12 0
BBX 9 26 3 0
BITMAP
E000
E000
E000
E000
E000
E000
E000
E000
E000
E000
E000
E780
E780
E780
E780
E000
E000
E000
E000
E000
E000
E000
E000
E000
E000
E000
ENDCHAR
STARTCHAR 0141
ENCODING 321
SWIDTH 553 0
DWIDTH 20 0
BBX 20 26 0 0
BITMAP
1C0000
1C0000
1C0000
1C0000
1C0000
1C0000
1C0000
1C0000
1C1000
1C7000
1CF000
1FC000
1F8000
1E0000
7C0000
FC0000
DC0000
9C0000
1C0000
1C0000
1C0000
1C0000
1C0000
1FFFF0
1FFFF0
1FFFF0
ENDCHAR
STARTCHAR 0142
ENCODING 322
SWIDTH 221 0
DWIDTH 8 0
BBX 8 26 0 0
BITMAP
38
38
38
38
38
38
38
38
38
39
3B
3F
3C
78
F8
B8
38
38
38
38
38
38
38
38
38
38
ENDCHAR
STARTCHAR 0143
ENCODING 323
SWIDTH 720 0
DWIDTH 26 0
BBX 20 34 3 0
BITMAP
001E00
003C00
003800
007000
00E000
00C000
000000
000000
F00070
F00070
F80070
FC0070
FC0070
FE0070
EF0070
E70070
E78070
E3C070
E3C070
E1E070
E0E070
E0F070
E07870
E03870
E03C70
E01E70
E00E70
E00F70
E007F0
E003F0
E003F0
E001F0
E000F0
E000F0
ENDCHAR
STARTCHAR 0144
ENCODING 324
SWIDTH 553 0
DWIDTH 20 0
BBX 15 26 3 0
BITMAP
00F0
01E0
0380
0300
0600
0000
0000
C7E0
CFF8
DFFC
F83C
F01E
E00E
E00E
E00E
E00E
E00E
E00E
E00E
E00E
E00E
E00E
E00E
E00E
E00E
E00E
ENDCHAR
STARTCHAR 0145
ENCODING 325
SWIDTH 720 0
DWIDTH 26 0
BBX 20 36 3 -10
BITMAP
F00070
F00070
F80070
FC0070
FC0070
FE0070
EF0070
E70070
E78070
E3C070
E3C070
E1E070
E0E070
E0F070
E07870
E03870
E03C70
E01E70
E00E70
E00F70
E007F0
E003F0
E003F0
E001F0
E000F0
E000F0
000000
000000
00E000
00E000
00E000
00E000
002000
002000
006000
00C000
ENDCHAR
STARTCHAR 0146
ENCODING 326
SWIDTH 553 0
DWIDTH 20 0
BBX 15 29 3 -9
BITMAP
C7E0
CFF8
DFFC
F83C
F01E
E00E
E00E
E00E
E00E
E00E
E00E
E00E
E00E
E00E
E00E
E00E
E00E
E00E
E00E
0000
0000
0780
0780
0780
0780
0180
0180
0300
0600
ENDCHAR
STARTCHAR 0147
ENCODING 327
SWIDTH 720 0
DWIDTH 26 0
BBX 20 34 3 0
BITMAP
060600
030E00
039C00
01F800
01F800
00F000
000000
000000
F00070
F00070
F80070
FC0070
FC0070
FE0070
EF0070
E70070
E78070
E3C070
E3C070
E1E070
E0E070
E0F070
E07870
E03870
E03C70
E01E70
E00E70
E00F70
E007F0
E003F0
E003F0
E001F0
E000F0
E000F0
ENDCHAR
STARTCHAR 0148
ENCODING 328
SWIDTH 553 0
DWIDTH 20 0
BBX 15 26 3 0
BITMAP
3870
1C60
0CC0
0FC0
0780
0000
0000
C7E0
CFF8
DFFC
F83C
F01E
E00E
E00E
E00E
E00E
E00E
E00E
E00E
E00E
E00E
E00E
E00E
E00E
E00E
E00E
ENDCHAR
STARTCHAR 0149
ENCODING 329
SWIDTH 609 0
DWIDTH 22 0
BBX 19 27 0 0
BITMAP
F00000
F00000
F00000
F00000
300000
300000
E00000
C00000
0E3F00
0EFFC0
0EFFE0
0FC1E0
0F80E0
0F00E0
0F00E0
0E00E0
0E00E0
0E00E0
0E00E0
0E00E0
0E00E0
0E00E0
0E00E0
0E00E0
0E00E0
0E00E0
0E00E0
ENDCHAR
STARTCHAR 014A
ENCODING 330
SWIDTH 720 0
DWIDTH 26 0
BBX 20 37 3 -11
BITMAP
007E00
E1FF80
E3FFC0
E703E0
EC01E0
F800F0
F800F0
F000F0
F00070
F00070
F00070
F00070
F00070
F00070
F00070
F00070
F00070
F00070
F00070
F00070
F00070
F00070
F00070
F00070
F00070
F00070
000070
000070
000070
000070
000070
000070
0000F0
0001F0
000FE0
000FC0
000F80
ENDCHAR
STARTCHAR 014B
ENCODING 331
SWIDTH 553 0
DWIDTH 20 0
BBX 15 27 3 -8
BITMAP
C3E0
CFF8
DFFC
F83C
F01E
E00E
E00E
E00E
E00E
E00E
E00E
E00E
E00E
E00E
E00E
E00E
E00E
E00E
E00E
000E
000E
000E
000E
001E
00FC
00FC
00F0
ENDCHAR
STARTCHAR 014C
ENCODING 332
SWIDTH 775 0
DWIDTH 28 0
BBX 26 32 1 0
BITMAP
00FFC000
00FFC000
00FFC000
00000000
00000000
00000000
007F8000
01FFF000
07FFF800
0FC0FC00
1F003E00
3E000F00
3C000F00
78000780
78000380
70000380
700003C0
F00003C0
F00003C0
F00003C0
F00003C0
700003C0
70000380
78000380
78000780
3C000700
3E000F00
1F003E00
0FC0FC00
07FFF800
01FFE000
007F8000
ENDCHAR
STARTCHAR 014D
ENCODING 333
SWIDTH 553 0
DWIDTH 20 0
BBX 17 25 1 0
BITMAP
0FFC00
0FFC00
0FFC00
000000
000000
000000
03F000
0FFC00
1FFE00
3C0F00
780700
700780
700380
F00380
F00380
E00380
F00380
F00380
700380
700780
780700
3C0F00
1FFE00
0FFC00
03F000
ENDCHAR
STARTCHAR 014E
ENCODING 334
SWIDTH 775 0
DWIDTH 28 0
BBX 26 33 1 0
BITMAP
00C0C000
00C0C000
00FFC000
007F8000
003F0000
00000000
00000000
007F8000
01FFF000
07FFF800
0FC0FC00
1F003E00
3E000F00
3C000F00
78000780
78000380
70000380
700003C0
F00003C0
F00003C0
F00003C0
F00003C0
700003C0
70000380
78000380
78000780
3C000700
3E000F00
1F003E00
0FC0FC00
07FFF800
01FFE000
007F8000
ENDCHAR
STARTCHAR 014F
ENCODING 335
SWIDTH 553 0
DWIDTH 20 0
BBX 17 26 1 0
BITMAP
1C0C00
0C0C00
0FFC00
07F800
03E000
000000
000000
03F000
0FFC00
1FFE00
3C0F00
780700
700780
700380
F00380
F00380
E00380
F00380
F00380
700380
700780
780700
3C0F00
1FFE00
0FFC00
03F000
ENDCHAR
STARTCHAR 0150
ENCODING 336
SWIDTH 775 0
DWIDTH 28 0
BBX 26 33 1 0
BITMAP
000F3C00
001E7800
003C7000
0038E000
0071C000
00000000
00000000
007F8000
01FFF000
07FFF800
0FC0FC00
1F003E00
3E000F00
3C000F00
78000780
78000380
70000380
700003C0
F00003C0
F00003C0
F00003C0
F00003C0
700003C0
70000380
78000380
78000780
3C000700
3E000F00
1F003E00
0FC0FC00
07FFF800
01FFE000
007F8000
ENDCHAR
STARTCHAR 0151
ENCODING 337
SWIDTH 553 0
DWIDTH 20 0
BBX 17 26 1 0
BITMAP
01E380
01C700
038E00
070C00
061800
000000
000000
03F000
0FFC00
1FFE00
3C0F00
780700
700780
700380
F00380
F00380
E00380
F00380
F00380
700380
700780
780700
3C0F00
1FFE00
0FFC00
03F000
ENDCHAR
STARTCHAR 0152
ENCODING 338
SWIDTH 996 0
DWIDTH 36 0
BBX 33 26 2 0
BITMAP
01FC7FFF00
07FF7FFF00
0FFFFFFF00
1E07F00000
3C01F00000
7800F00000
7000700000
F000700000
E000700000
E000700000
E000700000
E0007FFF00
E0007FFF00
E0007FFF00
E000700000
E000700000
E000700000
E000700000
F000700000
7000700000
7800F00000
3C01F00000
3F07F00000
1FFF7FFF80
07FE7FFF80
01F87FFF80
ENDCHAR
STARTCHAR 0153
ENCODING 339
SWIDTH 941 0
DWIDTH 34 0
BBX 31 19 1 0
BITMAP
03F00FC0
0FFC3FF0
1FFE7FF8
3C0FF03C
7807E01E
7003C00E
7003C00E
7003C00E
F003FFFE
F003FFFE
F003C000
7003C000
7003C000
7003C00E
7807E01E
3C0FF03C
1FFE7FF8
0FFC3FF0
03F00FC0
ENDCHAR
STARTCHAR 0154
ENCODING 340
SWIDTH 720 0
DWIDTH 26 0
BBX 22 34 3 0
BITMAP
001E00
003C00
007800
007000
00E000
00C000
000000
000000
FFFF00
FFFFC0
FFFFE0
F001F0
F000F0
F00070
F00078
F00078
F00070
F00070
F000F0
F001E0
FFFFC0
FFFF80
FFFFC0
F001E0
F000F0
F000F0
F00070
F00070
F00070
F00070
F00070
F00070
F00078
F0007C
ENDCHAR
STARTCHAR 0155
ENCODING 341
SWIDTH 332 0
DWIDTH 12 0
BBX 10 26 2 0
BITMAP
0780
0700
0E00
1C00
1800
0000
0000
E1C0
E7C0
EFC0
EC00
F800
F000
F000
F000
F000
F000
F000
F000
F000
F000
F000
F000
F000
F000
F000
ENDCHAR
STARTCHAR 0156
ENCODING 342
SWIDTH 720 0
DWIDTH 26 0
BBX 22 36 3 -10
BITMAP
FFFF00
FFFFC0
FFFFE0
F001F0
F000F0
F00070
F00078
F00078
F00070
F00070
F000F0
F001E0
FFFFC0
FFFF80
FFFFC0
F001E0
F000F0
F000F0
F00070
F00070
F00070
F00070
F00070
F00070
F00078
F0007C
000000
000000
007000
007000
007000
007000
003000
003000
006000
006000
ENDCHAR
STARTCHAR 0157
ENCODING 343
SWIDTH 332 0
DWIDTH 12 0
BBX 10 29 2 -10
BITMAP
E1C0
E7C0
EFC0
EC00
F800
F000
F000
F000
F000
F000
F000
F000
F000
F000
F000
F000
F000
F000
F000
0000
0000
F000
F000
F000
F000
3000
3000
6000
C000
ENDCHAR
STARTCHAR 0158
ENCODING 344
SWIDTH 720 0
DWIDTH 26 0
BBX 22 34 3 0
BITMAP
060600
070C00
039C00
01F800
01F000
00F000
000000
000000
FFFF00
FFFFC0
FFFFE0
F001F0
F000F0
F00070
F00078
F00078
F00070
F00070
F000F0
F001E0
FFFFC0
FFFF80
FFFFC0
F001E0
F000F0
F000F0
F00070
F00070
F00070
F00070
F00070
F00070
F00078
F0007C
ENDCHAR
STARTCHAR 0159
ENCODING 345
SWIDTH 332 0
DWIDTH 12 0
BBX 10 26 2 0
BITMAP
C1C0
6380
7300
3F00
1E00
0000
0000
E1C0
E7C0
EFC0
EC00
F800
F000
F000
F000
F000
F000
F000
F000
F000
F000
F000
F000
F000
F000
F000
ENDCHAR
STARTCHAR 015A
ENCODING 346
SWIDTH 664 0
DWIDTH 24 0
BBX 20 33 2 0
BITMAP
001E00
003800
007000
006000
00C000
000000
000000
03FC00
0FFF00
1FFF80
3C07C0
7801E0
7000E0
7000E0
7000F0
700000
780000
7F0000
3FF000
0FFF00
01FFC0
000FE0
0001F0
0000F0
E00070
E00070
E00070
F00070
7800F0
7E03E0
3FFFC0
0FFF80
03FC00
ENDCHAR
STARTCHAR 015B
ENCODING 347
SWIDTH 498 0
DWIDTH 18 0
BBX 16 26 1 0
BITMAP
0070
00E0
01C0
0180
0300
0000
0000
07E0
1FF8
3FFC
781E
701E
700E
7000
7C00
3FC0
1FF8
01FE
001E
000F
F00F
F00E
781E
7FFC
3FF8
0FE0
ENDCHAR
STARTCHAR 015C
ENCODING 348
SWIDTH 664 0
DWIDTH 24 0
BBX 20 33 2 0
BITMAP
00F000
01F800
019800
031C00
070E00
000000
000000
03FC00
0FFF00
1FFF80
3C07C0
7801E0
7000E0
7000E0
7000F0
700000
780000
7F0000
3FF000
0FFF00
01FFC0
000FE0
0001F0
0000F0
E00070
E00070
E00070
F00070
7800F0
7E03E0
3FFFC0
0FFF80
03FC00
ENDCHAR
STARTCHAR 015D
ENCODING 349
SWIDTH 498 0
DWIDTH 18 0
BBX 16 26 1 0
BITMAP
03C0
07E0
0660
0E70
1C38
0000
0000
07E0
1FF8
3FFC
781E
701E
700E
7000
7C00
3FC0
1FF8
01FE
001E
000F
F00F
F00E
781E
7FFC
3FF8
0FE0
ENDCHAR
STARTCHAR 015E
ENCODING 350
SWIDTH 664 0
DWIDTH 24 0
BBX 21 33 2 -7
BITMAP
03FC00
0FFF00
1FFF80
3C03C0
7801E0
7000E0
7000F0
7000F0
700000
780000
7E0000
3FE000
1FFC00
03FF80
007FE0
0007E0
0001F0
000070
E00078
E00078
F00070
F00070
7800F0
3E03E0
1FFFC0
0FFF80
03FC00
004000
00F000
00F800
001C00
063800
07F000
ENDCHAR
STARTCHAR 015F
ENCODING 351
SWIDTH 498 0
DWIDTH 18 0
BBX 16 26 1 -7
BITMAP
07E0
1FF8
3FFC
781C
701E
700E
7000
7800
3F80
1FF0
07FC
007E
000E
E00F
F00F
700E
781E
7FFC
1FF8
07E0
0300
03C0
00E0
00E0
10E0
1FC0
ENDCHAR
STARTCHAR 0160
ENCODING 352
SWIDTH 664 0
DWIDTH 24 0
BBX 20 33 2 0
BITMAP
070E00
039C00
019800
01F800
00F000
000000
000000
03FC00
0FFF00
1FFF80
3C07C0
7801E0
7000E0
7000E0
7000F0
700000
780000
7F0000
3FF000
0FFF00
01FFC0
000FE0
0001F0
0000F0
E00070
E00070
E00070
F00070
7800F0
7E03E0
3FFFC0
0FFF80
03FC00
ENDCHAR
STARTCHAR 0161
ENCODING 353
SWIDTH 498 0
DWIDTH 18 0
BBX 16 26 1 0
BITMAP
1838
0C70
0E60
07E0
03C0
0000
0000
07E0
1FF8
3FFC
781E
701E
700E
7000
7C00
3FC0
1FF8
01FE
001E
000F
F00F
F00E
781E
7FFC
3FF8
0FE0
ENDCHAR
STARTCHAR 0162
ENCODING 354
SWIDTH 609 0
DWIDTH 22 0
BBX 20 33 1 -7
BITMAP
FFFFF0
FFFFF0
FFFFF0
00F000
00F000
00F000
00F000
00F000
00F000
00F000
00F000
00F000
00F000
00F000
00F000
00F000
00F000
00F000
00F000
00F000
00F000
00F000
00F000
00F000
00F000
00F000
002000
006000
007C00
001C00
000E00
031C00
03F800
ENDCHAR
STARTCHAR 0163
ENCODING 355
SWIDTH 276 0
DWIDTH 10 0
BBX 9 31 0 -7
BITMAP
1C00
1C00
1C00
1C00
1C00
FF80
FF80
1C00
1C00
1C00
1C00
1C00
1C00
1C00
1C00
1C00
1C00
1C00
1C00
1C00
1C00
1F80
1F80
0F80
0C00
0F00
1F80
0180
4380
F780
3E00
ENDCHAR
STARTCHAR 0164
ENCODING 356
SWIDTH 609 0
DWIDTH 22 0
BBX 20 34 1 0
BITMAP
060600
030E00
039C00
01F800
00F800
00F000
000000
000000
FFFFF0
FFFFF0
FFFFF0
00F000
00F000
00F000
00F000
00F000
00F000
00F000
00F000
00F000
00F000
00F000
00F000
00F000
00F000
00F000
00F000
00F000
00F000
00F000
00F000
00F000
00F000
00F000
ENDCHAR
STARTCHAR 0165
ENCODING 357
SWIDTH 304 0
DWIDTH 11 0
BBX 11 29 1 0
BITMAP
01E0
01E0
01E0
01E0
0060
3840
38C0
3980
3800
3800
FF00
FF00
3800
3800
3800
3800
3800
3800
3800
3800
3800
3800
3800
3800
3800
3800
3F00
3F00
1F00
ENDCHAR
STARTCHAR 0166
ENCODING 358
SWIDTH 609 0
DWIDTH 22 0
BBX 20 26 1 0
BITMAP
FFFFF0
FFFFF0
FFFFF0
00F000
00F000
00F000
00F000
00F000
00F000
1FFFC0
1FFFC0
00F000
00F000
00F000
00F000
00F000
00F000
00F000
00F000
00F000
00F000
00F000
00F000
00F000
00F000
00F000
ENDCHAR
STARTCHAR 0167
ENCODING 359
SWIDTH 276 0
DWIDTH 10 0
BBX 8 24 1 0
BITMAP
38
38
38
38
38
FF
FF
38
38
38
FF
FF
38
38
38
38
38
38
38
38
38
3F
3F
1F
ENDCHAR
STARTCHAR 0168
ENCODING 360
SWIDTH 720 0
DWIDTH 26 0
BBX 20 33 3 0
BITMAP
038600
07FE00
06FE00
0C3C00
000000
000000
000000
E00070
E00070
E00070
E00070
E00070
E00070
E00070
E00070
E00070
E00070
E00070
E00070
E00070
E00070
E00070
E00070
E00070
E00070
F00070
F00070
7000F0
7801E0
3E03E0
1FFFC0
0FFF00
03FC00
ENDCHAR
STARTCHAR 0169
ENCODING 361
SWIDTH 553 0
DWIDTH 20 0
BBX 15 26 2 -1
BITMAP
0E18
1FF8
1BF8
30F0
0000
0000
0000
E00E
E00E
E00E
E00E
E00E
E00E
E00E
E00E
E00E
E00E
E00E
E00E
E00E
E00E
F01E
783E
7FFE
3FF6
0FE6
ENDCHAR
STARTCHAR 016A
ENCODING 362
SWIDTH 720 0
DWIDTH 26 0
BBX 20 32 3 0
BITMAP
07FE00
07FE00
07FE00
000000
000000
000000
E00070
E00070
E00070
E00070
E00070
E00070
E00070
E00070
E00070
E00070
E00070
E00070
E00070
E00070
E00070
E00070
E00070
E00070
F00070
F00070
7000F0
7801E0
3E03E0
1FFFC0
0FFF00
03FC00
ENDCHAR
STARTCHAR 016B
ENCODING 363
SWIDTH 553 0
DWIDTH 20 0
BBX 15 26 2 -1
BITMAP
1FF8
1FF8
1FF8
0000
0000
0000
0000
E00E
E00E
E00E
E00E
E00E
E00E
E00E
E00E
E00E
E00E
E00E
E00E
E00E
E00E
F01E
783E
7FFE
3FF6
0FE6
ENDCHAR
STARTCHAR 016C
ENCODING 364
SWIDTH 720 0
DWIDTH 26 0
BBX 20 33 3 0
BITMAP
060600
070E00
07FE00
03FC00
000000
000000
000000
E00070
E00070
E00070
E00070
E00070
E00070
E00070
E00070
E00070
E00070
E00070
E00070
E00070
E00070
E00070
E00070
E00070
E00070
F00070
F00070
7000F0
7801E0
3E03E0
1FFFC0
0FFF00
03FC00
ENDCHAR
STARTCHAR 016D
ENCODING 365
SWIDTH 553 0
DWIDTH 20 0
BBX 15 26 2 -1
BITMAP
1818
1C38
1FF8
0FF0
0000
0000
0000
E00E
E00E
E00E
E00E
E00E
E00E
E00E
E00E
E00E
E00E
E00E
E00E
E00E
E00E
F01E
783E
7FFE
3FF6
0FE6
ENDCHAR
STARTCHAR 016E
ENCODING 366
SWIDTH 720 0
DWIDTH 26 0
BBX 20 34 3 0
BITMAP
007000
01F800
018800
018800
01F800
00F000
000000
000000
E00070
E00070
E00070
E00070
E00070
E00070
E00070
E00070
E00070
E00070
E00070
E00070
E00070
E00070
E00070
E00070
E00070
E00070
F00070
F00070
7000F0
7801E0
3E03E0
1FFFC0
0FFF00
03FC00
ENDCHAR
STARTCHAR 016F
ENCODING 367
SWIDTH 553 0
DWIDTH 20 0
BBX 15 27 2 0
BITMAP
03C0
0660
0460
0660
07E0
03C0
0000
0000
E00E
E00E
E00E
E00E
E00E
E00E
E00E
E00E
E00E
E00E
E00E
E00E
E00E
E00E
F01E
783E
7FFE
3FF6
0FE6
ENDCHAR
STARTCHAR 0170
ENCODING 368
SWIDTH 720 0
DWIDTH 26 0
BBX 20 34 3 0
BITMAP
0079E0
00F3C0
00E380
01C700
038600
030C00
000000
000000
E00070
E00070
E00070
E00070
E00070
E00070
E00070
E00070
E00070
E00070
E00070
E00070
E00070
E00070
E00070
E00070
E00070
E00070
F00070
F00070
7000F0
7801E0
3E03E0
1FFFC0
0FFF00
03FC00
ENDCHAR
STARTCHAR 0171
ENCODING 369
SWIDTH 553 0
DWIDTH 20 0
BBX 17 26 2 -1
BITMAP
03C780
038F00
071E00
0E1C00
0C3800
000000
000000
E00E00
E00E00
E00E00
E00E00
E00E00
E00E00
E00E00
E00E00
E00E00
E00E00
E00E00
E00E00
E00E00
E00E00
F01E00
783E00
7FFE00
3FF600
0FE600
ENDCHAR
STARTCHAR 0172
ENCODING 370
SWIDTH 720 0
DWIDTH 26 0
BBX 20 33 3 -7
BITMAP
E00070
E00070
E00070
E00070
E00070
E00070
E00070
E00070
E00070
E00070
E00070
E00070
E00070
E00070
E00070
E00070
E00070
E00070
F00070
F00070
7000F0
7801F0
3E03E0
1FFFE0
0FFFC0
03FF80
000700
000E00
001C00
001C00
001C00
000FE0
000180
ENDCHAR
STARTCHAR 0173
ENCODING 371
SWIDTH 553 0
DWIDTH 20 0
BBX 17 26 2 -7
BITMAP
E00E00
E00E00
E00E00
E00E00
E00E00
E00E00
E00E00
E00E00
E00E00
E00E00
E00E00
E00E00
E00E00
E00E00
F01E00
783E00
7FF600
3FE600
0F8600
000600
001800
003800
003800
003800
001F80
000300
ENDCHAR
STARTCHAR 0174
ENCODING 372
SWIDTH 941 0
DWIDTH 34 0
BBX 32 34 1 0
BITMAP
0003C000
0007C000
0007E000
000E7000
000C3000
00181800
00000000
00000000
F003C007
F003C00F
F003E00F
7007E00F
7807E00E
7807F00E
7807701E
380E701E
3C0E701C
3C0E781C
3C1C383C
1C1C383C
1C1C3C38
1E1C1C38
0E381C78
0E381C78
0E381E70
0F780E70
07700E70
07700EF0
077007E0
07E007E0
03E007E0
03E007C0
03E003C0
03C003C0
ENDCHAR
STARTCHAR 0175
ENCODING 373
SWIDTH 720 0
DWIDTH 26 0
BBX 25 26 0 0
BITMAP
001E0000
003F0000
00770000
00638000
00C1C000
00000000
00000000
F01E0380
701E0380
703E0380
703F0780
783F0700
38370700
38770700
3C738E00
1C738E00
1C638E00
1CE39C00
0EE1DC00
0EE1DC00
0EC1DC00
0FC1F800
07C0F800
07C0F800
0780F000
0380F000
ENDCHAR
STARTCHAR 0176
ENCODING 374
SWIDTH 664 0
DWIDTH 24 0
BBX 23 34 1 0
BITMAP
003800
007C00
00EC00
00CE00
01C700
038300
000000
000000
F0001E
F8003C
780078
3C0078
3C00F0
1E00E0
0F01E0
0F03C0
0783C0
038780
03C700
01EF00
01FE00
00FC00
007C00
007800
003800
003800
003800
003800
003800
003800
003800
003800
003800
003800
ENDCHAR
STARTCHAR 0177
ENCODING 375
SWIDTH 498 0
DWIDTH 18 0
BBX 16 34 1 -8
BITMAP
03C0
07E0
0670
0C30
1C18
0000
0000
E007
E00F
700E
700E
701E
381C
381C
383C
1C38
1C38
1C70
0E70
0E70
0EE0
07E0
07E0
07C0
03C0
03C0
0380
0380
0700
0700
0F00
7E00
7C00
7800
ENDCHAR
STARTCHAR 0178
ENCODING 376
SWIDTH 664 0
DWIDTH 24 0
BBX 23 33 1 0
BITMAP
03CF00
03CF00
03CF00
03CF00
000000
000000
000000
F0001E
F8003C
780078
3C0078
3C00F0
1E00E0
0F01E0
0F03C0
0783C0
038780
03C700
01EF00
01FE00
00FC00
007C00
007800
003800
003800
003800
003800
003800
003800
003800
003800
003800
003800
ENDCHAR
STARTCHAR 0179
ENCODING 377
SWIDTH 609 0
DWIDTH 22 0
BBX 20 34 1 0
BITMAP
001F00
001E00
003C00
003000
006000
00C000
000000
000000
7FFFF0
7FFFF0
7FFFF0
0001F0
0001E0
0003C0
000780
000F00
001F00
001E00
003C00
007800
00F800
00F000
01E000
03C000
078000
0F8000
0F0000
1E0000
3C0000
780000
F80000
FFFFF0
FFFFF0
FFFFF0
ENDCHAR
STARTCHAR 017A
ENCODING 378
SWIDTH 498 0
DWIDTH 18 0
BBX 15 26 1 0
BITMAP
0078
00E0
01C0
0180
0300
0000
0000
7FFE
7FFE
7FFE
001C
0038
0078
00F0
01E0
01C0
0380
0780
0F00
1E00
3C00
3800
7000
FFFE
FFFE
FFFE
ENDCHAR
STARTCHAR 017B
ENCODING 379
SWIDTH 609 0
DWIDTH 22 0
BBX 20 33 1 0
BITMAP
007000
007000
007000
007000
000000
000000
000000
7FFFF0
7FFFF0
7FFFF0
0001F0
0001E0
0003C0
000780
000F00
001F00
001E00
003C00
007800
00F800
00F000
01E000
03C000
078000
0F8000
0F0000
1E0000
3C0000
780000
F80000
FFFFF0
FFFFF0
FFFFF0
ENDCHAR
STARTCHAR 017C
ENCODING 380
SWIDTH 498 0
DWIDTH 18 0
BBX 15 26 1 0
BITMAP
03C0
03C0
03C0
03C0
0000
0000
0000
7FFE
7FFE
7FFE
001C
0038
0078
00F0
01E0
01C0
0380
0780
0F00
1E00
3C00
3800
7000
FFFE
FFFE
FFFE
ENDCHAR
STARTCHAR 017D
ENCODING 381
SWIDTH 609 0
DWIDTH 22 0
BBX 20 34 1 0
BITMAP
070700
038E00
018C00
01DC00
00F800
007000
000000
000000
7FFFF0
7FFFF0
7FFFF0
0001F0
0001E0
0003C0
000780
000F00
001F00
001E00
003C00
007800
00F800
00F000
01E000
03C000
078000
0F8000
0F0000
1E0000
3C0000
780000
F80000
FFFFF0
FFFFF0
FFFFF0
ENDCHAR
STARTCHAR 017E
ENCODING 382
SWIDTH 498 0
DWIDTH 18 0
BBX 15 26 1 0
BITMAP
1C38
0E30
0660
07E0
03C0
0000
0000
7FFE
7FFE
7FFE
001C
0038
0078
00F0
01E0
01C0
0380
0780
0F00
1E00
3C00
3800
7000
FFFE
FFFE
FFFE
ENDCHAR
STARTCHAR 017F
ENCODING 383
SWIDTH 221 0
DWIDTH 8 0
BBX 8 26 0 0
BITMAP
0F
1F
3F
38
38
38
38
F8
F8
38
38
38
38
38
38
38
38
38
38
38
38
38
38
38
38
38
ENDCHAR
STARTCHAR 0192
ENCODING 402
SWIDTH 553 0
DWIDTH 20 0
BBX 19 34 0 -8
BITMAP
0003E0
0007E0
000FE0
001E20
001C00
001C00
003800
003800
003800
003800
07FF80
07FF80
07FF80
007000
007000
007000
00F000
00E000
00E000
00E000
00E000
01E000
01C000
01C000
01C000
01C000
03C000
038000
038000
078000
070000
7E0000
7C0000
F00000
ENDCHAR
STARTCHAR 01FA
ENCODING 506
SWIDTH 664 0
DWIDTH 24 0
BBX 22 38 1 0
BITMAP
00F800
00E000
01C000
018000
037800
00FC00
00C400
00C400
00FC00
007800
000000
000000
007C00
00FC00
00FC00
00FE00
01FE00
01CE00
01CF00
03CF00
038700
038780
078380
070380
0F03C0
0E01C0
0E01C0
1FFFE0
1FFFE0
1FFFF0
3C00F0
380070
380078
780078
700038
70003C
F0003C
E0001C
ENDCHAR
STARTCHAR 01FB
ENCODING 507
SWIDTH 553 0
DWIDTH 20 0
BBX 17 32 2 0
BITMAP
03C000
038000
070000
0E0000
0C0000
000000
03C000
066000
042000
066000
03C000
008000
000000
07F000
3FFC00
7FFC00
781E00
700E00
E00E00
000E00
001E00
07FE00
3FFE00
7E0E00
F00E00
E00E00
E00E00
E01E00
F03E00
FFFF80
7FEF80
1F8780
ENDCHAR
STARTCHAR 01FC
ENCODING 508
SWIDTH 996 0
DWIDTH 36 0
BBX 33 34 1 0
BITMAP
0000078000
00000F0000
00000E0000
00001C0000
0000380000
0000300000
0000000000
0000000000
003FFFFF80
003FFFFF80
007FFFFF80
0070E00000
00F0E00000
00E0E00000
01E0E00000
01C0E00000
01C0E00000
03C0E00000
0380E00000
0780FFFF00
0700FFFF00
0700FFFF00
0F00E00000
0FFFE00000
1FFFE00000
1FFFE00000
1C00E00000
3C00E00000
3800E00000
7800E00000
7000E00000
F000FFFF80
F000FFFF80
E000FFFF80
ENDCHAR
STARTCHAR 01FD
ENCODING 509
SWIDTH 886 0
DWIDTH 32 0
BBX 30 26 1 0
BITMAP
0001E000
0001C000
00038000
00070000
00060000
00000000
00000000
07F03F00
1FFCFFC0
3FFFFFE0
380FC0F0
70078078
70070038
00070038
000F0038
03FFFFF8
1FFFFFFC
7F870000
78070000
F0070000
E0070038
F00F8078
703FC0F0
7FF9FFE0
3FE0FFC0
0F803F00
ENDCHAR
STARTCHAR 01FE
ENCODING 510
SWIDTH 775 0
DWIDTH 28 0
BBX 26 33 1 0
BITMAP
00078000
000F0000
001E0000
001C0000
00380000
00000000
00000000
007F81C0
01FFE180
07FFFB00
0FC0FE00
1F003E00
3C001F00
3C003F00
78006780
7000C780
70018380
F0030380
F00603C0
F00C03C0
F01803C0
F03003C0
F06003C0
70C00380
71800380
7B000780
3E000F00
3E000F00
1F003E00
3FC0FC00
77FFF800
E1FFE000
407F8000
ENDCHAR
STARTCHAR 01FF
ENCODING 511
SWIDTH 609 0
DWIDTH 22 0
BBX 18 27 1 0
BITMAP
007800
007000
00E000
01C000
018000
030000
000000
000000
03F080
0FFCC0
1FFF80
3C0F00
780700
700F80
701B80
F03380
F06380
E0C380
E18380
F30380
760380
7C0780
780700
3C0F00
7FFE00
CFFC00
83F000
ENDCHAR
STARTCHAR 0218
ENCODING 536
SWIDTH 664 0
DWIDTH 24 0
BBX 20 35 2 -10
BITMAP
03FC00
0FFF00
1FFF80
3C07C0
7801E0
7000E0
7000E0
7000F0
700000
780000
7F0000
3FF000
0FFF00
01FFC0
000FE0
0001F0
0000F0
E00070
E00070
E00070
F00070
7800F0
7E03E0
3FFFC0
0FFF80
03FC00
000000
00F000
00F000
00F000
00F000
003000
003000
003000
00E000
ENDCHAR
STARTCHAR 0219
ENCODING 537
SWIDTH 498 0
DWIDTH 18 0
BBX 16 28 1 -10
BITMAP
07E0
1FF8
3FFC
781E
701E
700E
7000
7C00
3FC0
1FF8
01FE
001E
000F
F00F
F00E
781E
7FFC
3FF8
0FE0
0000
03C0
03C0
03C0
03C0
00C0
00C0
0080
0380
ENDCHAR
STARTCHAR 021A
ENCODING 538
SWIDTH 609 0
DWIDTH 22 0
BBX 20 36 1 -10
BITMAP
FFFFF0
FFFFF0
FFFFF0
00F000
00F000
00F000
00F000
00F000
00F000
00F000
00F000
00F000
00F000
00F000
00F000
00F000
00F000
00F000
00F000
00F000
00F000
00F000
00F000
00F000
00F000
00F000
000000
000000
00F000
00F000
00F000
00F000
003000
003000
006000
00C000
ENDCHAR
STARTCHAR 021B
ENCODING 539
SWIDTH 276 0
DWIDTH 10 0
BBX 8 33 1 -10
BITMAP
38
38
38
38
38
FF
FF
38
38
38
38
38
38
38
38
38
38
38
38
38
38
3F
3F
1F
00
1E
1E
1E
1E
06
04
0C
18
ENDCHAR
STARTCHAR 02C6
ENCODING 710
SWIDTH 332 0
DWIDTH 12 0
BBX 10 5 1 21
BITMAP
1E00
3F00
3700
7380
E1C0
ENDCHAR
STARTCHAR 02C7
ENCODING 711
SWIDTH 332 0
DWIDTH 12 0
BBX 10 5 1 21
BITMAP
C1C0
6180
7300
3F00
1E00
ENDCHAR
STARTCHAR 02C9
ENCODING 713
SWIDTH 332 0
DWIDTH 12 0
BBX 10 3 1 23
BITMAP
FFC0
FFC0
FFC0
ENDCHAR
STARTCHAR 02D8
ENCODING 728
SWIDTH 332 0
DWIDTH 12 0
BBX 10 5 1 21
BITMAP
C0C0
C0C0
FFC0
7F80
3F00
ENDCHAR
STARTCHAR 02D9
ENCODING 729
SWIDTH 332 0
DWIDTH 12 0
BBX 4 4 4 22
BITMAP
F0
F0
F0
F0
ENDCHAR
STARTCHAR 02DA
ENCODING 730
SWIDTH 332 0
DWIDTH 12 0
BBX 6 6 3 21
BITMAP
78
FC
CC
C4
FC
78
ENDCHAR
STARTCHAR 02DB
ENCODING 731
SWIDTH 332 0
DWIDTH 12 0
BBX 8 8 2 -8
BITMAP
18
70
60
E0
E0
E0
7F
0C
ENDCHAR
STARTCHAR 02DC
ENCODING 732
SWIDTH 332 0
DWIDTH 12 0
BBX 11 4 0 22
BITMAP
3860
7FE0
6FE0
C3C0
ENDCHAR
STARTCHAR 02DD
ENCODING 733
SWIDTH 332 0
DWIDTH 12 0
BBX 13 5 -1 21
BITMAP
1E78
3C70
38E0
71C0
E180
ENDCHAR
STARTCHAR 0384
ENCODING 900
SWIDTH 332 0
DWIDTH 12 0
BBX 3 7 5 21
BITMAP
E0
E0
E0
C0
C0
C0
C0
ENDCHAR
STARTCHAR 0385
ENCODING 901
SWIDTH 332 0
DWIDTH 12 0
BBX 10 9 1 22
BITMAP
0E00
0E00
0E00
0C00
0C00
FFC0
FFC0
F3C0
F3C0
ENDCHAR
STARTCHAR 0386
ENCODING 902
SWIDTH 664 0
DWIDTH 24 0
BBX 22 26 1 0
BITMAP
707C00
70FC00
70FC00
70FE00
71FE00
21CE00
21CF00
03CF00
038700
038780
078380
070380
0F03C0
0E01C0
0E01C0
1FFFE0
1FFFE0
1FFFF0
3C00F0
380070
380078
780078
700038
70003C
F0003C
E0001C
ENDCHAR
STARTCHAR 0387
ENCODING 903
SWIDTH 276 0
DWIDTH 10 0
BBX 4 4 4 8
BITMAP
F0
F0
F0
F0
ENDCHAR
STARTCHAR 0388
ENCODING 904
SWIDTH 775 0
DWIDTH 28 0
BBX 24 26 1 0
BITMAP
E7FFFE
E7FFFE
E7FFFE
E70000
E70000
470000
470000
070000
070000
070000
070000
07FFFE
07FFFE
07FFFE
070000
070000
070000
070000
070000
070000
070000
070000
070000
07FFFF
07FFFF
07FFFF
ENDCHAR
STARTCHAR 0389
ENCODING 905
SWIDTH 830 0
DWIDTH 30 0
BBX 25 26 1 0
BITMAP
E7000380
E7000380
E7000380
E7000380
C7000380
C7000380
47000380
07000380
07000380
07000380
07000380
07FFFF80
07FFFF80
07FFFF80
07000380
07000380
07000380
07000380
07000380
07000380
07000380
07000380
07000380
07000380
07000380
07000380
ENDCHAR
STARTCHAR 038A
ENCODING 906
SWIDTH 387 0
DWIDTH 14 0
BBX 8 26 1 0
BITMAP
E7
E7
E7
E7
E7
C7
47
07
07
07
07
07
07
07
07
07
07
07
07
07
07
07
07
07
07
07
ENDCHAR
STARTCHAR 038C
ENCODING 908
SWIDTH 775 0
DWIDTH 28 0
BBX 28 26 -1 0
BITMAP
E01FE000
E07FF800
E1FFFE00
E3F03F00
E7C00F80
6F0003C0
4F0003C0
1E0001E0
1C0001E0
1C0000E0
3C0000E0
3C0000F0
3C0000F0
3C0000F0
3C0000F0
3C0000F0
1C0000E0
1C0000E0
1E0001E0
0F0003C0
0F0003C0
07C00F80
03F03F00
01FFFE00
007FF800
001FE000
ENDCHAR
STARTCHAR 038E
ENCODING 910
SWIDTH 858 0
DWIDTH 31 0
BBX 27 26 1 0
BITMAP
E78001E0
E78001E0
E3C003C0
E3E00380
E1E00780
60F00F00
40F00F00
00781E00
003C1C00
003C3C00
001E7800
000E7000
000FF000
0007E000
0003E000
0003C000
0003C000
0003C000
0003C000
0003C000
0003C000
0003C000
0003C000
0003C000
0003C000
0003C000
ENDCHAR
STARTCHAR 038F
ENCODING 911
SWIDTH 747 0
DWIDTH 27 0
BBX 27 26 -1 0
BITMAP
E01FC000
E07FF800
E1FFFC00
E3E03E00
E7800F00
6F000780
4E000380
1E0003C0
1E0001C0
1C0001C0
1C0001C0
1C0001E0
1C0001E0
1C0001C0
1C0001C0
1C0001C0
1E0001C0
0E0003C0
0F000380
07000700
03800F00
01C01C00
00F03800
3FF07FE0
3FF07FE0
3FF07FE0
ENDCHAR
STARTCHAR 0390
ENCODING 912
SWIDTH 221 0
DWIDTH 8 0
BBX 10 31 -1 0
BITMAP
0C00
0C00
0C00
0C00
0C00
FFC0
FFC0
F3C0
F3C0
0000
0000
0000
1E00
1E00
1E00
1E00
1E00
1E00
1E00
1E00
1E00
1E00
1E00
1E00
1E00
1E00
1E00
1E00
1E00
1E00
1E00
ENDCHAR
STARTCHAR 0391
ENCODING 913
SWIDTH 664 0
DWIDTH 24 0
BBX 22 26 1 0
BITMAP
007C00
00FC00
00FC00
00FE00
01FE00
01CE00
01CF00
03CF00
038700
038780
078380
070380
0F03C0
0E01C0
0E01C0
1FFFE0
1FFFE0
1FFFF0
3C00F0
380070
380078
780078
700038
70003C
F0003C
E0001C
ENDCHAR
STARTCHAR 0392
ENCODING 914
SWIDTH 664 0
DWIDTH 24 0
BBX 19 26 3 0
BITMAP
FFFC00
FFFF00
FFFF80
E007C0
E003C0
E001C0
E001C0
E001C0
E001C0
E003C0
E00780
FFFF00
FFFF00
FFFF80
E003C0
E001E0
E000E0
E000E0
E000E0
E000E0
E000E0
E001E0
E003C0
FFFFC0
FFFF80
FFFE00
ENDCHAR
STARTCHAR 0393
ENCODING 915
SWIDTH 553 0
DWIDTH 20 0
BBX 17 26 3 0
BITMAP
FFFF80
FFFF80
FFFF80
E00000
E00000
E00000
E00000
E00000
E00000
E00000
E00000
E00000
E00000
E00000
E00000
E00000
E00000
E00000
E00000
E00000
E00000
E00000
E00000
E00000
E00000
E00000
ENDCHAR
STARTCHAR 0394
ENCODING 916
SWIDTH 664 0
DWIDTH 24 0
BBX 24 26 0 0
BITMAP
003C00
003C00
007E00
007E00
00FF00
00E700
00E700
01E780
01C380
03C3C0
0381C0
0781E0
0781E0
0700E0
0F00F0
0E0070
1E0078
1E0078
1C0038
3C003C
38001C
78001E
78001E
7FFFFE
FFFFFF
FFFFFF
ENDCHAR
STARTCHAR 0395
ENCODING 917
SWIDTH 664 0
DWIDTH 24 0
BBX 19 26 3 0
BITMAP
FFFFC0
FFFFC0
FFFFC0
F00000
F00000
F00000
F00000
F00000
F00000
F00000
F00000
FFFFC0
FFFFC0
FFFFC0
F00000
F00000
F00000
F00000
F00000
F00000
F00000
F00000
F00000
FFFFE0
FFFFE0
FFFFE0
ENDCHAR
STARTCHAR 0396
ENCODING 918
SWIDTH 609 0
DWIDTH 22 0
BBX 20 26 1 0
BITMAP
7FFFF0
7FFFF0
7FFFF0
0001F0
0001E0
0003C0
000780
000F00
001F00
001E00
003C00
007800
00F800
00F000
01E000
03C000
078000
0F8000
0F0000
1E0000
3C0000
780000
F80000
FFFFF0
FFFFF0
FFFFF0
ENDCHAR
STARTCHAR 0397
ENCODING 919
SWIDTH 720 0
DWIDTH 26 0
BBX 20 26 3 0
BITMAP
E00070
E00070
E00070
E00070
E00070
E00070
E00070
E00070
E00070
E00070
E00070
FFFFF0
FFFFF0
FFFFF0
E00070
E00070
E00070
E00070
E00070
E00070
E00070
E00070
E00070
E00070
E00070
E00070
ENDCHAR
STARTCHAR 0398
ENCODING 920
SWIDTH 775 0
DWIDTH 28 0
BBX 26 26 1 0
BITMAP
007F8000
01FFF000
07FFF800
0FC0FC00
1F003E00
3C000F00
3C000700
78000780
70000380
70000380
700003C0
F0FFC3C0
F0FFC3C0
F0FFC3C0
F00003C0
700003C0
70000380
78000380
78000780
3C000F00
3E000F00
1F003E00
0FC0FC00
07FFF800
01FFE000
007F8000
ENDCHAR
STARTCHAR 0399
ENCODING 921
SWIDTH 276 0
DWIDTH 10 0
BBX 3 26 4 0
BITMAP
E0
E0
E0
E0
E0
E0
E0
E0
E0
E0
E0
E0
E0
E0
E0
E0
E0
E0
E0
E0
E0
E0
E0
E0
E0
E0
ENDCHAR
STARTCHAR 039A
ENCODING 922
SWIDTH 664 0
DWIDTH 24 0
BBX 20 26 3 0
BITMAP
E000F0
E001E0
E003C0
E00780
E00F00
E01E00
E03C00
E07800
E0F000
E1E000
E3C000
E7E000
EFE000
FEF000
FC7800
F87800
F03C00
E01E00
E00F00
E00F00
E00780
E003C0
E003C0
E001E0
E000F0
E000F0
ENDCHAR
STARTCHAR 039B
ENCODING 923
SWIDTH 664 0
DWIDTH 24 0
BBX 22 26 1 0
BITMAP
007800
00FC00
00FC00
00FE00
01FE00
01CE00
01CF00
03CF00
038700
078780
078780
070380
0F03C0
0F03C0
0E01C0
1E01E0
1E01E0
1C00F0
3C00F0
3C0070
380078
780078
780038
F0003C
F0003C
F0001C
ENDCHAR
STARTCHAR 039C
ENCODING 924
SWIDTH 830 0
DWIDTH 30 0
BBX 24 26 3 0
BITMAP
F8000F
F8001F
F8001F
FC001F
FC003F
FC003F
EE003F
EE0077
EE0077
E70067
E700E7
E700E7
E380C7
E381C7
E381C7
E1C187
E1C387
E1C387
E0E307
E0E707
E0E707
E07607
E07E07
E07E07
E03C07
E03C07
ENDCHAR
STARTCHAR 039D
ENCODING 925
SWIDTH 720 0
DWIDTH 26 0
BBX 20 26 3 0
BITMAP
F00070
F00070
F80070
FC0070
FC0070
FE0070
EF0070
E70070
E78070
E3C070
E3C070
E1E070
E0E070
E0F070
E07870
E03870
E03C70
E01E70
E00E70
E00F70
E007F0
E003F0
E003F0
E001F0
E000F0
E000F0
ENDCHAR
STARTCHAR 039E
ENCODING 926
SWIDTH 636 0
DWIDTH 23 0
BBX 19 26 2 0
BITMAP
FFFFE0
FFFFE0
FFFFE0
000000
000000
000000
000000
000000
000000
000000
000000
7FFFC0
7FFFC0
7FFFC0
000000
000000
000000
000000
000000
000000
000000
000000
000000
FFFFE0
FFFFE0
FFFFE0
ENDCHAR
STARTCHAR 039F
ENCODING 927
SWIDTH 775 0
DWIDTH 28 0
BBX 26 26 1 0
BITMAP
007F8000
01FFF000
07FFF800
0FC0FC00
1F003E00
3E000F00
3C000F00
78000780
78000380
70000380
700003C0
F00003C0
F00003C0
F00003C0
F00003C0
700003C0
70000380
78000380
78000780
3C000700
3E000F00
1F003E00
0FC0FC00
07FFF800
01FFE000
007F8000
ENDCHAR
STARTCHAR 03A0
ENCODING 928
SWIDTH 720 0
DWIDTH 26 0
BBX 20 26 3 0
BITMAP
FFFFF0
FFFFF0
FFFFF0
E00070
E00070
E00070
E00070
E00070
E00070
E00070
E00070
E00070
E00070
E00070
E00070
E00070
E00070
E00070
E00070
E00070
E00070
E00070
E00070
E00070
E00070
E00070
ENDCHAR
STARTCHAR 03A1
ENCODING 929
SWIDTH 664 0
DWIDTH 24 0
BBX 19 26 3 0
BITMAP
FFFE00
FFFF80
FFFFC0
F007C0
F001E0
F001E0
F000E0
F000E0
F000E0
F001E0
F001E0
F007C0
FFFFC0
FFFF80
FFFE00
F00000
F00000
F00000
F00000
F00000
F00000
F00000
F00000
F00000
F00000
F00000
ENDCHAR
STARTCHAR 03A3
ENCODING 931
SWIDTH 609 0
DWIDTH 22 0
BBX 19 26 2 0
BITMAP
FFFFC0
FFFFC0
FFFFC0
F80000
7C0000
3E0000
1F0000
0F8000
07C000
03E000
01F000
00F800
007C00
007800
00F000
01E000
03C000
078000
0F0000
1E0000
3C0000
780000
F00000
FFFFE0
FFFFE0
FFFFE0
ENDCHAR
STARTCHAR 03A4
ENCODING 932
SWIDTH 609 0
DWIDTH 22 0
BBX 20 26 1 0
BITMAP
FFFFF0
FFFFF0
FFFFF0
00F000
00F000
00F000
00F000
00F000
00F000
00F000
00F000
00F000
00F000
00F000
00F000
00F000
00F000
00F000
00F000
00F000
00F000
00F000
00F000
00F000
00F000
00F000
ENDCHAR
STARTCHAR 03A5
ENCODING 933
SWIDTH 664 0
DWIDTH 24 0
BBX 23 26 1 0
BITMAP
F0001E
F8003C
780078
3C0078
3C00F0
1E00E0
0F01E0
0F03C0
0783C0
038780
03C700
01EF00
01FE00
00FC00
007C00
007800
003800
003800
003800
003800
003800
003800
003800
003800
003800
003800
ENDCHAR
STARTCHAR 03A6
ENCODING 934
SWIDTH 803 0
DWIDTH 29 0
BBX 23 26 3 0
BITMAP
003800
003800
003800
00FF00
07FFC0
1FFFF0
3E39F8
7C387C
78383C
F0381E
E0381E
E0380E
E0380E
E0380E
E0380E
F0381E
F0381C
78383C
7C387C
3E38F8
1FFFF0
07FFC0
01FE00
003800
003800
003800
ENDCHAR
STARTCHAR 03A7
ENCODING 935
SWIDTH 664 0
DWIDTH 24 0
BBX 22 26 1 0
BITMAP
78003C
780078
3C00F0
1E00F0
1E01E0
0F03C0
078380
038780
03CF00
01EE00
00FE00
00FC00
007800
007C00
00FC00
01FE00
03CF00
03C780
078780
0F03C0
0F01E0
1E01E0
3C00F0
3C0078
780078
F0003C
ENDCHAR
STARTCHAR 03A8
ENCODING 936
SWIDTH 830 0
DWIDTH 30 0
BBX 26 26 2 0
BITMAP
F01E03C0
F01E03C0
F01E03C0
F01E03C0
F01E03C0
F01E03C0
F01E03C0
F01E03C0
F01E03C0
F01E03C0
F01E03C0
F01E03C0
701E03C0
701E0380
701E0380
781E0780
3C1E0F00
3F1E3F00
1FFFFE00
07FFF800
01FFE000
001E0000
001E0000
001E0000
001E0000
001E0000
ENDCHAR
STARTCHAR 03A9
ENCODING 937
SWIDTH 747 0
DWIDTH 27 0
BBX 25 26 1 0
BITMAP
007F0000
01FFE000
07FFF000
0F80F800
1E003C00
3C001E00
38000E00
78000F00
70000700
70000700
70000700
70000700
70000700
70000700
70000700
70000700
78000F00
38000E00
38000E00
1C001C00
1E003C00
07007000
03C0E000
FFC1FF80
FFC1FF80
FFC1FF80
ENDCHAR
STARTCHAR 03AA
ENCODING 938
SWIDTH 276 0
DWIDTH 10 0
BBX 10 33 0 0
BITMAP
F3C0
F3C0
F3C0
F3C0
0000
0000
0000
0E00
0E00
0E00
0E00
0E00
0E00
0E00
0E00
0E00
0E00
0E00
0E00
0E00
0E00
0E00
0E00
0E00
0E00
0E00
0E00
0E00
0E00
0E00
0E00
0E00
0E00
ENDCHAR
STARTCHAR 03AB
ENCODING 939
SWIDTH 664 0
DWIDTH 24 0
BBX 23 33 1 0
BITMAP
03CF00
03CF00
03CF00
03CF00
000000
000000
000000
F0001E
F8003C
780078
3C0078
3C00F0
1E00E0
0F01E0
0F03C0
0783C0
038780
03C700
01EF00
01FE00
00FC00
007C00
007800
003800
003800
003800
003800
003800
003800
003800
003800
003800
003800
ENDCHAR
STARTCHAR 03AC
ENCODING 940
SWIDTH 581 0
DWIDTH 21 0
BBX 21 28 0 0
BITMAP
01C000
01C000
01C000
01C000
00C000
00C000
00C000
000000
000000
03E038
0FF878
1FFC70
3C1E70
780FE0
7007E0
7003E0
F003C0
E003C0
E001C0
E003C0
F003E0
7007E0
7007E0
780E70
3C1E70
1FFC78
0FF838
03E038
ENDCHAR
STARTCHAR 03AD
ENCODING 941
SWIDTH 443 0
DWIDTH 16 0
BBX 15 28 1 0
BITMAP
0380
0380
0380
0380
0300
0300
0300
0000
0000
0FC0
3FF0
7FF8
703C
F01C
E00E
7000
7800
3F80
3F80
7C00
E000
E00E
E00E
E01E
F03C
7FF8
3FF0
0FC0
ENDCHAR
STARTCHAR 03AE
ENCODING 942
SWIDTH 553 0
DWIDTH 20 0
BBX 15 36 3 -8
BITMAP
0380
0380
0380
0380
0180
0180
0100
0000
0000
C7E0
CFF8
DFFC
F03C
E01E
E01E
E00E
E00E
E00E
E00E
E00E
E00E
E00E
E00E
E00E
E00E
E00E
E00E
E00E
000E
000E
000E
000E
000E
000E
000E
000E
ENDCHAR
STARTCHAR 03AF
ENCODING 943
SWIDTH 221 0
DWIDTH 8 0
BBX 4 28 2 0
BITMAP
60
60
60
60
60
60
60
00
00
F0
F0
F0
F0
F0
F0
F0
F0
F0
F0
F0
F0
F0
F0
F0
F0
F0
F0
F0
ENDCHAR
STARTCHAR 03B0
ENCODING 944
SWIDTH 553 0
DWIDTH 20 0
BBX 15 31 2 0
BITMAP
0380
0380
0380
0180
0180
1DF8
1D78
1C78
1C78
0000
0000
0000
E00E
E00E
E00E
E00E
E00E
E00E
E00E
E00E
E00E
E00E
E00E
E00E
E00E
F00E
700E
781E
7FFC
3FF8
0FE0
ENDCHAR
STARTCHAR 03B1
ENCODING 945
SWIDTH 581 0
DWIDTH 21 0
BBX 20 19 1 0
BITMAP
07C070
0FF8F0
1FFCE0
3C3CE0
781FE0
700FC0
7007C0
E00780
E00780
E00380
E00780
F007C0
F00FC0
700FC0
781CE0
3C3CE0
3FF8F0
1FF070
07C070
ENDCHAR
STARTCHAR 03B2
ENCODING 946
SWIDTH 581 0
DWIDTH 21 0
BBX 16 33 3 -7
BITMAP
0FC0
3FF0
7FF8
703C
E01C
E01C
E01C
E01C
E01C
E038
E3F0
E3F0
E3FC
E01E
E00E
E00F
E007
E007
E007
E007
E00F
E00E
F03E
FFFC
FFF8
E7E0
E000
E000
E000
E000
E000
E000
E000
ENDCHAR
STARTCHAR 03B3
ENCODING 947
SWIDTH 498 0
DWIDTH 18 0
BBX 16 27 1 -8
BITMAP
E007
E007
F00F
700E
780E
381E
381C
3C1C
1C38
1C38
0E78
0E70
0F70
07E0
07E0
03E0
03C0
03C0
01C0
01C0
01C0
01C0
01C0
01C0
01C0
01C0
01C0
ENDCHAR
STARTCHAR 03B4
ENCODING 948
SWIDTH 553 0
DWIDTH 20 0
BBX 17 26 2 0
BITMAP
3FFE00
3FFE00
3FFE00
1E0000
0F0000
07C000
01E000
0FF000
1FFC00
3E7E00
781E00
F00F00
E00700
E00700
E00780
E00780
E00780
E00780
E00700
E00700
F00700
700F00
781E00
3FFC00
1FF800
07E000
ENDCHAR
STARTCHAR 03B5
ENCODING 949
SWIDTH 443 0
DWIDTH 16 0
BBX 15 19 1 0
BITMAP
0FC0
3FF0
7FF8
703C
F01C
E00E
7000
7800
3F80
3F80
7C00
E000
E00E
E00E
E01E
F03C
7FF8
3FF0
0FC0
ENDCHAR
STARTCHAR 03B6
ENCODING 950
SWIDTH 443 0
DWIDTH 16 0
BBX 15 34 1 -8
BITMAP
3FFC
3FFC
3FFC
0078
00F0
01C0
0380
0700
0F00
1E00
1C00
3C00
3800
7800
7000
7000
7000
7000
F000
F000
7000
7000
7800
3F80
1FFC
0FFE
003E
000E
000E
000E
000E
000E
001C
001C
ENDCHAR
STARTCHAR 03B7
ENCODING 951
SWIDTH 553 0
DWIDTH 20 0
BBX 15 27 3 -7
BITMAP
C7E0
CFF8
DFFC
F03C
E01E
E01E
E00E
E00E
E00E
E00E
E00E
E00E
E00E
E00E
E00E
E00E
E00E
E00E
E00E
000E
000E
000E
000E
000E
000E
000E
000E
ENDCHAR
STARTCHAR 03B8
ENCODING 952
SWIDTH 553 0
DWIDTH 20 0
BBX 16 28 2 0
BITMAP
03C0
0FF8
1FFC
3C3C
780E
700E
F007
E007
E007
E007
E007
E007
FFFF
FFFF
E007
E007
E007
E007
E007
E007
E007
E007
700E
700E
381C
3FFC
1FF8
07E0
ENDCHAR
STARTCHAR 03B9
ENCODING 953
SWIDTH 221 0
DWIDTH 8 0
BBX 4 19 2 0
BITMAP
F0
F0
F0
F0
F0
F0
F0
F0
F0
F0
F0
F0
F0
F0
F0
F0
F0
F0
F0
ENDCHAR
STARTCHAR 03BA
ENCODING 954
SWIDTH 498 0
DWIDTH 18 0
BBX 16 19 2 0
BITMAP
E01E
E038
E070
E0E0
E1C0
E380
E700
EF80
FFC0
FBC0
F1E0
E0E0
E0F0
E078
E038
E03C
E01E
E01E
E00F
ENDCHAR
STARTCHAR 03BB
ENCODING 955
SWIDTH 498 0
DWIDTH 18 0
BBX 16 26 1 0
BITMAP
0E00
0E00
0F00
0700
0700
0780
0380
0380
03C0
03C0
07E0
07E0
07E0
0EF0
0E70
0E70
1C38
1C38
3C3C
381C
381C
781E
700E
700E
F00F
E007
ENDCHAR
STARTCHAR 03BC
ENCODING 956
SWIDTH 581 0
DWIDTH 21 0
BBX 15 26 3 -7
BITMAP
E00E
E00E
E00E
E00E
E00E
E00E
E00E
E00E
E00E
E00E
E00E
E00E
E00E
E01E
E01E
F03E
FFEE
FFCE
FF80
E000
E000
E000
E000
E000
E000
E000
ENDCHAR
STARTCHAR 03BD
ENCODING 957
SWIDTH 498 0
DWIDTH 18 0
BBX 16 19 1 0
BITMAP
E007
E007
F00F
700E
700E
781E
381C
381C
3C38
1C38
1C78
1E70
0E70
0EE0
0FE0
07E0
07C0
03C0
03C0
ENDCHAR
STARTCHAR 03BE
ENCODING 958
SWIDTH 443 0
DWIDTH 16 0
BBX 16 34 1 -8
BITMAP
7FFC
7FFC
7FFC
1E00
3C00
3800
3800
3800
3800
3C00
1F00
0FF8
07F8
1FF8
3C00
7800
F000
E000
E000
E000
F000
F000
7800
7FE0
3FFC
0FFE
001F
0007
0007
000E
000E
000E
001C
001C
ENDCHAR
STARTCHAR 03BF
ENCODING 959
SWIDTH 553 0
DWIDTH 20 0
BBX 18 19 1 0
BITMAP
03F000
0FFC00
1FFE00
3C0F00
380780
700380
700380
700380
7003C0
F003C0
7003C0
700380
700380
780380
780780
3C0F00
1FFE00
0FFC00
03F000
ENDCHAR
STARTCHAR 03C0
ENCODING 960
SWIDTH 692 0
DWIDTH 25 0
BBX 20 19 2 0
BITMAP
FFFFF0
FFFFF0
FFFFF0
1C01C0
1C01C0
1C01C0
1C01C0
1C01C0
1C01C0
1C01C0
1C01C0
1C01C0
1C01C0
1C01C0
1C01C0
1C01C0
1C01C0
1C01C0
1C01C0
ENDCHAR
STARTCHAR 03C1
ENCODING 961
SWIDTH 581 0
DWIDTH 21 0
BBX 17 26 2 -7
BITMAP
03F000
0FFC00
1FFE00
3C1F00
780F00
700700
F00780
E00380
E00380
E00380
E00380
E00380
F00780
F00700
F80F00
FC1E00
FFFE00
EFFC00
E3F000
E00000
E00000
E00000
E00000
E00000
E00000
E00000
ENDCHAR
STARTCHAR 03C2
ENCODING 962
SWIDTH 470 0
DWIDTH 17 0
BBX 17 27 1 -8
BITMAP
03F000
0FFC00
1FFE00
3C1F00
780F00
700700
F00780
E00000
E00000
E00000
E00000
E00000
F00000
700000
780000
3E0000
1FC000
0FF000
03FE00
007E00
000F00
000700
000700
000E00
000E00
000E00
001C00
ENDCHAR
STARTCHAR 03C3
ENCODING 963
SWIDTH 609 0
DWIDTH 22 0
BBX 19 19 2 0
BITMAP
03FFE0
0FFFE0
1FFFE0
3C1F00
780700
700780
700380
F00380
E00380
E00380
E00380
F00380
F00380
700780
780700
3C0F00
3FFE00
0FFC00
03F000
ENDCHAR
STARTCHAR 03C4
ENCODING 964
SWIDTH 387 0
DWIDTH 14 0
BBX 16 19 -1 0
BITMAP
FFFF
FFFF
FFFF
01C0
01C0
01C0
01C0
01C0
01C0
01C0
01C0
01C0
01C0
01C0
01C0
01C0
01C0
01C0
01C0
ENDCHAR
STARTCHAR 03C5
ENCODING 965
SWIDTH 553 0
DWIDTH 20 0
BBX 15 19 2 0
BITMAP
E00E
E00E
E00E
E00E
E00E
E00E
E00E
E00E
E00E
E00E
E00E
E00E
E00E
F00E
700E
781E
7FFC
3FF8
0FE0
ENDCHAR
STARTCHAR 03C6
ENCODING 966
SWIDTH 636 0
DWIDTH 23 0
BBX 21 27 1 -8
BITMAP
007C00
0C7F00
1C7FC0
3C71E0
3870E0
707070
707070
F07078
F07038
E07038
E07038
F07078
F07078
707078
707070
7870F0
3C71E0
1FFFC0
0FFF80
07FE00
007000
007000
007000
007000
007000
007000
007000
ENDCHAR
STARTCHAR 03C7
ENCODING 967
SWIDTH 526 0
DWIDTH 19 0
BBX 17 27 1 -8
BITMAP
700700
780F00
380E00
3C1E00
1C1C00
1C3C00
0E3800
0E7800
077000
07F000
07E000
03E000
03C000
03C000
03E000
03E000
07F000
077000
0E7800
0E3800
1C3C00
1C1C00
381E00
380E00
700F00
700700
E00780
ENDCHAR
STARTCHAR 03C8
ENCODING 968
SWIDTH 720 0
DWIDTH 26 0
BBX 20 27 3 -8
BITMAP
E07070
E07070
E07070
E07070
E07070
E07070
E07070
E07070
E07070
E07070
E07070
E07070
E07070
F07070
7070F0
7870E0
3E73E0
1FFFC0
0FFF00
01F800
007000
007000
007000
007000
007000
007000
007000
ENDCHAR
STARTCHAR 03C9
ENCODING 969
SWIDTH 775 0
DWIDTH 28 0
BBX 22 19 3 0
BITMAP
0E01E0
1C00E0
3C0070
380078
703838
703838
70383C
F0381C
E0381C
E0381C
E0381C
E0381C
F0381C
70783C
707838
787C78
3FFFF0
1FCFE0
0F87C0
ENDCHAR
STARTCHAR 03CA
ENCODING 970
SWIDTH 221 0
DWIDTH 8 0
BBX 10 26 -1 0
BITMAP
F3C0
F3C0
F3C0
F3C0
0000
0000
0000
1E00
1E00
1E00
1E00
1E00
1E00
1E00
1E00
1E00
1E00
1E00
1E00
1E00
1E00
1E00
1E00
1E00
1E00
1E00
ENDCHAR
STARTCHAR 03CB
ENCODING 971
SWIDTH 553 0
DWIDTH 20 0
BBX 15 26 2 0
BITMAP
1E78
1E78
1E78
1E78
0000
0000
0000
E00E
E00E
E00E
E00E
E00E
E00E
E00E
E00E
E00E
E00E
E00E
E00E
E00E
F00E
700E
781E
7FFC
3FF8
0FE0
ENDCHAR
STARTCHAR 03CC
ENCODING 972
SWIDTH 553 0
DWIDTH 20 0
BBX 18 28 1 0
BITMAP
00E000
00E000
00E000
00E000
00C000
00C000
00C000
000000
000000
03F000
0FFC00
1FFE00
3C0F00
380780
700380
700380
700380
7003C0
F003C0
7003C0
700380
700380
780380
780780
3C0F00
1FFE00
0FFC00
03F000
ENDCHAR
STARTCHAR 03CD
ENCODING 973
SWIDTH 553 0
DWIDTH 20 0
BBX 15 28 2 0
BITMAP
0380
0380
0380
0180
0180
0180
0180
0000
0000
E00E
E00E
E00E
E00E
E00E
E00E
E00E
E00E
E00E
E00E
E00E
E00E
E00E
F00E
700E
781E
7FFC
3FF8
0FE0
ENDCHAR
STARTCHAR 03CE
ENCODING 974
SWIDTH 775 0
DWIDTH 28 0
BBX 22 28 3 0
BITMAP
003800
003800
003800
003000
003000
003000
003000
000000
000000
0E01E0
1C00E0
3C0070
380078
703838
703838
70383C
F0381C
E0381C
E0381C
E0381C
E0381C
F0381C
70783C
707838
787C78
3FFFF0
1FCFE0
0F87C0
ENDCHAR
STARTCHAR 03D1
ENCODING 977
SWIDTH 553 0
DWIDTH 20 0
BBX 19 28 0 0
BITMAP
00C000
07F800
0FFE00
0E1E00
1C0700
1C0780
1C0380
1C0380
1C0380
1E0380
0E0180
0F81C0
03FDC0
01FFE0
007FE0
0001C0
0001C0
F001C0
F00380
380380
380380
380380
380380
1C0700
1E0F00
0FFE00
07FC00
03F000
ENDCHAR
STARTCHAR 03D5
ENCODING 981
SWIDTH 553 0
DWIDTH 20 0
BBX 20 32 0 -8
BITMAP
007000
007000
007000
007000
007000
07FE00
0FFF80
1E77C0
3C73C0
7871E0
7070E0
7070E0
7070F0
707070
F07070
F07070
707070
7070F0
7070E0
7870E0
3871C0
3E73C0
1FFF80
0FFF00
01F800
007000
007000
007000
007000
007000
007000
007000
ENDCHAR
STARTCHAR 03D6
ENCODING 982
SWIDTH 775 0
DWIDTH 28 0
BBX 23 19 2 0
BITMAP
FFFE00
FFFFC0
0F3FE0
1E00F8
3C0078
38003C
78001C
70001E
70380E
70380E
703C0E
703C0E
703C0E
703C0E
383C1C
3C7E3C
1FFFF8
0FE7F0
07C3E0
ENDCHAR
STARTCHAR 0400
ENCODING 1024
SWIDTH 664 0
DWIDTH 24 0
BBX 19 34 3 0
BITMAP
078000
03C000
01C000
00E000
007000
003000
000000
000000
FFFFC0
FFFFC0
FFFFC0
F00000
F00000
F00000
F00000
F00000
F00000
F00000
F00000
FFFFC0
FFFFC0
FFFFC0
F00000
F00000
F00000
F00000
F00000
F00000
F00000
F00000
F00000
FFFFE0
FFFFE0
FFFFE0
ENDCHAR
STARTCHAR 0401
ENCODING 1025
SWIDTH 664 0
DWIDTH 24 0
BBX 19 33 3 0
BITMAP
0F3C00
0F3C00
0F3C00
0F3C00
000000
000000
000000
FFFFC0
FFFFC0
FFFFC0
E00000
E00000
E00000
E00000
E00000
E00000
E00000
E00000
FFFFC0
FFFFC0
FFFFC0
E00000
E00000
E00000
E00000
E00000
E00000
E00000
E00000
E00000
FFFFE0
FFFFE0
FFFFE0
ENDCHAR
STARTCHAR 0402
ENCODING 1026
SWIDTH 858 0
DWIDTH 31 0
BBX 27 26 1 0
BITMAP
FFFFC000
FFFFC000
FFFFC000
00F00000
00F00000
00F00000
00F00000
00F00000
00F1FE00
00F7FF80
00FFFFC0
00FE03C0
00F801E0
00F001E0
00F000E0
00F000E0
00F000E0
00F000E0
00F000E0
00F000E0
00F000E0
00F001E0
00F001E0
00F0FFC0
00F0FF80
00F0FF00
ENDCHAR
STARTCHAR 0403
ENCODING 1027
SWIDTH 553 0
DWIDTH 20 0
BBX 16 34 3 0
BITMAP
00F0
01E0
01C0
0380
0700
0600
0000
0000
FFFF
FFFF
FFFF
E000
E000
E000
E000
E000
E000
E000
E000
E000
E000
E000
E000
E000
E000
E000
E000
E000
E000
E000
E000
E000
E000
E000
ENDCHAR
STARTCHAR 0404
ENCODING 1028
SWIDTH 720 0
DWIDTH 26 0
BBX 24 26 1 0
BITMAP
007F00
03FFE0
0FFFF0
1F80F8
3E003C
3C001E
78000F
70000F
F00000
E00000
E00000
FFFC00
FFFC00
FFFC00
E00000
E00000
F00006
F00007
70000F
78000E
3C001E
3E003C
1F80F8
0FFFF0
03FFE0
00FF00
ENDCHAR
STARTCHAR 0405
ENCODING 1029
SWIDTH 664 0
DWIDTH 24 0
BBX 20 26 2 0
BITMAP
03FC00
0FFF00
1FFF80
3C07C0
7801E0
7000E0
7000E0
7000F0
700000
780000
7F0000
3FF000
0FFF00
01FFC0
000FE0
0001F0
0000F0
E00070
E00070
E00070
F00070
7800F0
7E03E0
3FFFC0
0FFF80
03FC00
ENDCHAR
STARTCHAR 0406
ENCODING 1030
SWIDTH 276 0
DWIDTH 10 0
BBX 4 26 3 0
BITMAP
F0
F0
F0
F0
F0
F0
F0
F0
F0
F0
F0
F0
F0
F0
F0
F0
F0
F0
F0
F0
F0
F0
F0
F0
F0
F0
ENDCHAR
STARTCHAR 0407
ENCODING 1031
SWIDTH 276 0
DWIDTH 10 0
BBX 10 33 0 0
BITMAP
F3C0
F3C0
F3C0
F3C0
0000
0000
0000
1E00
1E00
1E00
1E00
1E00
1E00
1E00
1E00
1E00
1E00
1E00
1E00
1E00
1E00
1E00
1E00
1E00
1E00
1E00
1E00
1E00
1E00
1E00
1E00
1E00
1E00
ENDCHAR
STARTCHAR 0408
ENCODING 1032
SWIDTH 498 0
DWIDTH 18 0
BBX 14 26 1 0
BITMAP
001C
001C
001C
001C
001C
001C
001C
001C
001C
001C
001C
001C
001C
001C
001C
001C
001C
E01C
E01C
E01C
E01C
F03C
F878
7FF8
3FF0
0FC0
ENDCHAR
STARTCHAR 0409
ENCODING 1033
SWIDTH 1052 0
DWIDTH 38 0
BBX 36 26 1 0
BITMAP
0FFFF80000
0FFFF80000
0FFFF80000
0F00780000
0F00780000
0F00780000
0F00780000
0F00780000
0F00780000
0F00780000
0F00780000
0F007FFF00
0F007FFFC0
0F007FFFE0
0F007803E0
0F007800F0
0F007800F0
0F00780070
0F00780070
0E00780070
0E007800F0
1E007800F0
3C007803E0
F8007FFFE0
F8007FFFC0
E0007FFE00
ENDCHAR
STARTCHAR 040A
ENCODING 1034
SWIDTH 996 0
DWIDTH 36 0
BBX 34 26 2 0
BITMAP
E003800000
E003800000
E003800000
E003800000
E003800000
E003800000
E003800000
E003800000
E003800000
E003800000
E003800000
FFFFFFF800
FFFFFFFE00
FFFFFFFF00
E003800F80
E003800780
E003800380
E0038003C0
E0038003C0
E0038003C0
E003800380
E003800780
E003800F80
E003FFFF00
E003FFFE00
E003FFF800
ENDCHAR
STARTCHAR 040B
ENCODING 1035
SWIDTH 858 0
DWIDTH 31 0
BBX 26 26 1 0
BITMAP
FFFFE000
FFFFE000
FFFFE000
00F00000
00F00000
00F00000
00F00000
00F00000
00F1FC00
00F7FF00
00FFFF80
00FC0780
00F803C0
00F001C0
00F001C0
00F001C0
00F001C0
00F001C0
00F001C0
00F001C0
00F001C0
00F001C0
00F001C0
00F001C0
00F001C0
00F001C0
ENDCHAR
STARTCHAR 040C
ENCODING 1036
SWIDTH 581 0
DWIDTH 21 0
BBX 17 34 2 0
BITMAP
007800
007000
00E000
01C000
018000
030000
000000
000000
F00F00
F01E00
F01E00
F03C00
F03800
F07800
F07000
F0F000
F1E000
F1E000
F3C000
FF8000
FF8000
FF8000
F3C000
F1E000
F0E000
F0F000
F07800
F03800
F03C00
F01E00
F00E00
F00F00
F00780
F00380
ENDCHAR
STARTCHAR 040D
ENCODING 1037
SWIDTH 720 0
DWIDTH 26 0
BBX 20 34 3 0
BITMAP
03C000
01C000
00E000
007000
003000
001800
000000
000000
E00070
E00070
E00070
E000F0
E001F0
E003F0
E003F0
E007F0
E00F70
E01E70
E03C70
E07870
E0F870
E1F070
E3E070
E3C070
E78070
EF0070
FE0070
FC0070
F80070
F80070
F00070
E00070
E00070
E00070
ENDCHAR
STARTCHAR 040E
ENCODING 1038
SWIDTH 636 0
DWIDTH 23 0
BBX 21 33 1 0
BITMAP
060300
070700
03FE00
01FC00
000000
000000
000000
F00078
F00078
780078
7800F0
3C00F0
3C01E0
1E01E0
1E01C0
0E03C0
0F0380
070780
078780
038700
03CF00
03CE00
01DE00
01FC00
00FC00
00FC00
007800
007800
007000
00F000
0FE000
0FE000
0F8000
ENDCHAR
STARTCHAR 040F
ENCODING 1039
SWIDTH 720 0
DWIDTH 26 0
BBX 20 32 3 -6
BITMAP
E00070
E00070
E00070
E00070
E00070
E00070
E00070
E00070
E00070
E00070
E00070
E00070
E00070
E00070
E00070
E00070
E00070
E00070
E00070
E00070
E00070
E00070
E00070
FFFFF0
FFFFF0
FFFFF0
00F000
00F000
00F000
00F000
00F000
00F000
ENDCHAR
STARTCHAR 0410
ENCODING 1040
SWIDTH 664 0
DWIDTH 24 0
BBX 22 26 1 0
BITMAP
007800
00FC00
00FC00
00FE00
01FE00
01CE00
01CF00
03CF00
038700
038780
070780
070380
0F03C0
0E01C0
0E01C0
1FFFE0
1FFFE0
1FFFF0
3C00F0
380070
380078
780078
700038
F0003C
F0003C
E0001C
ENDCHAR
STARTCHAR 0411
ENCODING 1041
SWIDTH 664 0
DWIDTH 24 0
BBX 19 26 3 0
BITMAP
FFFF80
FFFF80
FFFF80
E00000
E00000
E00000
E00000
E00000
E00000
E00000
E00000
FFFE00
FFFF80
FFFFC0
E007C0
E001E0
E000E0
E000E0
E000E0
E000E0
E000E0
E001E0
E003C0
FFFFC0
FFFF80
FFFE00
ENDCHAR
STARTCHAR 0412
ENCODING 1042
SWIDTH 664 0
DWIDTH 24 0
BBX 20 26 3 0
BITMAP
FFFC00
FFFF00
FFFF80
E007C0
E003C0
E001C0
E001C0
E001C0
E001C0
E003C0
E00780
FFFF00
FFFF00
FFFF80
E003C0
E001E0
E000E0
E000F0
E000F0
E000F0
E000E0
E001E0
E003E0
FFFFC0
FFFF80
FFFE00
ENDCHAR
STARTCHAR 0413
ENCODING 1043
SWIDTH 553 0
DWIDTH 20 0
BBX 16 26 3 0
BITMAP
FFFF
FFFF
FFFF
E000
E000
E000
E000
E000
E000
E000
E000
E000
E000
E000
E000
E000
E000
E000
E000
E000
E000
E000
E000
E000
E000
E000
ENDCHAR
STARTCHAR 0414
ENCODING 1044
SWIDTH 664 0
DWIDTH 24 0
BBX 24 32 0 -6
BITMAP
01FFFC
01FFFC
01FFFC
01C01C
01C01C
01C01C
01C01C
01C01C
01C01C
01C01C
01C01C
01C01C
01C01C
01C01C
01C01C
01C01C
01C01C
03C01C
03801C
03801C
07001C
0F001C
1E001C
FFFFFF
FFFFFF
FFFFFF
F00007
F00007
F00007
F00007
F00007
F00007
ENDCHAR
STARTCHAR 0415
ENCODING 1045
SWIDTH 664 0
DWIDTH 24 0
BBX 19 26 3 0
BITMAP
FFFFC0
FFFFC0
FFFFC0
E00000
E00000
E00000
E00000
E00000
E00000
E00000
E00000
FFFFC0
FFFFC0
FFFFC0
E00000
E00000
E00000
E00000
E00000
E00000
E00000
E00000
E00000
FFFFE0
FFFFE0
FFFFE0
ENDCHAR
STARTCHAR 0416
ENCODING 1046
SWIDTH 913 0
DWIDTH 33 0
BBX 33 26 0 0
BITMAP
7801C00F00
3C01C01E00
1C01C01E00
1E01C03C00
0F01C03800
0F01C07800
0781C0F000
0381C0F000
03C1C1E000
01E1C1C000
01E1C3C000
00FFFF8000
007FFF8000
00FFFF8000
01E1C3C000
01C1C1E000
03C1C0E000
0781C0F000
0701C07800
0F01C03800
1E01C03C00
1C01C01E00
3C01C00E00
7801C00F00
7001C00780
F001C00380
ENDCHAR
STARTCHAR 0417
ENCODING 1047
SWIDTH 609 0
DWIDTH 22 0
BBX 18 26 2 0
BITMAP
03F000
0FFC00
1FFE00
3C1F00
380700
780780
700780
700780
000780
000700
001F00
01FE00
01FC00
01FF00
000F80
000780
000380
0003C0
E003C0
F003C0
F00380
780780
7C0F00
3FFF00
1FFC00
03F000
ENDCHAR
STARTCHAR 0418
ENCODING 1048
SWIDTH 720 0
DWIDTH 26 0
BBX 20 26 3 0
BITMAP
E00070
E00070
E00070
E000F0
E001F0
E003F0
E003F0
E007F0
E00F70
E01E70
E03C70
E07870
E0F870
E1F070
E3E070
E3C070
E78070
EF0070
FE0070
FC0070
F80070
F80070
F00070
E00070
E00070
E00070
ENDCHAR
STARTCHAR 0419
ENCODING 1049
SWIDTH 720 0
DWIDTH 26 0
BBX 20 33 3 0
BITMAP
060600
070E00
07FC00
03F800
000000
000000
000000
E00070
E00070
E00070
E000F0
E001F0
E003F0
E003F0
E007F0
E00F70
E01E70
E03C70
E07870
E0F870
E1F070
E3E070
E3C070
E78070
EF0070
FE0070
FC0070
F80070
F80070
F00070
E00070
E00070
E00070
ENDCHAR
STARTCHAR 041A
ENCODING 1050
SWIDTH 581 0
DWIDTH 21 0
BBX 18 26 2 0
BITMAP
F00F00
F00E00
F01E00
F03C00
F03C00
F07800
F07000
F0F000
F1E000
F1E000
F3C000
FF8000
FF8000
FF8000
F3C000
F1E000
F0E000
F0F000
F07800
F03800
F03C00
F01E00
F00F00
F00F00
F00780
F003C0
ENDCHAR
STARTCHAR 041B
ENCODING 1051
SWIDTH 664 0
DWIDTH 24 0
BBX 22 26 0 0
BITMAP
0FFFFC
0FFFFC
0FFFFC
0F001C
0F001C
0F001C
0F001C
0F001C
0F001C
0F001C
0F001C
0F001C
0F001C
0F001C
0F001C
0F001C
0F001C
0F001C
0F001C
0E001C
0E001C
1E001C
3C001C
FC001C
F8001C
E0001C
ENDCHAR
STARTCHAR 041C
ENCODING 1052
SWIDTH 830 0
DWIDTH 30 0
BBX 24 26 3 0
BITMAP
F8000F
F8001F
F8001F
FC001F
FC003F
FC003F
EE0037
EE0077
EE0077
E70067
E700E7
E700E7
E380C7
E381C7
E381C7
E1C187
E1C387
E1C387
E0E307
E0E707
E0E707
E07607
E07E07
E07E07
E03C07
E03C07
ENDCHAR
STARTCHAR 041D
ENCODING 1053
SWIDTH 720 0
DWIDTH 26 0
BBX 20 26 3 0
BITMAP
E00070
E00070
E00070
E00070
E00070
E00070
E00070
E00070
E00070
E00070
E00070
FFFFF0
FFFFF0
FFFFF0
E00070
E00070
E00070
E00070
E00070
E00070
E00070
E00070
E00070
E00070
E00070
E00070
ENDCHAR
STARTCHAR 041E
ENCODING 1054
SWIDTH 775 0
DWIDTH 28 0
BBX 26 26 1 0
BITMAP
007F8000
01FFF000
07FFF800
0FC0FC00
1F003E00
3C000F00
3C000F00
78000780
78000380
70000380
700003C0
F00003C0
F00003C0
F00003C0
F00003C0
700003C0
70000380
78000380
78000780
3C000700
3E000F00
1F003E00
0FC0FC00
07FFF800
01FFE000
007F8000
ENDCHAR
STARTCHAR 041F
ENCODING 1055
SWIDTH 720 0
DWIDTH 26 0
BBX 20 26 3 0
BITMAP
FFFFF0
FFFFF0
FFFFF0
E00070
E00070
E00070
E00070
E00070
E00070
E00070
E00070
E00070
E00070
E00070
E00070
E00070
E00070
E00070
E00070
E00070
E00070
E00070
E00070
E00070
E00070
E00070
ENDCHAR
STARTCHAR 0420
ENCODING 1056
SWIDTH 664 0
DWIDTH 24 0
BBX 19 26 3 0
BITMAP
FFFE00
FFFF80
FFFFC0
F007C0
F001E0
F001E0
F000E0
F000E0
F000E0
F001E0
F001E0
F007C0
FFFFC0
FFFF80
FFFE00
F00000
F00000
F00000
F00000
F00000
F00000
F00000
F00000
F00000
F00000
F00000
ENDCHAR
STARTCHAR 0421
ENCODING 1057
SWIDTH 720 0
DWIDTH 26 0
BBX 23 26 2 0
BITMAP
00FE00
03FFC0
0FFFE0
1F01F0
3E0078
38003C
78003C
70001C
F00000
E00000
E00000
E00000
E00000
E00000
E00000
E00000
E0001E
F0001E
70001C
78003C
78003C
3E0078
1F81F0
0FFFE0
07FFC0
00FE00
ENDCHAR
STARTCHAR 0422
ENCODING 1058
SWIDTH 609 0
DWIDTH 22 0
BBX 20 26 1 0
BITMAP
FFFFF0
FFFFF0
FFFFF0
00F000
00F000
00F000
00F000
00F000
00F000
00F000
00F000
00F000
00F000
00F000
00F000
00F000
00F000
00F000
00F000
00F000
00F000
00F000
00F000
00F000
00F000
00F000
ENDCHAR
STARTCHAR 0423
ENCODING 1059
SWIDTH 636 0
DWIDTH 23 0
BBX 21 26 1 0
BITMAP
F00078
F00078
780078
7800F0
3C00F0
3C01E0
1E01E0
1E01C0
0E03C0
0F0380
070780
078780
038700
03CF00
03CE00
01DE00
01FC00
00FC00
00FC00
007800
007800
007000
00F000
0FE000
0FE000
0F8000
ENDCHAR
STARTCHAR 0424
ENCODING 1060
SWIDTH 747 0
DWIDTH 27 0
BBX 25 26 1 0
BITMAP
001C0000
001C0000
001C0000
007F8000
03FFF000
0FFFFC00
1F1C7E00
3C1C1F00
781C0F00
701C0780
F01C0380
F01C0380
E01C0380
E01C0380
F01C0380
F01C0380
701C0780
781C0F00
3C1C1F00
1F1C7E00
0FFFFC00
07FFF000
00FF8000
001C0000
001C0000
001C0000
ENDCHAR
STARTCHAR 0425
ENCODING 1061
SWIDTH 664 0
DWIDTH 24 0
BBX 22 26 1 0
BITMAP
78003C
780078
3C00F0
1E00E0
1E01E0
0F03C0
078380
078780
03CF00
01EE00
00FE00
00FC00
007800
00FC00
00FC00
01FE00
03CF00
038700
078780
0F03C0
0E01E0
1E01E0
3C00F0
780078
780078
F0003C
ENDCHAR
STARTCHAR 0426
ENCODING 1062
SWIDTH 747 0
DWIDTH 27 0
BBX 22 32 3 -6
BITMAP
E00070
E00070
E00070
E00070
E00070
E00070
E00070
E00070
E00070
E00070
E00070
E00070
E00070
E00070
E00070
E00070
E00070
E00070
E00070
E00070
E00070
E00070
E00070
FFFFFC
FFFFFC
FFFFFC
00001C
00001C
00001C
00001C
00001C
00001C
ENDCHAR
STARTCHAR 0427
ENCODING 1063
SWIDTH 664 0
DWIDTH 24 0
BBX 20 26 2 0
BITMAP
E000F0
E000F0
E000F0
E000F0
E000F0
E000F0
E000F0
E000F0
E000F0
E000F0
E000F0
E000F0
F000F0
FC01F0
7FFFF0
3FFFF0
07FCF0
0000F0
0000F0
0000F0
0000F0
0000F0
0000F0
0000F0
0000F0
0000F0
ENDCHAR
STARTCHAR 0428
ENCODING 1064
SWIDTH 913 0
DWIDTH 33 0
BBX 29 26 2 0
BITMAP
E0070038
E0070038
E0070038
E0070038
E0070038
E0070038
E0070038
E0070038
E0070038
E0070038
E0070038
E0070038
E0070038
E0070038
E0070038
E0070038
E0070038
E0070038
E0070038
E0070038
E0070038
E0070038
E0070038
FFFFFFF8
FFFFFFF8
FFFFFFF8
ENDCHAR
STARTCHAR 0429
ENCODING 1065
SWIDTH 941 0
DWIDTH 34 0
BBX 32 32 2 -6
BITMAP
E007003C
E007003C
E007003C
E007003C
E007003C
E007003C
E007003C
E007003C
E007003C
E007003C
E007003C
E007003C
E007003C
E007003C
E007003C
E007003C
E007003C
E007003C
E007003C
E007003C
E007003C
E007003C
E007003C
FFFFFFFF
FFFFFFFF
FFFFFFFF
0000000F
0000000F
0000000F
0000000F
0000000F
0000000F
ENDCHAR
STARTCHAR 042A
ENCODING 1066
SWIDTH 803 0
DWIDTH 29 0
BBX 29 26 -1 0
BITMAP
FFF80000
FFF80000
FFF80000
00380000
00380000
00380000
00380000
00380000
00380000
00380000
00380000
003FFF00
003FFFC0
003FFFE0
003801F0
003800F0
00380070
00380070
00380078
00380070
00380070
003800F0
003801F0
003FFFE0
003FFFC0
003FFF00
ENDCHAR
STARTCHAR 042B
ENCODING 1067
SWIDTH 886 0
DWIDTH 32 0
BBX 26 26 3 0
BITMAP
E00003C0
E00003C0
E00003C0
E00003C0
E00003C0
E00003C0
E00003C0
E00003C0
E00003C0
E00003C0
E00003C0
FFFE03C0
FFFF83C0
FFFFC3C0
E003E3C0
E001E3C0
E000F3C0
E000F3C0
E000F3C0
E000F3C0
E000F3C0
E001E3C0
E003E3C0
FFFFC3C0
FFFF83C0
FFFE03C0
ENDCHAR
STARTCHAR 042C
ENCODING 1068
SWIDTH 664 0
DWIDTH 24 0
BBX 19 26 3 0
BITMAP
E00000
E00000
E00000
E00000
E00000
E00000
E00000
E00000
E00000
E00000
E00000
FFFE00
FFFF80
FFFFC0
E003E0
E001E0
E000E0
E000E0
E000E0
E000E0
E000E0
E001E0
E003E0
FFFFC0
FFFF80
FFFE00
ENDCHAR
STARTCHAR 042D
ENCODING 1069
SWIDTH 720 0
DWIDTH 26 0
BBX 24 26 1 0
BITMAP
00FF00
07FFC0
0FFFF0
1F01F8
3C007C
78003E
70001E
F0000F
00000F
000007
000007
003FFF
003FFF
003FFF
000007
000007
600007
E0000F
F0000E
70001E
78003C
3C007C
1F81F8
0FFFF0
07FFC0
00FE00
ENDCHAR
STARTCHAR 042E
ENCODING 1070
SWIDTH 996 0
DWIDTH 36 0
BBX 32 26 3 0
BITMAP
E0007F00
E003FFC0
E007FFF0
E00F81F8
E01E007C
E03C003C
E038001E
E078001E
E070000E
E070000F
E070000F
FFF00007
FFF00007
FFF00007
E0F00007
E070000F
E070000F
E078000E
E078000E
E03C001E
E03C003C
E01F007C
E00F81F8
E007FFF0
E003FFC0
E0007F00
ENDCHAR
STARTCHAR 042F
ENCODING 1071
SWIDTH 720 0
DWIDTH 26 0
BBX 21 26 2 0
BITMAP
07FFF8
1FFFF8
3FFFF8
3C0078
780078
780078
700078
700078
700078
780078
380078
3E0078
1FFFF8
07FFF8
1FFFF8
3C0078
380078
780078
780078
780078
780078
780078
780078
780078
700078
F00078
ENDCHAR
STARTCHAR 0430
ENCODING 1072
SWIDTH 553 0
DWIDTH 20 0
BBX 17 19 2 0
BITMAP
07F000
1FFC00
7FFC00
781E00
700E00
E00E00
000E00
001E00
0FFE00
3FFE00
7E0E00
F00E00
E00E00
E00E00
E01E00
F03E00
FFFF80
7FEF80
1F0780
ENDCHAR
STARTCHAR 0431
ENCODING 1073
SWIDTH 581 0
DWIDTH 21 0
BBX 17 28 2 0
BITMAP
001C00
001C00
003C00
003800
01F800
0FF000
1FC000
3C0000
380000
73E000
6FF800
FFFE00
FC1E00
F00F00
F00700
E00780
E00380
E00380
E00380
E00380
E00380
E00780
F00700
700F00
7C1E00
3FFE00
1FF800
07E000
ENDCHAR
STARTCHAR 0432
ENCODING 1074
SWIDTH 526 0
DWIDTH 19 0
BBX 16 19 2 0
BITMAP
FFF0
FFFC
FFFE
E00E
E00E
E00E
E00E
FFFC
FFF8
FFFE
E00F
E007
E007
E007
E007
E00F
FFFE
FFFE
FFF8
ENDCHAR
STARTCHAR 0433
ENCODING 1075
SWIDTH 360 0
DWIDTH 13 0
BBX 12 19 2 0
BITMAP
FFF0
FFF0
FFF0
E000
E000
E000
E000
E000
E000
E000
E000
E000
E000
E000
E000
E000
E000
E000
E000
ENDCHAR
STARTCHAR 0434
ENCODING 1076
SWIDTH 581 0
DWIDTH 21 0
BBX 19 23 1 -4
BITMAP
07FF80
07FF80
07FF80
070380
070380
070380
070380
070380
070380
0F0380
0E0380
0E0380
1E0380
1C0380
3C0380
780380
FFFFE0
FFFFE0
FFFFE0
E000E0
E000E0
E000E0
E000E0
ENDCHAR
STARTCHAR 0435
ENCODING 1077
SWIDTH 553 0
DWIDTH 20 0
BBX 17 19 2 0
BITMAP
07E000
1FF800
3FFC00
781E00
700F00
E00700
E00700
E00780
FFFF80
FFFF80
E00000
E00000
E00000
E00700
700F00
781E00
3FFC00
1FF800
07E000
ENDCHAR
STARTCHAR 0436
ENCODING 1078
SWIDTH 664 0
DWIDTH 24 0
BBX 24 19 0 0
BITMAP
781C1E
381C1C
3C1C3C
1C1C38
1E1C78
0E1C70
0F1CF0
07FFE0
07FFE0
07FFE0
0F1CF0
0E1C70
1E1C78
1C1C38
3C1C1C
781C1E
701C0E
F01C0F
E01C07
ENDCHAR
STARTCHAR 0437
ENCODING 1079
SWIDTH 470 0
DWIDTH 17 0
BBX 13 19 2 0
BITMAP
0F80
3FE0
7FF0
70F0
E078
E078
0070
00F0
07E0
07C0
07F0
0078
0038
E038
E038
F070
FFF0
7FE0
1F80
ENDCHAR
STARTCHAR 0438
ENCODING 1080
SWIDTH 553 0
DWIDTH 20 0
BBX 14 19 3 0
BITMAP
E01C
E01C
E01C
E03C
E07C
E0FC
E0FC
E1DC
E39C
E79C
E71C
EE1C
FC1C
FC1C
F81C
F01C
F01C
E01C
E01C
ENDCHAR
STARTCHAR 0439
ENCODING 1081
SWIDTH 553 0
DWIDTH 20 0
BBX 14 26 3 0
BITMAP
3030
3870
3FF0
1FE0
0000
0000
0000
E01C
E01C
E01C
E03C
E07C
E0FC
E0FC
E1DC
E39C
E79C
E71C
EE1C
FC1C
FC1C
F81C
F01C
F01C
E01C
E01C
ENDCHAR
STARTCHAR 043A
ENCODING 1082
SWIDTH 443 0
DWIDTH 16 0
BBX 16 19 1 0
BITMAP
E01C
E03C
E038
E078
E070
E0F0
E0E0
FFE0
FFC0
FFC0
E1E0
E0F0
E070
E078
E038
E03C
E01E
E00E
E00F
ENDCHAR
STARTCHAR 043B
ENCODING 1083
SWIDTH 581 0
DWIDTH 21 0
BBX 17 19 1 0
BITMAP
1FFF80
1FFF80
1FFF80
1C0380
1C0380
1C0380
1C0380
1C0380
1C0380
1C0380
1C0380
1C0380
1C0380
1C0380
3C0380
380380
F80380
F00380
C00380
ENDCHAR
STARTCHAR 043C
ENCODING 1084
SWIDTH 692 0
DWIDTH 25 0
BBX 21 19 2 0
BITMAP
F000F8
F800F8
F800F8
F801F8
FC01F8
EC03B8
EE03B8
EE0338
E60738
E70738
E30638
E38E38
E38C38
E19C38
E1DC38
E1D838
E0F838
E0F838
E07038
ENDCHAR
STARTCHAR 043D
ENCODING 1085
SWIDTH 553 0
DWIDTH 20 0
BBX 14 19 3 0
BITMAP
E01C
E01C
E01C
E01C
E01C
E01C
E01C
FFFC
FFFC
FFFC
E01C
E01C
E01C
E01C
E01C
E01C
E01C
E01C
E01C
ENDCHAR
STARTCHAR 043E
ENCODING 1086
SWIDTH 553 0
DWIDTH 20 0
BBX 18 19 1 0
BITMAP
03F000
0FFC00
1FFE00
3C0F00
380780
700380
700380
700380
7003C0
F003C0
7003C0
700380
700380
780380
780780
3C0F00
1FFE00
0FFC00
03F000
ENDCHAR
STARTCHAR 043F
ENCODING 1087
SWIDTH 553 0
DWIDTH 20 0
BBX 14 19 3 0
BITMAP
FFFC
FFFC
FFFC
E01C
E01C
E01C
E01C
E01C
E01C
E01C
E01C
E01C
E01C
E01C
E01C
E01C
E01C
E01C
E01C
ENDCHAR
STARTCHAR 0440
ENCODING 1088
SWIDTH 553 0
DWIDTH 20 0
BBX 17 26 2 -7
BITMAP
E3F000
E7FC00
EFFE00
FC1F00
F80F00
F00700
F00780
E00380
E00380
E00380
E00380
E00380
F00780
F00700
F80F00
FC1E00
FFFE00
EFFC00
E3F000
E00000
E00000
E00000
E00000
E00000
E00000
E00000
ENDCHAR
STARTCHAR 0441
ENCODING 1089
SWIDTH 498 0
DWIDTH 18 0
BBX 16 19 1 0
BITMAP
03F0
0FF8
1FFE
3C1E
780F
7007
F007
E000
E000
E000
E000
E000
F007
7007
780F
3C1E
3FFC
1FF8
07E0
ENDCHAR
STARTCHAR 0442
ENCODING 1090
SWIDTH 470 0
DWIDTH 17 0
BBX 14 19 1 0
BITMAP
FFFC
FFFC
FFFC
0380
0380
0380
0380
0380
0380
0380
0380
0380
0380
0380
0380
0380
0380
0380
0380
ENDCHAR
STARTCHAR 0443
ENCODING 1091
SWIDTH 498 0
DWIDTH 18 0
BBX 16 27 1 -8
BITMAP
E007
F007
700E
700E
781E
381C
381C
383C
1C38
1C38
1C70
0E70
0E70
0EE0
07E0
07E0
07C0
03C0
03C0
0380
0380
0700
0700
0F00
7E00
7C00
7800
ENDCHAR
STARTCHAR 0444
ENCODING 1092
SWIDTH 830 0
DWIDTH 30 0
BBX 24 32 3 -8
BITMAP
003800
003800
003800
003800
003800
03FFC0
0FFFF0
3FB9F8
3C383C
78381E
F0380E
E03807
E03807
E03807
E03807
E03807
E03807
E03807
F0380F
70380E
78383E
3E38FC
1FFFF8
07FFE0
00FF00
003800
003800
003800
003800
003800
003800
003800
ENDCHAR
STARTCHAR 0445
ENCODING 1093
SWIDTH 498 0
DWIDTH 18 0
BBX 16 19 1 0
BITMAP
F00F
780E
381C
3C3C
1E38
0E70
0FF0
07E0
03C0
03C0
03E0
07E0
0F70
0E78
1C38
3C3C
381E
700E
F00F
ENDCHAR
STARTCHAR 0446
ENCODING 1094
SWIDTH 581 0
DWIDTH 21 0
BBX 16 25 3 -6
BITMAP
E01C
E01C
E01C
E01C
E01C
E01C
E01C
E01C
E01C
E01C
E01C
E01C
E01C
E01C
E01C
E01C
FFFF
FFFF
FFFF
0007
0007
0007
0007
0007
0007
ENDCHAR
STARTCHAR 0447
ENCODING 1095
SWIDTH 526 0
DWIDTH 19 0
BBX 14 19 2 0
BITMAP
E01C
E01C
E01C
E01C
E01C
E01C
E01C
E01C
E01C
F03C
7FFC
3FFC
0F9C
001C
001C
001C
001C
001C
001C
ENDCHAR
STARTCHAR 0448
ENCODING 1096
SWIDTH 803 0
DWIDTH 29 0
BBX 25 19 2 0
BITMAP
E01C0380
E01C0380
E01C0380
E01C0380
E01C0380
E01C0380
E01C0380
E01C0380
E01C0380
E01C0380
E01C0380
E01C0380
E01C0380
E01C0380
E01C0380
E01C0380
FFFFFF80
FFFFFF80
FFFFFF80
ENDCHAR
STARTCHAR 0449
ENCODING 1097
SWIDTH 830 0
DWIDTH 30 0
BBX 25 25 3 -6
BITMAP
E0380700
E0380700
E0380700
E0380700
E0380700
E0380700
E0380700
E0380700
E0380700
E0380700
E0380700
E0380700
E0380700
E0380700
E0380700
E0380700
FFFFFF80
FFFFFF80
FFFFFF80
00000380
00000380
00000380
00000380
00000380
00000380
ENDCHAR
STARTCHAR 044A
ENCODING 1098
SWIDTH 636 0
DWIDTH 23 0
BBX 23 19 -1 0
BITMAP
FFE000
FFE000
FFE000
00E000
00E000
00E000
00E000
00FFC0
00FFF8
00FFFC
00E01C
00E01E
00E00E
00E00E
00E00E
00E01E
00FFFC
00FFF8
00FFF0
ENDCHAR
STARTCHAR 044B
ENCODING 1099
SWIDTH 720 0
DWIDTH 26 0
BBX 20 19 3 0
BITMAP
E00070
E00070
E00070
E00070
E00070
E00070
E00070
FFC070
FFF870
FFFC70
E01E70
E00E70
E00E70
E00E70
E00E70
E01E70
FFFC70
FFF870
FFF070
ENDCHAR
STARTCHAR 044C
ENCODING 1100
SWIDTH 526 0
DWIDTH 19 0
BBX 16 19 2 0
BITMAP
F000
F000
F000
F000
F000
F000
F000
FFE0
FFFC
FFFE
F01E
F00E
F00F
F00F
F00F
F00E
FFFE
FFFC
FFF0
ENDCHAR
STARTCHAR 044D
ENCODING 1101
SWIDTH 498 0
DWIDTH 18 0
BBX 17 19 1 0
BITMAP
07E000
1FF800
3FFC00
781E00
700F00
F00700
000700
000700
01FF80
01FF80
01FF80
000780
E00700
F00700
F00F00
781E00
3FFC00
1FF800
07E000
ENDCHAR
STARTCHAR 044E
ENCODING 1102
SWIDTH 747 0
DWIDTH 27 0
BBX 24 19 2 0
BITMAP
E007E0
E01FF8
E07FFC
E0783E
E0F00E
E0E00F
E1E007
FFC007
FFC007
FFC007
E1C007
E1E007
E0E007
E0E00F
E0F00E
E0783E
E07FFC
E01FF8
E007E0
ENDCHAR
STARTCHAR 044F
ENCODING 1103
SWIDTH 553 0
DWIDTH 20 0
BBX 15 19 2 0
BITMAP
1FFE
3FFE
7FFE
F00E
E00E
E00E
E00E
E00E
F00E
7FFE
3FFE
3FFE
780E
700E
700E
700E
700E
700E
F00E
ENDCHAR
STARTCHAR 0450
ENCODING 1104
SWIDTH 553 0
DWIDTH 20 0
BBX 18 26 1 0
BITMAP
070000
038000
01C000
00C000
006000
000000
000000
03F000
0FFC00
1FFE00
3C0F00
380780
700380
700380
700380
7FFF80
FFFFC0
F00000
700000
700000
700380
780780
3C0F00
1FFE00
0FFC00
03F000
ENDCHAR
STARTCHAR 0451
ENCODING 1105
SWIDTH 553 0
DWIDTH 20 0
BBX 17 26 2 0
BITMAP
1E7800
1E7800
1E7800
1E7800
000000
000000
000000
07E000
1FF800
3FFC00
781E00
700F00
E00700
E00700
E00780
FFFF80
FFFF80
E00000
E00000
E00000
E00700
700F00
781E00
3FFC00
1FF800
07E000
ENDCHAR
STARTCHAR 0452
ENCODING 1106
SWIDTH 553 0
DWIDTH 20 0
BBX 19 31 -1 -5
BITMAP
0E0000
0E0000
FFE000
FFE000
FFE000
0E0000
0E0000
0E1F00
0E7F80
0EFFC0
0FC1C0
0F81E0
0F00E0
0E00E0
0E00E0
0E00E0
0E00E0
0E00E0
0E00E0
0E00E0
0E00E0
0E00E0
0E00E0
0E00E0
0E00E0
0E00E0
0001C0
0003C0
00FF80
00FF00
00FC00
ENDCHAR
STARTCHAR 0453
ENCODING 1107
SWIDTH 360 0
DWIDTH 13 0
BBX 12 26 2 0
BITMAP
03C0
0780
0700
0E00
1C00
0000
0000
FFF0
FFF0
FFF0
E000
E000
E000
E000
E000
E000
E000
E000
E000
E000
E000
E000
E000
E000
E000
E000
ENDCHAR
STARTCHAR 0454
ENCODING 1108
SWIDTH 498 0
DWIDTH 18 0
BBX 17 19 1 0
BITMAP
07F000
1FF800
3FFE00
3C1E00
700F00
700700
E00400
E00000
FFC000
FFC000
FFC000
E00000
E00780
F00700
700F00
7C1E00
3FFE00
1FF800
07F000
ENDCHAR
STARTCHAR 0455
ENCODING 1109
SWIDTH 498 0
DWIDTH 18 0
BBX 16 19 1 0
BITMAP
07E0
1FF8
3FFC
781E
701E
700E
7000
7C00
3FC0
1FF8
01FE
001E
000F
F00F
F00E
781E
7FFC
3FF8
0FE0
ENDCHAR
STARTCHAR 0456
ENCODING 1110
SWIDTH 221 0
DWIDTH 8 0
BBX 4 26 2 0
BITMAP
F0
F0
F0
F0
00
00
00
F0
F0
F0
F0
F0
F0
F0
F0
F0
F0
F0
F0
F0
F0
F0
F0
F0
F0
F0
ENDCHAR
STARTCHAR 0457
ENCODING 1111
SWIDTH 276 0
DWIDTH 10 0
BBX 10 26 0 0
BITMAP
F3C0
F3C0
F3C0
F3C0
0000
0000
0000
0E00
0E00
0E00
0E00
0E00
0E00
0E00
0E00
0E00
0E00
0E00
0E00
0E00
0E00
0E00
0E00
0E00
0E00
0E00
ENDCHAR
STARTCHAR 0458
ENCODING 1112
SWIDTH 221 0
DWIDTH 8 0
BBX 7 34 -1 -8
BITMAP
1E
1E
1E
1E
00
00
00
1E
1E
1E
1E
1E
1E
1E
1E
1E
1E
1E
1E
1E
1E
1E
1E
1E
1E
1E
1E
1E
1E
1E
1C
FC
F8
E0
ENDCHAR
STARTCHAR 0459
ENCODING 1113
SWIDTH 913 0
DWIDTH 33 0
BBX 30 19 1 0
BITMAP
1FFF8000
1FFF8000
1FFF8000
1C038000
1C038000
1C038000
1C038000
1C03FF00
1C03FFE0
1C03FFF0
1C038078
1C038038
1C03803C
1C03803C
3C038038
38038038
F803FFF8
F003FFF0
C003FFC0
ENDCHAR
STARTCHAR 045A
ENCODING 1114
SWIDTH 803 0
DWIDTH 29 0
BBX 27 19 2 0
BITMAP
E00E0000
E00E0000
E00E0000
E00E0000
E00E0000
E00E0000
E00E0000
FFFFFC00
FFFFFF80
FFFFFFC0
E00E03C0
E00E01E0
E00E00E0
E00E00E0
E00E01E0
E00E01C0
E00FFFC0
E00FFF80
E00FFE00
ENDCHAR
STARTCHAR 045B
ENCODING 1115
SWIDTH 553 0
DWIDTH 20 0
BBX 19 26 -1 0
BITMAP
0E0000
0E0000
FFE000
FFE000
FFE000
0E0000
0E0000
0E1F00
0E7F80
0EFFC0
0FC1C0
0F81E0
0F00E0
0E00E0
0E00E0
0E00E0
0E00E0
0E00E0
0E00E0
0E00E0
0E00E0
0E00E0
0E00E0
0E00E0
0E00E0
0E00E0
ENDCHAR
STARTCHAR 045C
ENCODING 1116
SWIDTH 443 0
DWIDTH 16 0
BBX 16 26 1 0
BITMAP
01E0
01C0
0380
0700
0600
0000
0000
E01C
E03C
E038
E078
E070
E0F0
E0E0
FFE0
FFC0
FFC0
E1E0
E0F0
E070
E078
E038
E03C
E01E
E00E
E00F
ENDCHAR
STARTCHAR 045D
ENCODING 1117
SWIDTH 553 0
DWIDTH 20 0
BBX 14 26 3 0
BITMAP
3C00
1E00
0E00
0700
0380
0000
0000
E01C
E01C
E01C
E03C
E07C
E0FC
E0FC
E1DC
E39C
E79C
E71C
EE1C
FC1C
FC1C
F81C
F01C
F01C
E01C
E01C
ENDCHAR
STARTCHAR 045E
ENCODING 1118
SWIDTH 498 0
DWIDTH 18 0
BBX 16 34 1 -8
BITMAP
1818
1C38
1FF8
0FF0
0000
0000
0000
E007
F007
700E
700E
781E
381C
381C
383C
1C38
1C38
1C70
0E70
0E70
0EE0
07E0
07E0
07C0
03C0
03C0
0380
0380
0700
0700
0F00
7E00
7C00
7800
ENDCHAR
STARTCHAR 045F
ENCODING 1119
SWIDTH 553 0
DWIDTH 20 0
BBX 14 25 3 -6
BITMAP
E01C
E01C
E01C
E01C
E01C
E01C
E01C
E01C
E01C
E01C
E01C
E01C
E01C
E01C
E01C
E01C
FFFC
FFFC
FFFC
0380
0380
0380
0380
0380
0380
ENDCHAR
STARTCHAR 0462
ENCODING 1122
SWIDTH 775 0
DWIDTH 28 0
BBX 26 26 0 0
BITMAP
01C00000
01C00000
01C00000
FFFF8000
FFFF8000
FFFF8000
01C00000
01C00000
01C00000
01C00000
01C00000
01FFFC00
01FFFF00
01FFFF80
01C00FC0
01C003C0
01C001C0
01C001C0
01C001C0
01C001C0
01C001C0
01C003C0
01C00780
01FFFF80
01FFFF00
01FFFC00
ENDCHAR
STARTCHAR 0463
ENCODING 1123
SWIDTH 609 0
DWIDTH 22 0
BBX 18 24 2 0
BITMAP
1C0000
1C0000
1C0000
1C0000
1C0000
FF8000
FF8000
3C0000
3C0000
3C0000
3C0000
3C0000
3FF800
3FFF00
3FFF80
3C0780
3C0380
3C03C0
3C03C0
3C03C0
3C0380
3FFF80
3FFF00
3FFC00
ENDCHAR
STARTCHAR 0472
ENCODING 1138
SWIDTH 775 0
DWIDTH 28 0
BBX 26 26 1 0
BITMAP
007F8000
01FFE000
07FFF800
0FC0FC00
1F003E00
3E001F00
3C000F00
78000780
78000780
70000380
700003C0
F3F003C0
FFFC03C0
FFFFFFC0
F01FFFC0
F007E3C0
70000380
78000380
78000780
3C000700
3C000F00
1F001E00
0FC07C00
07FFF800
01FFE000
007F8000
ENDCHAR
STARTCHAR 0473
ENCODING 1139
SWIDTH 553 0
DWIDTH 20 0
BBX 18 19 1 0
BITMAP
03F000
0FFC00
1FFE00
3C0F00
380780
700380
700380
730380
7FC3C0
FFFFC0
70FFC0
707B80
700380
700380
780780
3C0F00
1FFE00
0FFC00
03F000
ENDCHAR
STARTCHAR 0474
ENCODING 1140
SWIDTH 803 0
DWIDTH 29 0
BBX 24 26 3 0
BITMAP
F0001F
70003F
78007F
780079
380070
3C00F0
3C00E0
1C00E0
1E00E0
1E01C0
0E01C0
0F01C0
070380
070380
078380
038700
038700
03C700
01C700
01CE00
01EE00
00EE00
00FC00
007C00
007C00
007800
ENDCHAR
STARTCHAR 0475
ENCODING 1141
SWIDTH 636 0
DWIDTH 23 0
BBX 17 19 3 0
BITMAP
E00780
F00F80
700F80
701C00
781C00
381C00
383800
3C3800
1C3800
1C3800
1E3000
0E7000
0E7000
076000
076000
07E000
03C000
03C000
03C000
ENDCHAR
STARTCHAR 0490
ENCODING 1168
SWIDTH 498 0
DWIDTH 18 0
BBX 21 31 2 0
BITMAP
000078
0000E0
0001C0
000180
000300
FFFF00
FFFF00
FFFF00
E00000
E00000
E00000
E00000
E00000
E00000
E00000
E00000
E00000
E00000
E00000
E00000
E00000
E00000
E00000
E00000
E00000
E00000
E00000
E00000
E00000
E00000
E00000
ENDCHAR
STARTCHAR 0491
ENCODING 1169
SWIDTH 415 0
DWIDTH 15 0
BBX 16 24 3 0
BITMAP
000F
000E
001C
0038
0030
FFF0
FFF0
FFF0
E000
E000
E000
E000
E000
E000
E000
E000
E000
E000
E000
E000
E000
E000
E000
E000
ENDCHAR
STARTCHAR 0492
ENCODING 1170
SWIDTH 526 0
DWIDTH 19 0
BBX 18 26 1 0
BITMAP
3FFFC0
3FFFC0
3FFFC0
380000
380000
380000
380000
380000
380000
380000
380000
FFFE00
FFFE00
FFFE00
380000
380000
380000
380000
380000
380000
380000
380000
380000
380000
380000
380000
ENDCHAR
STARTCHAR 0493
ENCODING 1171
SWIDTH 387 0
DWIDTH 14 0
BBX 13 19 1 0
BITMAP
3FF8
3FF8
3FF8
3800
3800
3800
3800
FFC0
FFC0
FFC0
3800
3800
3800
3800
3800
3800
3800
3800
3800
ENDCHAR
STARTCHAR 0496
ENCODING 1174
SWIDTH 1024 0
DWIDTH 37 0
BBX 37 31 0 -5
BITMAP
3C00E00380
3C00E00780
1E00E00F00
0E00E00E00
0F00E01E00
0780E01C00
0780E03C00
03C0E07800
01C0E07800
01E0E0F000
00F0E0E000
00FFFFE000
007FFFC000
00FFFFE000
00F0E0E000
01E0E0F000
03C0E07800
03C0E03C00
0780E03C00
0F00E01E00
0F00E00F00
1E00E00F00
3C00E00780
3C00E003F8
7800E001F8
F000E001F8
0000000078
0000000078
0000000078
0000000078
0000000078
ENDCHAR
STARTCHAR 0497
ENCODING 1175
SWIDTH 830 0
DWIDTH 30 0
BBX 30 24 0 -5
BITMAP
380701C0
3C0703C0
1C070380
1E070780
0E070700
0F070F00
07870E00
07FFFE00
03FFFC00
03FFFE00
07870E00
0F070F00
0E070780
1E070780
1C0703C0
3C0701C0
380701FC
780700FC
F00700FC
0000003C
0000003C
0000003C
0000003C
0000003C
ENDCHAR
STARTCHAR 0498
ENCODING 1176
SWIDTH 609 0
DWIDTH 22 0
BBX 18 33 2 -7
BITMAP
03F000
0FFC00
1FFE00
3E1F00
380780
780780
700380
700380
700780
000700
000F00
01FE00
01FC00
01FE00
001F00
000780
000380
0003C0
F003C0
F003C0
F003C0
700380
780780
3E0F00
3FFF00
0FFC00
03F000
018000
01E000
01F000
003000
0C7000
0FE000
ENDCHAR
STARTCHAR 0499
ENCODING 1177
SWIDTH 470 0
DWIDTH 17 0
BBX 13 26 2 -7
BITMAP
0F80
3FE0
7FF0
70F0
E078
E078
E070
0070
07E0
07C0
07E0
00F0
0078
E038
E038
E078
F0F0
7FF0
3FE0
0F00
0400
0780
01C0
01C0
21C0
3F80
ENDCHAR
STARTCHAR 049A
ENCODING 1178
SWIDTH 664 0
DWIDTH 24 0
BBX 20 32 3 -6
BITMAP
E00F00
E01E00
E01E00
E03C00
E03800
E07800
E07000
E0F000
E1E000
E1C000
E3C000
FF8000
FF8000
FF8000
E3C000
E1E000
E0E000
E0F000
E07800
E03800
E03C00
E01E00
E00E00
E00FF0
E007F0
E003F0
0000F0
0000F0
0000F0
0000F0
0000F0
0000F0
ENDCHAR
STARTCHAR 049B
ENCODING 1179
SWIDTH 526 0
DWIDTH 19 0
BBX 16 25 3 -6
BITMAP
E038
E078
E070
E0F0
E0E0
E1E0
E1C0
FFC0
FF80
FFC0
E1C0
E1E0
E0E0
E0F0
E070
E038
E03C
E01F
E01F
0007
0007
0007
0007
0007
0007
ENDCHAR
STARTCHAR 049C
ENCODING 1180
SWIDTH 609 0
DWIDTH 22 0
BBX 19 26 3 0
BITMAP
E00780
E00780
E00F00
E00E00
E61E00
E61C00
E63C00
E67800
E67800
E6F000
E6E000
FFE000
FFC000
FFE000
E6E000
E6F000
E67800
E63800
E63C00
E61E00
E00F00
E00F00
E00780
E003C0
E003C0
E001E0
ENDCHAR
STARTCHAR 049D
ENCODING 1181
SWIDTH 498 0
DWIDTH 18 0
BBX 15 19 3 0
BITMAP
E038
E078
E070
ECF0
ECE0
EDE0
EDC0
FFC0
FF80
FFC0
EDC0
EDE0
ECE0
ECF0
EC78
E038
E03C
E01C
E01E
ENDCHAR
STARTCHAR 04A0
ENCODING 1184
SWIDTH 581 0
DWIDTH 21 0
BBX 28 26 -8 0
BITMAP
FFFC03C0
FFFC0380
FFFC0780
003C0F00
003C0F00
003C1E00
003C1C00
003C3C00
003C7800
003C7800
003CF000
003FE000
003FE000
003FE000
003CF000
003C7800
003C3800
003C3C00
003C1E00
003C0E00
003C0F00
003C0780
003C03C0
003C03C0
003C01E0
003C00F0
ENDCHAR
STARTCHAR 04A1
ENCODING 1185
SWIDTH 443 0
DWIDTH 16 0
BBX 23 19 -6 0
BITMAP
FFC038
FFC078
FFC070
01C0F0
01C0E0
01C1E0
01C1C0
01FFC0
01FF80
01FF80
01C3C0
01C1E0
01C0E0
01C0F0
01C070
01C078
01C03C
01C01C
01C01E
ENDCHAR
STARTCHAR 04A2
ENCODING 1186
SWIDTH 720 0
DWIDTH 26 0
BBX 22 32 3 -6
BITMAP
E00070
E00070
E00070
E00070
E00070
E00070
E00070
E00070
E00070
E00070
E00070
FFFFF0
FFFFF0
FFFFF0
E00070
E00070
E00070
E00070
E00070
E00070
E00070
E00070
E00070
E0007C
E0007C
E0007C
00001C
00001C
00001C
00001C
00001C
00001C
ENDCHAR
STARTCHAR 04A3
ENCODING 1187
SWIDTH 553 0
DWIDTH 20 0
BBX 16 25 3 -6
BITMAP
E01C
E01C
E01C
E01C
E01C
E01C
E01C
FFFC
FFFC
FFFC
E01C
E01C
E01C
E01C
E01C
E01C
E01F
E01F
E01F
0007
0007
0007
0007
0007
0007
ENDCHAR
STARTCHAR 04AA
ENCODING 1194
SWIDTH 720 0
DWIDTH 26 0
BBX 22 33 2 -7
BITMAP
00FF00
03FFC0
0FFFE0
1F01F0
3E00F8
3C0078
780038
70003C
F00000
F00000
E00000
E00000
E00000
E00000
E00000
E00000
E00000
F0001C
F0001C
70003C
78003C
3C0078
3E00F8
1F81F0
0FFFE0
03FFC0
00FE00
003000
003C00
003E00
000600
018E00
01FC00
ENDCHAR
STARTCHAR 04AB
ENCODING 1195
SWIDTH 498 0
DWIDTH 18 0
BBX 16 26 1 -7
BITMAP
03F0
0FF8
1FFE
3C1E
780F
7007
7007
F000
E000
E000
E000
E000
F000
7007
7007
780F
3C1E
1FFC
0FF8
03E0
0180
01F0
0070
0030
0C70
0FE0
ENDCHAR
STARTCHAR 04AE
ENCODING 1198
SWIDTH 664 0
DWIDTH 24 0
BBX 23 26 1 0
BITMAP
F0001E
F8003C
780078
3C0078
3C00F0
1E00E0
0F01E0
0F03C0
0783C0
038780
03C700
01EF00
01FE00
00FC00
007C00
007800
003800
003800
003800
003800
003800
003800
003800
003800
003800
003800
ENDCHAR
STARTCHAR 04AF
ENCODING 1199
SWIDTH 498 0
DWIDTH 18 0
BBX 16 27 1 -8
BITMAP
E007
F007
700E
700E
780E
381C
381C
3C1C
1C38
1C38
1E38
0E70
0E70
07F0
07E0
07E0
03C0
03C0
03C0
01C0
01C0
01C0
01C0
01C0
01C0
01C0
01C0
ENDCHAR
STARTCHAR 04B0
ENCODING 1200
SWIDTH 664 0
DWIDTH 24 0
BBX 23 26 1 0
BITMAP
F0001E
F8003C
780078
3C0078
3C00F0
1E00E0
0F01E0
0F03C0
0783C0
038780
03C700
01EF00
01FE00
00FC00
007C00
007800
003800
003800
0FFFC0
0FFFC0
0FFFC0
003800
003800
003800
003800
003800
ENDCHAR
STARTCHAR 04B1
ENCODING 1201
SWIDTH 498 0
DWIDTH 18 0
BBX 16 27 1 -8
BITMAP
E007
F007
700E
700E
780E
381C
381C
3C1C
1C38
1C38
1E38
0E70
0E70
07F0
07E0
07E0
03C0
03C0
03C0
3FFC
3FFC
01C0
01C0
01C0
01C0
01C0
01C0
ENDCHAR
STARTCHAR 04B2
ENCODING 1202
SWIDTH 720 0
DWIDTH 26 0
BBX 24 32 1 -6
BITMAP
78003C
780078
3C00F0
1E00E0
1E01E0
0F03C0
078380
078780
03CF00
01EE00
00FE00
00FC00
007800
00FC00
00FC00
01FE00
03CF00
038700
078780
0F03C0
0E01E0
1E01E0
3C00F0
78007F
78007F
F0003F
00000F
00000F
00000F
00000F
00000F
00000F
ENDCHAR
STARTCHAR 04B3
ENCODING 1203
SWIDTH 526 0
DWIDTH 19 0
BBX 17 25 1 -6
BITMAP
F00F00
700E00
381C00
3C3C00
1C3800
0E7000
0FE000
07E000
03C000
03C000
07C000
07E000
0EF000
1E7000
1C3800
383C00
781C00
700F80
E00F80
000380
000380
000380
000380
000380
000380
ENDCHAR
STARTCHAR 04B6
ENCODING 1206
SWIDTH 692 0
DWIDTH 25 0
BBX 22 32 2 -6
BITMAP
F00070
F00070
F00070
F00070
F00070
F00070
F00070
F00070
F00070
F00070
F00070
F00070
780070
7C01F0
3FFFF0
1FFFF0
07FC70
000070
000070
000070
000070
000070
000070
00007C
00007C
00007C
00001C
00001C
00001C
00001C
00001C
00001C
ENDCHAR
STARTCHAR 04B7
ENCODING 1207
SWIDTH 498 0
DWIDTH 18 0
BBX 15 25 2 -6
BITMAP
E01C
E01C
E01C
E01C
E01C
E01C
E01C
E01C
E01C
F03C
FFFC
7FFC
0F1C
001C
001C
001C
001E
001E
001E
000E
000E
000E
000E
000E
000E
ENDCHAR
STARTCHAR 04B8
ENCODING 1208
SWIDTH 692 0
DWIDTH 25 0
BBX 20 26 2 0
BITMAP
F00070
F00070
F00070
F00070
F00070
F00070
F06070
F06070
F06070
F06070
F06070
F06070
F06070
7C60F0
3FFFF0
1FFFF0
07FE70
006070
006070
006070
006070
006070
000070
000070
000070
000070
ENDCHAR
STARTCHAR 04B9
ENCODING 1209
SWIDTH 498 0
DWIDTH 18 0
BBX 14 19 2 0
BITMAP
E01C
E01C
E01C
E01C
E01C
E01C
E31C
E31C
E31C
F33C
7FFC
3FFC
0F9C
031C
031C
031C
001C
001C
001C
ENDCHAR
STARTCHAR 04BA
ENCODING 1210
SWIDTH 692 0
DWIDTH 25 0
BBX 20 26 2 0
BITMAP
F00000
F00000
F00000
F00000
F00000
F00000
F00000
F00000
F00000
F3FE00
FFFF80
FFFFE0
F803E0
F000F0
F00070
F00070
F00070
F00070
F00070
F00070
F00070
F00070
F00070
F00070
F00070
F00070
ENDCHAR
STARTCHAR 04BB
ENCODING 1211
SWIDTH 553 0
DWIDTH 20 0
BBX 15 26 3 0
BITMAP
E000
E000
E000
E000
E000
E000
E000
E1F0
E7F8
EFFC
FC1E
F80E
F00E
E00E
E00E
E00E
E00E
E00E
E00E
E00E
E00E
E00E
E00E
E00E
E00E
E00E
ENDCHAR
STARTCHAR 04C0
ENCODING 1216
SWIDTH 276 0
DWIDTH 10 0
BBX 4 26 3 0
BITMAP
F0
F0
F0
F0
F0
F0
F0
F0
F0
F0
F0
F0
F0
F0
F0
F0
F0
F0
F0
F0
F0
F0
F0
F0
F0
F0
ENDCHAR
STARTCHAR 04CB
ENCODING 1227
SWIDTH 664 0
DWIDTH 24 0
BBX 20 32 2 -6
BITMAP
E000F0
E000F0
E000F0
E000F0
E000F0
E000F0
E000F0
E000F0
E000F0
E000F0
E000F0
E000F0
F000F0
FC01F0
7FFFF0
3FFFF0
07FCF0
0000F0
0000F0
0000F0
0000F0
0000F0
0000F0
0003F0
0003F0
0003F0
0003C0
0003C0
0003C0
0003C0
0003C0
0003C0
ENDCHAR
STARTCHAR 04CC
ENCODING 1228
SWIDTH 526 0
DWIDTH 19 0
BBX 14 24 2 -5
BITMAP
E01C
E01C
E01C
E01C
E01C
E01C
E01C
E01C
E01C
F03C
7FFC
3FFC
0F9C
001C
001C
001C
007C
007C
007C
0070
0070
0070
0070
0070
ENDCHAR
STARTCHAR 04CF
ENCODING 1231
SWIDTH 276 0
DWIDTH 10 0
BBX 4 26 3 0
BITMAP
F0
F0
F0
F0
F0
F0
F0
F0
F0
F0
F0
F0
F0
F0
F0
F0
F0
F0
F0
F0
F0
F0
F0
F0
F0
F0
ENDCHAR
STARTCHAR 04D8
ENCODING 1240
SWIDTH 775 0
DWIDTH 28 0
BBX 26 26 1 0
BITMAP
007F8000
01FFF000
07FFF800
0FC0FC00
1E001E00
3C000F00
38000700
38000780
00000380
00000380
000003C0
FFFFFFC0
FFFFFFC0
FFFFFFC0
F00003C0
700003C0
70000380
78000780
78000780
3C000F00
3E000F00
1F003E00
0FC0FC00
07FFF800
01FFE000
007F8000
ENDCHAR
STARTCHAR 04D9
ENCODING 1241
SWIDTH 553 0
DWIDTH 20 0
BBX 18 19 1 0
BITMAP
03F000
0FFC00
1FFE00
3C0F00
780780
700380
000380
000380
0003C0
FFFFC0
7FFFC0
700380
700380
700380
780700
3C0F00
1FFE00
0FFC00
03F000
ENDCHAR
STARTCHAR 04E2
ENCODING 1250
SWIDTH 720 0
DWIDTH 26 0
BBX 20 30 3 0
BITMAP
03FE00
03FE00
03FE00
000000
E00070
E00070
E00070
E000F0
E001F0
E003F0
E003F0
E007F0
E00F70
E01E70
E03C70
E07870
E0F870
E1F070
E3E070
E3C070
E78070
EF0070
FE0070
FC0070
F80070
F80070
F00070
E00070
E00070
E00070
ENDCHAR
STARTCHAR 04E3
ENCODING 1251
SWIDTH 553 0
DWIDTH 20 0
BBX 14 24 3 0
BITMAP
3FF0
3FF0
3FF0
0000
0000
E01C
E01C
E01C
E03C
E07C
E0FC
E0FC
E1DC
E39C
E79C
E71C
EE1C
FC1C
FC1C
F81C
F01C
F01C
E01C
E01C
ENDCHAR
STARTCHAR 04E8
ENCODING 1256
SWIDTH 775 0
DWIDTH 28 0
BBX 26 26 1 0
BITMAP
007F8000
01FFF000
07FFF800
0FC0FC00
1E001E00
3C000F00
38000700
78000780
70000380
70000380
F00003C0
FFFFFFC0
FFFFFFC0
FFFFFFC0
F00003C0
700003C0
70000380
78000780
78000780
3C000F00
3E000F00
1F003E00
0FC0FC00
07FFF800
01FFE000
007F8000
ENDCHAR
STARTCHAR 04E9
ENCODING 1257
SWIDTH 553 0
DWIDTH 20 0
BBX 18 19 1 0
BITMAP
03F000
0FFC00
1FFE00
3C0F00
780780
700380
700380
700380
7FFFC0
FFFFC0
7FFFC0
700380
700380
780380
780780
3C0F00
1FFE00
0FFC00
03F000
ENDCHAR
STARTCHAR 04EE
ENCODING 1262
SWIDTH 636 0
DWIDTH 23 0
BBX 21 32 1 0
BITMAP
03FF00
03FF00
03FF00
000000
000000
000000
F00078
F00078
780078
7800F0
3C00F0
3C01E0
1E01E0
1E01C0
0E03C0
0F0380
070780
078780
038700
03CF00
03CE00
01DE00
01FC00
00FC00
00FC00
007800
007800
007000
00F000
0FE000
0FE000
0F8000
ENDCHAR
STARTCHAR 04EF
ENCODING 1263
SWIDTH 498 0
DWIDTH 18 0
BBX 16 32 1 -8
BITMAP
1FF8
1FF8
1FF8
0000
0000
E007
F007
700E
700E
781E
381C
381C
383C
1C38
1C38
1C70
0E70
0E70
0EE0
07E0
07E0
07C0
03C0
03C0
0380
0380
0700
0700
0F00
7E00
7C00
7800
ENDCHAR
STARTCHAR 1E80
ENCODING 7808
SWIDTH 941 0
DWIDTH 34 0
BBX 32 34 1 0
BITMAP
000F0000
00070000
00038000
0001C000
0000C000
00006000
00000000
00000000
F003C007
F003C00F
F003E00F
7007E00F
7807E00E
7807F00E
7807701E
380E701E
3C0E701C
3C0E781C
3C1C383C
1C1C383C
1C1C3C38
1E1C1C38
0E381C78
0E381C78
0E381E70
0F780E70
07700E70
07700EF0
077007E0
07E007E0
03E007E0
03E007C0
03E003C0
03C003C0
ENDCHAR
STARTCHAR 1E81
ENCODING 7809
SWIDTH 720 0
DWIDTH 26 0
BBX 25 26 0 0
BITMAP
00F00000
00780000
001C0000
000C0000
00060000
00000000
00000000
F01E0380
701E0380
703E0380
703F0780
783F0700
38370700
38770700
3C738E00
1C738E00
1C638E00
1CE39C00
0EE1DC00
0EE1DC00
0EC1DC00
0FC1F800
07C0F800
07C0F800
0780F000
0380F000
ENDCHAR
STARTCHAR 1E82
ENCODING 7810
SWIDTH 941 0
DWIDTH 34 0
BBX 32 34 1 0
BITMAP
00001E00
00003C00
00007800
00007000
0000E000
0000C000
00000000
00000000
F003C007
F003C00F
F003E00F
7007E00F
7807E00E
7807F00E
7807701E
380E701E
3C0E701C
3C0E781C
3C1C383C
1C1C383C
1C1C3C38
1E1C1C38
0E381C78
0E381C78
0E381E70
0F780E70
07700E70
07700EF0
077007E0
07E007E0
03E007E0
03E007C0
03E003C0
03C003C0
ENDCHAR
STARTCHAR 1E83
ENCODING 7811
SWIDTH 720 0
DWIDTH 26 0
BBX 25 26 0 0
BITMAP
00078000
000F0000
001E0000
00180000
00300000
00000000
00000000
F01E0380
701E0380
703E0380
703F0780
783F0700
38370700
38770700
3C738E00
1C738E00
1C638E00
1CE39C00
0EE1DC00
0EE1DC00
0EC1DC00
0FC1F800
07C0F800
07C0F800
0780F000
0380F000
ENDCHAR
STARTCHAR 1E84
ENCODING 7812
SWIDTH 941 0
DWIDTH 34 0
BBX 32 33 1 0
BITMAP
001E7800
001E7800
001E7800
001E7800
00000000
00000000
00000000
F003C007
F003C00F
F003E00F
7007E00F
7807E00E
7807F00E
7807701E
380E701E
3C0E701C
3C0E781C
3C1C383C
1C1C383C
1C1C3C38
1E1C1C38
0E381C78
0E381C78
0E381E70
0F780E70
07700E70
07700EF0
077007E0
07E007E0
03E007E0
03E007C0
03E003C0
03C003C0
ENDCHAR
STARTCHAR 1E85
ENCODING 7813
SWIDTH 720 0
DWIDTH 26 0
BBX 25 26 0 0
BITMAP
00F38000
00F38000
00F38000
00F38000
00000000
00000000
00000000
F01E0380
701E0380
703E0380
703F0780
783F0700
38370700
38770700
3C738E00
1C738E00
1C638E00
1CE39C00
0EE1DC00
0EE1DC00
0EC1DC00
0FC1F800
07C0F800
07C0F800
0780F000
0380F000
ENDCHAR
STARTCHAR 1EF2
ENCODING 7922
SWIDTH 664 0
DWIDTH 24 0
BBX 23 34 1 0
BITMAP
03C000
01E000
00E000
007000
003800
001800
000000
000000
F0001E
F8003C
780078
3C0078
3C00F0
1E00E0
0F01E0
0F03C0
0783C0
038780
03C700
01EF00
01FE00
00FC00
007C00
007800
003800
003800
003800
003800
003800
003800
003800
003800
003800
003800
ENDCHAR
STARTCHAR 1EF3
ENCODING 7923
SWIDTH 498 0
DWIDTH 18 0
BBX 16 34 1 -8
BITMAP
1E00
0F00
0700
0380
00C0
0000
0000
E007
E00F
700E
700E
701E
381C
381C
383C
1C38
1C38
1C70
0E70
0E70
0EE0
07E0
07E0
07C0
03C0
03C0
0380
0380
0700
0700
0F00
7E00
7C00
7800
ENDCHAR
STARTCHAR 2002
ENCODING 8194
SWIDTH 498 0
DWIDTH 18 0
BBX 0 0 0 0
BITMAP
ENDCHAR
STARTCHAR 2013
ENCODING 8211
SWIDTH 553 0
DWIDTH 20 0
BBX 20 3 0 8
BITMAP
FFFFF0
FFFFF0
FFFFF0
ENDCHAR
STARTCHAR 2014
ENCODING 8212
SWIDTH 996 0
DWIDTH 36 0
BBX 36 3 0 8
BITMAP
FFFFFFFFF0
FFFFFFFFF0
FFFFFFFFF0
ENDCHAR
STARTCHAR 2015
ENCODING 8213
SWIDTH 996 0
DWIDTH 36 0
BBX 36 3 0 8
BITMAP
FFFFFFFFF0
FFFFFFFFF0
FFFFFFFFF0
ENDCHAR
STARTCHAR 2017
ENCODING 8215
SWIDTH 553 0
DWIDTH 20 0
BBX 22 5 -1 -8
BITMAP
FFFFFC
FFFFFC
000000
FFFFFC
FFFFFC
ENDCHAR
STARTCHAR 2018
ENCODING 8216
SWIDTH 221 0
DWIDTH 8 0
BBX 4 9 2 17
BITMAP
10
70
40
40
C0
F0
F0
F0
F0
ENDCHAR
STARTCHAR 2019
ENCODING 8217
SWIDTH 221 0
DWIDTH 8 0
BBX 4 8 2 18
BITMAP
F0
F0
F0
F0
30
30
60
C0
ENDCHAR
STARTCHAR 201A
ENCODING 8218
SWIDTH 221 0
DWIDTH 8 0
BBX 4 9 2 -5
BITMAP
F0
F0
F0
F0
30
30
20
E0
80
ENDCHAR
STARTCHAR 201B
ENCODING 8219
SWIDTH 221 0
DWIDTH 8 0
BBX 4 8 2 18
BITMAP
F0
F0
F0
F0
C0
40
60
30
ENDCHAR
STARTCHAR 201C
ENCODING 8220
SWIDTH 332 0
DWIDTH 12 0
BBX 9 9 2 17
BITMAP
0080
6180
C300
8200
8600
E780
E780
E780
E780
ENDCHAR
STARTCHAR 201D
ENCODING 8221
SWIDTH 332 0
DWIDTH 12 0
BBX 9 8 2 18
BITMAP
E380
E380
E380
E380
2180
6180
6100
C300
ENDCHAR
STARTCHAR 201E
ENCODING 8222
SWIDTH 332 0
DWIDTH 12 0
BBX 9 9 2 -5
BITMAP
E780
E780
E780
E780
6180
6180
6100
C700
0400
ENDCHAR
STARTCHAR 2020
ENCODING 8224
SWIDTH 553 0
DWIDTH 20 0
BBX 18 32 1 -7
BITMAP
01E000
01E000
01E000
01E000
01E000
01E000
01E000
FFFFC0
FFFFC0
FFFFC0
01E000
01E000
01E000
01E000
01E000
01E000
01E000
01E000
01E000
01E000
01E000
01E000
01E000
01E000
01E000
01E000
01E000
01E000
01E000
01E000
01E000
01E000
ENDCHAR
STARTCHAR 2021
ENCODING 8225
SWIDTH 553 0
DWIDTH 20 0
BBX 18 31 1 -6
BITMAP
01E000
01E000
01E000
01E000
01E000
01E000
01E000
FFFFC0
FFFFC0
FFFFC0
01E000
01E000
01E000
01E000
01E000
01E000
01E000
01E000
01E000
01E000
01E000
FFFFC0
FFFFC0
FFFFC0
01E000
01E000
01E000
01E000
01E000
01E000
01E000
ENDCHAR
STARTCHAR 2022
ENCODING 8226
SWIDTH 360 0
DWIDTH 13 0
BBX 9 9 2 8
BITMAP
3C00
7F00
FF00
FF80
FF80
FF80
FF00
7F00
3C00
ENDCHAR
STARTCHAR 2026
ENCODING 8230
SWIDTH 996 0
DWIDTH 36 0
BBX 28 4 4 0
BITMAP
F00F00F0
F00F00F0
F00F00F0
F00F00F0
ENDCHAR
STARTCHAR 2030
ENCODING 8240
SWIDTH 996 0
DWIDTH 36 0
BBX 36 26 0 0
BITMAP
0F00700000
3FC0600000
71C0E00000
60E0C00000
E061C00000
E061800000
6063800000
70C3000000
3FC6000000
1F06000000
000C000000
001C000000
0018000000
0038000000
0030000000
0070000000
0061F00F80
00E3F81FC0
00C71C38E0
018E0E7070
038C066030
030C066030
070E0E7070
06071C38E0
0E03F81FC0
0C01F00F80
ENDCHAR
STARTCHAR 2032
ENCODING 8242
SWIDTH 193 0
DWIDTH 7 0
BBX 5 9 1 15
BITMAP
38
30
30
70
60
60
60
E0
C0
ENDCHAR
STARTCHAR 2033
ENCODING 8243
SWIDTH 360 0
DWIDTH 13 0
BBX 9 9 2 15
BITMAP
3380
7380
7300
6300
6300
6700
E600
C600
C600
ENDCHAR
STARTCHAR 2039
ENCODING 8249
SWIDTH 332 0
DWIDTH 12 0
BBX 6 12 3 4
BITMAP
04
0C
1C
38
F0
E0
C0
F0
78
3C
0C
04
ENDCHAR
STARTCHAR 203A
ENCODING 8250
SWIDTH 332 0
DWIDTH 12 0
BBX 6 11 3 5
BITMAP
C0
E0
F0
3C
1C
0C
3C
78
E0
C0
80
ENDCHAR
STARTCHAR 203C
ENCODING 8252
SWIDTH 498 0
DWIDTH 18 0
BBX 12 26 4 0
BITMAP
E070
E070
E070
E070
E070
E070
E070
E070
E070
E070
E070
E070
E070
E070
E070
E070
E070
4020
4020
4020
0000
0000
E070
E070
E070
E070
ENDCHAR
STARTCHAR 203E
ENCODING 8254
SWIDTH 332 0
DWIDTH 12 0
BBX 22 2 -5 31
BITMAP
FFFFFC
FFFFFC
ENDCHAR
STARTCHAR 2044
ENCODING 8260
SWIDTH 276 0
DWIDTH 10 0
BBX 18 26 -4 0
BITMAP
0000C0
000180
000300
000300
000600
000E00
000C00
001800
001800
003000
006000
006000
00C000
01C000
018000
030000
030000
060000
0C0000
0C0000
180000
380000
300000
600000
600000
C00000
ENDCHAR
STARTCHAR 2070
ENCODING 8304
SWIDTH 332 0
DWIDTH 12 0
BBX 10 16 1 10
BITMAP
1E00
7F80
6380
E1C0
C0C0
C0C0
C0C0
C0C0
C0C0
C0C0
C0C0
C0C0
E1C0
6180
7F80
1E00
ENDCHAR
STARTCHAR 2074
ENCODING 8308
SWIDTH 332 0
DWIDTH 12 0
BBX 12 16 0 10
BITMAP
0180
0180
0380
0780
0F80
0D80
1980
3180
7180
E180
FFF0
FFF0
0180
0180
0180
0180
ENDCHAR
STARTCHAR 2075
ENCODING 8309
SWIDTH 332 0
DWIDTH 12 0
BBX 11 16 0 10
BITMAP
3FE0
3FE0
3000
3000
7000
6F00
7FC0
70E0
0060
0060
0060
E060
6060
70E0
3FC0
1F00
ENDCHAR
STARTCHAR 2076
ENCODING 8310
SWIDTH 332 0
DWIDTH 12 0
BBX 10 16 1 10
BITMAP
1F00
3F80
71C0
E0C0
C000
C000
DF00
FF80
E1C0
C0C0
C0C0
C0C0
C0C0
61C0
7F80
1E00
ENDCHAR
STARTCHAR 2077
ENCODING 8311
SWIDTH 332 0
DWIDTH 12 0
BBX 11 15 1 11
BITMAP
FFE0
FFE0
00C0
0180
0180
0300
0600
0600
0C00
0C00
1800
1800
1800
3000
3000
ENDCHAR
STARTCHAR 2078
ENCODING 8312
SWIDTH 332 0
DWIDTH 12 0
BBX 11 16 0 10
BITMAP
0F00
3FC0
70E0
60E0
6060
60E0
70C0
3F80
3FC0
70E0
6060
E060
6060
70E0
3FC0
1F80
ENDCHAR
STARTCHAR 2079
ENCODING 8313
SWIDTH 332 0
DWIDTH 12 0
BBX 11 16 0 10
BITMAP
0F00
3FC0
70C0
6060
E060
E060
6060
70E0
3FE0
1F60
0060
0060
60E0
71C0
3F80
1F00
ENDCHAR
STARTCHAR 207F
ENCODING 8319
SWIDTH 360 0
DWIDTH 13 0
BBX 9 11 2 10
BITMAP
DF00
FF80
E180
C180
C180
C180
C180
C180
C180
C180
C180
ENDCHAR
STARTCHAR 20A3
ENCODING 8355
SWIDTH 553 0
DWIDTH 20 0
BBX 18 26 2 0
BITMAP
FFFF80
FFFF80
FFFF80
E00000
E00000
E00000
E00000
E071C0
E077C0
E077C0
E07C00
FF7800
FF7000
FF7000
E07000
E07000
E07000
E07000
E07000
E07000
E07000
E07000
E07000
E07000
E07000
E07000
ENDCHAR
STARTCHAR 20A4
ENCODING 8356
SWIDTH 553 0
DWIDTH 20 0
BBX 18 26 1 0
BITMAP
01F800
0FFE00
1FFF00
3C0F00
380780
780380
700380
700380
780000
780000
3C0000
3C0000
FFF000
FFF000
0F0000
FFF000
FFF000
070000
0E0000
0E0000
1C0000
3BC000
7FF9C0
7FFFC0
70FFC0
001F00
ENDCHAR
STARTCHAR 20A7
ENCODING 8359
SWIDTH 1107 0
DWIDTH 40 0
BBX 32 26 4 0
BITMAP
FF000000
FFC00000
FFE00000
E1F00000
E0F00000
E0780000
E0780000
E0780000
E0780000
E0780000
E0F00000
E3F18000
FFE18000
FFC18000
FC018010
E007E0FE
E0018187
E0018183
E0018180
E00181F8
E001807E
E0018007
E0018383
E0018183
E001E1FE
E001E0FC
ENDCHAR
STARTCHAR 20AC
ENCODING 8364
SWIDTH 553 0
DWIDTH 20 0
BBX 20 26 0 0
BITMAP
003F00
00FFC0
01FFF0
03C0E0
078060
070000
0E0000
0E0000
1E0000
1E0000
7FFF00
FFFF00
1C0000
1C0000
7FFE00
FFFC00
1C0000
1E0000
0E0000
0E0000
0F0000
078000
07C0C0
03FFC0
01FFC0
007F00
ENDCHAR
STARTCHAR 20AF
ENCODING 8367
SWIDTH 913 0
DWIDTH 33 0
BBX 29 29 2 -6
BITMAP
03F80000
0FFE0000
398F0000
71878000
63838000
E3838000
C301C3E0
C301C7F0
8301CE70
0701CC38
0701D838
07019838
0603B838
0603B838
0603B038
0E033030
0E073030
0C0E7070
0C0E7060
181C60E0
107871C0
7FE07F80
FF80FE00
0000E000
0000E000
0000C000
0000C000
0000C000
0001C000
ENDCHAR
STARTCHAR 20DD
ENCODING 8413
SWIDTH 996 0
DWIDTH 36 0
BBX 26 26 5 0
BITMAP
003F8000
01FFE000
07C0F800
0F003C00
1C000E00
38000700
30000300
70000380
60000180
60000180
C00000C0
C00000C0
C00000C0
C00000C0
C00000C0
C00000C0
60000180
60000180
70000380
30000300
38000700
1C000E00
0F003C00
07C0F800
01FFE000
007F0000
ENDCHAR
STARTCHAR 2105
ENCODING 8453
SWIDTH 886 0
DWIDTH 32 0
BBX 28 27 2 0
BITMAP
1F000000
3FC01C00
79E01800
70E03800
E0603000
E0006000
E0006000
C000C000
E001C000
E0018000
E0638000
F0E30000
79E70000
3FC61F80
1F0E7FC0
000C71E0
001CE0E0
0018E070
0030C070
0030C070
0060C070
00E0C070
00C0E070
01C0E0E0
01807BE0
03803FC0
03001F00
ENDCHAR
STARTCHAR 210F
ENCODING 8463
SWIDTH 581 0
DWIDTH 21 0
BBX 17 26 2 0
BITMAP
00C000
0FC000
03C000
03C200
038C00
03B800
03E000
078000
0F0200
3F0F80
6E3F80
0E7380
0EC380
1E8700
1D0700
1E0700
3E0E00
3C0E00
380E00
781E00
701C00
701C00
701D80
E03F00
E03E00
001800
ENDCHAR
STARTCHAR 2111
ENCODING 8465
SWIDTH 720 0
DWIDTH 26 0
BBX 20 27 3 -2
BITMAP
0FE000
1FF800
30F800
603C30
C03C30
C01E30
801E20
800F60
800FE0
800380
C00000
6003C0
7007E0
1E0E30
061E10
001E10
001E00
000E00
C00F00
F00F00
780780
3C0780
1E0780
0F0700
0F8F00
07FC00
03F800
ENDCHAR
STARTCHAR 2112
ENCODING 8466
SWIDTH 830 0
DWIDTH 30 0
BBX 26 28 2 0
BITMAP
00700F00
01C03880
07007040
0C00E040
0C00C040
1801C040
1801C040
1801C0C0
0801C080
0801C100
0C03C200
0603CC00
0303F800
01C3E000
003FC000
00038000
00038000
00038000
00038000
00030000
00070000
00070000
00060040
7E0C0080
819C0180
80780100
C0EE0600
3F81F800
ENDCHAR
STARTCHAR 2113
ENCODING 8467
SWIDTH 332 0
DWIDTH 12 0
BBX 13 26 -1 0
BITMAP
0070
00F0
0198
0318
0318
0710
0710
0630
0E20
0E60
0E40
0C80
1D00
1E00
1E00
1C00
3800
7800
F800
3800
3800
3800
3900
3B00
3E00
1C00
ENDCHAR
STARTCHAR 2116
ENCODING 8470
SWIDTH 1080 0
DWIDTH 39 0
BBX 35 26 2 0
BITMAP
E001807C00
F00181FF00
F00183FF80
F8018783C0
F8018701C0
DC018E00E0
DC018E00E0
CE018E00E0
CF018C00E0
C7018C0060
C3818C0060
C3818E00E0
C1C18E00E0
C1C18E00E0
C0E18701C0
C0E18783C0
C07183FF80
C07981FF00
C039807C00
C03D800000
C01D800000
C00F800000
C00F800000
C0078FFFE0
C0078FFFE0
C0038FFFE0
ENDCHAR
STARTCHAR 2118
ENCODING 8472
SWIDTH 636 0
DWIDTH 23 0
BBX 19 21 2 -6
BITMAP
008000
010000
060780
0C18C0
082060
184060
308060
310060
3200E0
3C00C0
3860C0
1CE180
1C8300
3C8600
4E7800
8E0000
860000
860000
860000
440000
380000
ENDCHAR
STARTCHAR 211C
ENCODING 8476
SWIDTH 775 0
DWIDTH 28 0
BBX 22 22 3 0
BITMAP
0F07C0
3FDFF0
77F1F0
C1E078
C0E078
80E078
80F078
C0F0F0
E0F1C0
F8FF00
7CFF80
1CF3C0
0CF3C0
0CE1C0
08E1E0
00E1E0
00E1E0
00E0E0
3DC0F0
7FC0FC
7F8078
0F0060
ENDCHAR
STARTCHAR 211E
ENCODING 8478
SWIDTH 747 0
DWIDTH 27 0
BBX 18 24 6 0
BITMAP
FFF800
FFFE00
FFFF00
E00F00
E00780
E00380
E00380
E00380
E00380
E00780
E00F00
FFFF00
FFFC00
FFF000
E0F3C0
E07380
E07F00
E03F00
E01E00
E01E00
E03F00
E03F00
E07780
E0F380
ENDCHAR
STARTCHAR 2120
ENCODING 8480
SWIDTH 609 0
DWIDTH 22 0
BBX 19 11 1 14
BITMAP
0038E0
7E38E0
C328A0
C328A0
E028A0
7E2DA0
072D20
C32520
C32520
7F2720
3C2720
ENDCHAR
STARTCHAR 2122
ENCODING 8482
SWIDTH 996 0
DWIDTH 36 0
BBX 32 16 2 10
BITMAP
FFFCE00F
FFFCF00F
0300F00F
0300F01F
0300F81F
0300D81F
0300D837
0300CC37
0300CC77
0300CE67
0300C667
0300C6E7
0300C7C7
0300C3C7
0300C387
0300C387
ENDCHAR
STARTCHAR 2126
ENCODING 8486
SWIDTH 775 0
DWIDTH 28 0
BBX 26 26 1 0
BITMAP
007F8000
01FFE000
07FFF800
0FC0FC00
1F003E00
3E001E00
3C000F00
78000780
70000780
70000380
F0000380
F0000380
F0000380
F0000380
70000380
70000380
70000780
38000700
38000F00
1C000E00
0E001C00
07003800
03C0E000
FFE1FFC0
FFE1FFC0
FFE1FFC0
ENDCHAR
STARTCHAR 2128
ENCODING 8488
SWIDTH 609 0
DWIDTH 22 0
BBX 21 32 0 -7
BITMAP
003F00
00FFC0
0381E0
0200E0
000070
000070
000070
000070
00C070
01E070
01E0E0
01C0C0
00C380
007F00
003F00
00FFC0
0187E0
0201E0
0400F0
000070
000078
000038
000038
000038
7C0038
C70038
83C038
838070
C38060
01C0E0
007780
001F00
ENDCHAR
STARTCHAR 212D
ENCODING 8493
SWIDTH 664 0
DWIDTH 24 0
BBX 22 28 2 -3
BITMAP
03E1E0
0777FC
1C1FF8
181860
381000
303000
703000
703000
603800
E03C00
E01E00
E01E00
E00F00
E00780
E18780
F10380
F10380
710180
788380
78C700
3C7E04
3C0008
1E0018
1F8030
0FE0E0
07FFC0
01FF80
007E00
ENDCHAR
STARTCHAR 212E
ENCODING 8494
SWIDTH 609 0
DWIDTH 22 0
BBX 17 19 2 0
BITMAP
03F000
0FFC00
3C1E00
380700
700300
700380
F00380
F00380
FFFF80
FFFF80
F00000
F00000
F00000
700380
700300
380700
3C1E00
1FFC00
07F000
ENDCHAR
STARTCHAR 212F
ENCODING 8495
SWIDTH 498 0
DWIDTH 18 0
BBX 14 18 2 0
BITMAP
0078
019C
070C
0E0C
1C1C
1C18
3838
78E0
73C0
7E00
F000
F000
F000
F000
F010
7860
7FC0
1F00
ENDCHAR
STARTCHAR 2135
ENCODING 8501
SWIDTH 498 0
DWIDTH 18 0
BBX 16 22 1 1
BITMAP
8040
C0E0
E0FF
E0FF
70FF
387F
1C09
1E08
1E10
3710
33B0
71E0
71E0
70F0
F870
7C38
7E1C
3E1E
3E0E
3E07
7E03
7E02
ENDCHAR
STARTCHAR 2136
ENCODING 8502
SWIDTH 443 0
DWIDTH 16 0
BBX 15 19 1 0
BITMAP
4000
4000
7FF0
7FF8
7FFC
3FFC
000E
0006
0006
0006
0006
0004
0004
0004
0004
7FFE
7FFE
7FFC
FFFC
ENDCHAR
STARTCHAR 2137
ENCODING 8503
SWIDTH 332 0
DWIDTH 12 0
BBX 9 19 2 0
BITMAP
2000
3C00
3F00
3F00
3F00
0700
0100
0100
0100
0100
0100
0180
0180
0180
0180
7F80
7D80
FC80
F800
ENDCHAR
STARTCHAR 215B
ENCODING 8539
SWIDTH 830 0
DWIDTH 30 0
BBX 27 26 2 0
BITMAP
0C001800
0C003000
3C003000
FC006000
0C00C000
0C00C000
0C018000
0C038000
0C030000
0C060000
0C061F00
0C0C3F80
0C1870C0
0C1860C0
0C3060C0
007060C0
00603F80
00C01F80
00C071C0
018060E0
0300C060
0300C060
06006060
060060C0
0C003F80
18001F00
ENDCHAR
STARTCHAR 215C
ENCODING 8540
SWIDTH 830 0
DWIDTH 30 0
BBX 28 26 1 0
BITMAP
1F000600
3FC00C00
70C00C00
60E01800
60601800
00E03000
07C06000
07806000
01E0C000
00618000
E0618F80
E0631FC0
60E73060
7FC63060
1F0C3060
000C3860
00181FC0
00300FC0
003038E0
00603070
00E03030
00C03030
01803030
01803060
03001FE0
06000F80
ENDCHAR
STARTCHAR 215D
ENCODING 8541
SWIDTH 830 0
DWIDTH 30 0
BBX 28 26 1 0
BITMAP
3FC00600
3FC00E00
20000C00
60001800
60001800
6F003000
7F806000
60C06000
00E0C000
00618000
00618300
C0631FC0
60C318E0
71C63060
3F8C3060
0C0C3060
001818C0
00300F80
00301FC0
00603060
00E03030
00C02030
01803030
01803060
03001FE0
06000F80
ENDCHAR
STARTCHAR 215E
ENCODING 8542
SWIDTH 830 0
DWIDTH 30 0
BBX 27 26 2 0
BITMAP
FFC03000
FFC06000
00C06000
0180C000
03018000
03018000
06030000
04070000
0C060000
0C0C0000
180C0E00
18183F80
183071C0
303060C0
306060C0
00C060C0
00C03180
01801F00
03803F80
030060C0
0600C0C0
0600C060
0C00C0C0
180060C0
18007F80
30001F00
ENDCHAR
STARTCHAR 2190
ENCODING 8592
SWIDTH 996 0
DWIDTH 36 0
BBX 30 12 3 5
BITMAP
01000000
03000000
07000000
0E000000
3C000000
FFFFFFFC
FFFFFFFC
3C000000
0E000000
07000000
03000000
01000000
ENDCHAR
STARTCHAR 2191
ENCODING 8593
SWIDTH 498 0
DWIDTH 18 0
BBX 12 30 3 -4
BITMAP
0400
0E00
0F00
1F00
3F80
3FC0
F7E0
C670
0600
0600
0600
0600
0600
0600
0600
0600
0600
0600
0600
0600
0600
0600
0600
0600
0600
0600
0600
0600
0600
0600
ENDCHAR
STARTCHAR 2192
ENCODING 8594
SWIDTH 996 0
DWIDTH 36 0
BBX 30 12 3 5
BITMAP
00000200
00000300
00000380
000001E0
000000F0
FFFFFFFC
FFFFFFFC
000000F0
000001C0
00000380
00000300
00000200
ENDCHAR
STARTCHAR 2193
ENCODING 8595
SWIDTH 498 0
DWIDTH 18 0
BBX 12 30 3 -4
BITMAP
0600
0600
0600
0600
0600
0600
0600
0600
0600
0600
0600
0600
0600
0600
0600
0600
0600
0600
0600
0600
0600
0600
C670
77E0
3FC0
1F80
1F00
0E00
0600
0400
ENDCHAR
STARTCHAR 2194
ENCODING 8596
SWIDTH 996 0
DWIDTH 36 0
BBX 27 12 5 5
BITMAP
03001000
06001800
0E001C00
1C000E00
7C000F80
FFFFFFE0
FFFFFFC0
3C000F80
1C000E00
0E001C00
06001800
03001000
ENDCHAR
STARTCHAR 2195
ENCODING 8597
SWIDTH 498 0
DWIDTH 18 0
BBX 12 27 3 -1
BITMAP
0600
0600
0F00
0F80
1F80
3FC0
76E0
C670
0600
0600
0600
0600
0600
0600
0600
0600
0600
0600
0600
C630
F6F0
7FE0
3FC0
1F80
0F00
0600
0600
ENDCHAR
STARTCHAR 2196
ENCODING 8598
SWIDTH 720 0
DWIDTH 26 0
BBX 26 26 0 -2
BITMAP
40000000
F8000000
FE000000
FFC00000
7DF00000
6E300000
37000000
33800000
31C00000
18E00000
18700000
0C380000
081C0000
000E0000
00070000
00038000
0001C000
0000E000
00007000
00003800
00001C00
00000E00
00000700
00000380
000001C0
00000080
ENDCHAR
STARTCHAR 2197
ENCODING 8599
SWIDTH 720 0
DWIDTH 26 0
BBX 26 26 0 -2
BITMAP
00000100
00000780
00003FC0
0000F780
0003CF80
00071F00
00003B00
00007600
0000E600
0001C600
00038C00
00070C00
000E0000
001C0000
00380000
00700000
00E00000
01C00000
03800000
07000000
0E000000
1C000000
38000000
70000000
E0000000
40000000
ENDCHAR
STARTCHAR 2198
ENCODING 8600
SWIDTH 720 0
DWIDTH 26 0
BBX 26 26 0 -2
BITMAP
40000000
E0000000
70000000
38000000
1C000000
0E000000
07000000
03800000
01C00000
00E00000
00700000
00380000
001C0000
000E0000
00070C00
00038C00
0001C600
0000E600
00007600
00003B00
00071F00
0007CF80
0000F780
00003FC0
00000F80
00000100
ENDCHAR
STARTCHAR 2199
ENCODING 8601
SWIDTH 720 0
DWIDTH 26 0
BBX 26 26 0 -2
BITMAP
00000080
000001C0
00000380
00000700
00000E00
00001C00
00003800
00007000
0000E000
0001C000
00038000
00070000
000E0000
081C0000
0C380000
18700000
18E00000
31C00000
33800000
37000000
6E300000
7CF00000
FFC00000
FE000000
F8000000
60000000
ENDCHAR
STARTCHAR 21A8
ENCODING 8616
SWIDTH 498 0
DWIDTH 18 0
BBX 12 32 3 -4
BITMAP
0600
0600
0F00
1F80
3FC0
7FE0
E6F0
8630
0600
0600
0600
0600
0600
0600
0600
0600
0600
0600
0600
E670
76E0
3FC0
1F80
0F00
0F00
0600
0600
0000
0000
0000
7FE0
7FE0
ENDCHAR
STARTCHAR 21B5
ENCODING 8629
SWIDTH 996 0
DWIDTH 36 0
BBX 26 14 6 5
BITMAP
000000C0
000000C0
004000C0
03E000C0
0F8000C0
3E0000C0
F00000C0
FFFFFFC0
FFFFFFC0
F8000000
1E000000
07C00000
01E00000
00400000
ENDCHAR
STARTCHAR 21C4
ENCODING 8644
SWIDTH 996 0
DWIDTH 36 0
BBX 28 21 4 2
BITMAP
00000800
00000C00
00000700
00000780
000003C0
FFFFFFF0
FFFFFFE0
000003C0
00000700
03000E00
07000C00
0E001800
1E000000
3C000000
FFFFFFF0
FFFFFFF0
3C000000
0E000000
07000000
03000000
01000000
ENDCHAR
STARTCHAR 21C6
ENCODING 8646
SWIDTH 996 0
DWIDTH 36 0
BBX 28 21 4 2
BITMAP
03000000
07000000
0E000000
1E000000
3C000000
FFFFFFF0
FFFFFFF0
3C000000
0E000000
07000800
03000C00
01000700
00000780
000003C0
FFFFFFF0
FFFFFFE0
000003C0
00000700
00000E00
00000C00
00001800
ENDCHAR
STARTCHAR 21D0
ENCODING 8656
SWIDTH 720 0
DWIDTH 26 0
BBX 26 15 0 3
BITMAP
00400000
01C00000
03800000
07FFFFC0
0FFFFFC0
18000000
70000000
E0000000
70000000
18000000
0FFFFFC0
07FFFFC0
03800000
01C00000
00400000
ENDCHAR
STARTCHAR 21D1
ENCODING 8657
SWIDTH 720 0
DWIDTH 26 0
BBX 16 23 5 0
BITMAP
0180
03C0
03C0
0660
0C30
1818
381C
6816
E817
0810
0810
0810
0810
0810
0810
0810
0810
0810
0810
0810
0810
0810
0810
ENDCHAR
STARTCHAR 21D2
ENCODING 8658
SWIDTH 720 0
DWIDTH 26 0
BBX 26 15 0 3
BITMAP
00008000
0000E000
00007000
FFFFF800
FFFFFC00
00000600
00000380
000001C0
00000380
00000600
FFFFFC00
FFFFF800
00007000
0000E000
00008000
ENDCHAR
STARTCHAR 21D3
ENCODING 8659
SWIDTH 720 0
DWIDTH 26 0
BBX 15 23 6 0
BITMAP
1020
1020
1020
1020
1020
1020
1020
1020
1020
1020
1020
1020
1020
1020
D02E
7038
3038
3030
1860
0CC0
0780
0300
0200
ENDCHAR
STARTCHAR 21D4
ENCODING 8660
SWIDTH 720 0
DWIDTH 26 0
BBX 26 15 0 3
BITMAP
0080C000
0180E000
03003000
07FFF800
0FFFFC00
38000700
70000380
E00001C0
70000380
38000700
0FFFFC00
07FFF800
03003000
0180E000
0080C000
ENDCHAR
STARTCHAR 21D5
ENCODING 8661
SWIDTH 720 0
DWIDTH 26 0
BBX 18 26 4 -1
BITMAP
00C000
01E000
03F000
073800
0E1C00
3E1F00
761B80
C618C0
061800
061800
061800
061800
061800
061800
061800
061800
061800
061800
E61980
3E1F00
1E1E00
0F3C00
07F000
01E000
00C000
008000
ENDCHAR
STARTCHAR 2200
ENCODING 8704
SWIDTH 581 0
DWIDTH 21 0
BBX 20 21 1 0
BITMAP
E000F0
F000E0
7001E0
7001C0
7801C0
3803C0
3C0380
1FFF80
1FFF00
1FFF00
0E0E00
0F0E00
071E00
071C00
03BC00
03B800
03F800
01F800
01F000
00F000
00E000
ENDCHAR
STARTCHAR 2202
ENCODING 8706
SWIDTH 470 0
DWIDTH 17 0
BBX 16 28 1 0
BITMAP
0F00
7FC0
3070
0038
0018
000C
000C
000E
000E
0006
0006
0007
0007
0FC7
3C3E
381E
700E
F00E
E00E
E00E
E01C
E01C
E01C
E038
6038
7070
38E0
0F80
ENDCHAR
STARTCHAR 2203
ENCODING 8707
SWIDTH 415 0
DWIDTH 15 0
BBX 12 21 2 0
BITMAP
FFF0
FFF0
FFF0
0070
0070
0070
0070
0070
0070
FFF0
FFF0
FFF0
0070
0070
0070
0070
0070
0070
FFF0
FFF0
FFF0
ENDCHAR
STARTCHAR 2205
ENCODING 8709
SWIDTH 996 0
DWIDTH 36 0
BBX 28 25 4 0
BITMAP
001FC000
00FFF030
01E07CF0
03800FE0
07000780
0E000780
1C001F80
18003DC0
380070C0
3800E0C0
3001C0E0
300780E0
300F00E0
301C00E0
303800E0
38F000C0
39E000C0
1BC001C0
1F000180
0E000380
3F000700
7B801E00
E1F07C00
C0FFF000
001FC000
ENDCHAR
STARTCHAR 2206
ENCODING 8710
SWIDTH 609 0
DWIDTH 22 0
BBX 22 23 0 0
BITMAP
007800
007800
007C00
00FC00
00FC00
01CE00
01CE00
03CF00
038700
038700
070380
070380
0F03C0
0E01C0
0E01C0
1C00E0
1C00E0
3C00F0
380070
380078
7FFFF8
7FFFF8
FFFFFC
ENDCHAR
STARTCHAR 2207
ENCODING 8711
SWIDTH 747 0
DWIDTH 27 0
BBX 21 23 3 0
BITMAP
FFFFF8
FFFFF8
FFFFF0
700070
7000F0
3800E0
3800E0
3C01C0
1C01C0
1C03C0
0E0380
0E0380
0F0700
070700
070E00
038E00
039E00
03DC00
01DC00
01F800
00F800
00F800
007000
ENDCHAR
STARTCHAR 2208
ENCODING 8712
SWIDTH 996 0
DWIDTH 36 0
BBX 20 18 8 0
BITMAP
07FFF0
0FFFF0
1E0000
380000
700000
600000
600000
600000
FFFFF0
FFFFF0
E00000
600000
600000
700000
380000
3E0000
1FFFF0
07FFF0
ENDCHAR
STARTCHAR 2209
ENCODING 8713
SWIDTH 996 0
DWIDTH 36 0
BBX 20 23 8 -2
BITMAP
000080
0000C0
000180
07FFF0
0FFFF0
3E0600
380600
700C00
600C00
601800
601800
FFFFF0
FFFFF0
E06000
60C000
60C000
718000
398000
3F0000
1FFFF0
07FFF0
0C0000
0C0000
ENDCHAR
STARTCHAR 220B
ENCODING 8715
SWIDTH 996 0
DWIDTH 36 0
BBX 20 18 8 0
BITMAP
FFFE00
FFFF80
0007C0
0001C0
0000E0
000060
000070
000070
FFFFF0
FFFFF0
000070
000060
000060
0000E0
0001C0
0007C0
FFFF80
FFFE00
ENDCHAR
STARTCHAR 220D
ENCODING 8717
SWIDTH 526 0
DWIDTH 19 0
BBX 16 16 3 0
BITMAP
FFE0
FFF0
003C
000C
0006
0006
0006
FFFF
FFFF
0006
0006
0006
000C
003C
FFF0
FFE0
ENDCHAR
STARTCHAR 220F
ENCODING 8719
SWIDTH 996 0
DWIDTH 36 0
BBX 28 35 4 -9
BITMAP
FFFFFFF0
FFFFFFF0
FFFFFFF0
0E000700
0E000700
0E000700
0E000700
0E000700
0E000700
0E000700
0E000700
0E000700
0E000700
0E000700
0E000700
0E000700
0E000700
0E000700
0E000700
0E000700
0E000700
0E000700
0E000700
0E000700
0E000700
0E000700
0E000700
0E000700
0E000700
0E000700
0E000700
0E000700
7FC03FE0
7FC03FE0
7FC03FE0
ENDCHAR
STARTCHAR 2211
ENCODING 8721
SWIDTH 996 0
DWIDTH 36 0
BBX 18 32 8 -5
BITMAP
FFFFC0
FFFFC0
FFFFC0
7001C0
7801C0
3801C0
3C01C0
1C01C0
0E0000
0E0000
070000
078000
038000
01C000
01C000
01E000
01C000
03C000
038000
078000
070000
0F0000
0E0000
1C0000
1C00C0
3800C0
3800C0
7000C0
7000C0
FFFFC0
FFFFC0
FFFFC0
ENDCHAR
STARTCHAR 2212
ENCODING 8722
SWIDTH 581 0
DWIDTH 21 0
BBX 19 3 1 7
BITMAP
FFFFE0
FFFFE0
FFFFE0
ENDCHAR
STARTCHAR 2213
ENCODING 8723
SWIDTH 996 0
DWIDTH 36 0
BBX 18 22 9 0
BITMAP
FFFFC0
FFFFC0
000000
000000
000000
00C000
00C000
00C000
00C000
00C000
00C000
00C000
FFFFC0
FFFFC0
00FFC0
00C000
00C000
00C000
00C000
00C000
00C000
00C000
ENDCHAR
STARTCHAR 2215
ENCODING 8725
SWIDTH 276 0
DWIDTH 10 0
BBX 18 26 -4 0
BITMAP
0000C0
000180
000300
000300
000600
000E00
000C00
001800
001800
003000
006000
006000
00C000
01C000
018000
030000
030000
060000
0C0000
0C0000
180000
380000
300000
600000
600000
C00000
ENDCHAR
STARTCHAR 2217
ENCODING 8727
SWIDTH 996 0
DWIDTH 36 0
BBX 10 10 13 4
BITMAP
0C00
0C00
4C80
EDC0
7F80
1E00
FFC0
EDC0
4C80
0C00
ENDCHAR
STARTCHAR 2219
ENCODING 8729
SWIDTH 276 0
DWIDTH 10 0
BBX 4 4 4 8
BITMAP
F0
F0
F0
F0
ENDCHAR
STARTCHAR 221A
ENCODING 8730
SWIDTH 443 0
DWIDTH 16 0
BBX 18 34 -1 -1
BITMAP
000040
0000C0
0000C0
000080
000080
000080
000080
000180
000180
000100
000100
000100
000100
000300
080300
3C0200
EC0200
8E0200
060200
070600
030600
038400
018400
01C400
00C400
00EC00
006C00
006800
003800
003800
001800
001800
000800
000800
ENDCHAR
STARTCHAR 221D
ENCODING 8733
SWIDTH 996 0
DWIDTH 36 0
BBX 18 10 7 4
BITMAP
1E01C0
7F87C0
73CF00
E0FC00
C07800
C07800
E0FC00
61CF00
7F87C0
3F01C0
ENDCHAR
STARTCHAR 221E
ENCODING 8734
SWIDTH 720 0
DWIDTH 26 0
BBX 24 11 1 4
BITMAP
1E0078
3F81FC
61C38E
C0E607
C03C03
C01803
C03C03
C0E606
61C38E
3F81FC
1E0070
ENDCHAR
STARTCHAR 221F
ENCODING 8735
SWIDTH 969 0
DWIDTH 35 0
BBX 32 31 2 0
BITMAP
C0000000
C0000000
C0000000
C0000000
C0000000
C0000000
C0000000
C0000000
C0000000
C0000000
C0000000
C0000000
C0000000
C0000000
C0000000
C0000000
C0000000
C0000000
C0000000
C0000000
C0000000
C0000000
C0000000
C0000000
C0000000
C0000000
C0000000
C0000000
C0000000
FFFFFFFF
FFFFFFFF
ENDCHAR
STARTCHAR 2220
ENCODING 8736
SWIDTH 996 0
DWIDTH 36 0
BBX 20 15 8 0
BITMAP
000100
000300
000600
000C00
003800
007000
00E000
01C000
038000
070000
0E0000
1C0000
380000
7FFFF0
FFFFF0
ENDCHAR
STARTCHAR 2223
ENCODING 8739
SWIDTH 720 0
DWIDTH 26 0
BBX 2 36 12 -9
BITMAP
C0
C0
C0
C0
C0
C0
C0
C0
C0
C0
C0
C0
C0
C0
C0
C0
C0
C0
C0
C0
C0
C0
C0
C0
C0
C0
C0
C0
C0
C0
C0
C0
C0
C0
C0
C0
ENDCHAR
STARTCHAR 2225
ENCODING 8741
SWIDTH 720 0
DWIDTH 26 0
BBX 8 41 9 -9
BITMAP
C3
C3
C3
C3
C3
C3
C3
C3
C3
C3
C3
C3
C3
C3
C3
C3
C3
C3
C3
C3
C3
C3
C3
C3
C3
C3
C3
C3
C3
C3
C3
C3
C3
C3
C3
C3
C3
C3
C3
C3
C3
ENDCHAR
STARTCHAR 2227
ENCODING 8743
SWIDTH 996 0
DWIDTH 36 0
BBX 18 19 9 0
BITMAP
00C000
01E000
01E000
01F000
03F000
03B000
073800
073800
0E1C00
0E1C00
1C0E00
1C0E00
180700
380700
380700
700380
700380
E001C0
E001C0
ENDCHAR
STARTCHAR 2228
ENCODING 8744
SWIDTH 996 0
DWIDTH 36 0
BBX 18 19 9 0
BITMAP
E001C0
E001C0
700180
700380
700380
380700
380700
1C0E00
1C0E00
0E0C00
0E1C00
061C00
073800
073800
03F000
03F000
01E000
01E000
00C000
ENDCHAR
STARTCHAR 2229
ENCODING 8745
SWIDTH 720 0
DWIDTH 26 0
BBX 18 22 4 0
BITMAP
03F000
0FFC00
1E1E00
380700
700380
700380
600180
E001C0
E001C0
E001C0
E001C0
E001C0
E001C0
E001C0
E001C0
E001C0
E001C0
E001C0
E001C0
E001C0
E001C0
E001C0
ENDCHAR
STARTCHAR 222A
ENCODING 8746
SWIDTH 720 0
DWIDTH 26 0
BBX 18 22 4 0
BITMAP
E001C0
E001C0
E001C0
E001C0
E001C0
E001C0
E001C0
E001C0
E001C0
E001C0
E001C0
E001C0
E001C0
E001C0
E001C0
600180
700380
700380
380700
1E1E00
0FFC00
03F000
ENDCHAR
STARTCHAR 222B
ENCODING 8747
SWIDTH 276 0
DWIDTH 10 0
BBX 9 37 1 -4
BITMAP
0380
0780
0F80
0900
0800
0800
1800
1800
1800
1C00
1C00
1C00
1C00
1C00
1C00
1C00
1C00
1C00
1C00
1C00
1C00
1C00
1C00
1C00
1C00
1C00
1C00
1C00
0C00
0C00
0C00
0800
0800
C800
F800
F000
6000
ENDCHAR
STARTCHAR 222E
ENCODING 8750
SWIDTH 996 0
DWIDTH 36 0
BBX 15 44 10 -9
BITMAP
0078
009C
019E
011C
031C
0300
0300
0300
0300
0300
0700
0780
0780
0780
0780
07E0
1FB8
378C
63C4
43C6
C3C2
83C2
83C2
C3C2
C3C2
63C6
23CC
3BD8
0FF0
01C0
01C0
01C0
01C0
01C0
01C0
01C0
01C0
00C0
0080
0080
7880
7900
7B00
3C00
ENDCHAR
STARTCHAR 2234
ENCODING 8756
SWIDTH 996 0
DWIDTH 36 0
BBX 22 23 7 0
BITMAP
003000
007800
007800
007800
003000
000000
000000
000000
000000
000000
000000
000000
000000
000000
000000
000000
000000
000000
600018
F0003C
F0007C
F0003C
700038
ENDCHAR
STARTCHAR 2235
ENCODING 8757
SWIDTH 996 0
DWIDTH 36 0
BBX 22 23 7 0
BITMAP
600018
F0003C
F0007C
F0003C
700038
000000
000000
000000
000000
000000
000000
000000
000000
000000
000000
000000
000000
000000
003000
007800
007800
007800
007000
ENDCHAR
STARTCHAR 2237
ENCODING 8759
SWIDTH 996 0
DWIDTH 36 0
BBX 22 23 7 0
BITMAP
600018
F0003C
F8007C
F0003C
700038
000000
000000
000000
000000
000000
000000
000000
000000
000000
000000
000000
000000
000000
600018
F0003C
F8007C
F0003C
700038
ENDCHAR
STARTCHAR 2245
ENCODING 8773
SWIDTH 996 0
DWIDTH 36 0
BBX 18 13 9 3
BITMAP
000080
1FC180
3FFF00
60FE00
400000
000000
FFFFC0
FFFFC0
000000
000000
000000
FFFFC0
FFFFC0
ENDCHAR
STARTCHAR 2248
ENCODING 8776
SWIDTH 553 0
DWIDTH 20 0
BBX 17 11 1 3
BITMAP
0E0080
3FC180
7FFF80
61FF00
C03E00
400000
1E0080
3FC180
7FFF80
60FF00
C01E00
ENDCHAR
STARTCHAR 2260
ENCODING 8800
SWIDTH 553 0
DWIDTH 20 0
BBX 18 18 1 -1
BITMAP
000C00
001C00
001800
003800
FFFFC0
FFFFC0
FFFFC0
00C000
01C000
018000
FFFFC0
FFFFC0
FFFFC0
0E0000
0C0000
1C0000
180000
080000
ENDCHAR
STARTCHAR 2261
ENCODING 8801
SWIDTH 581 0
DWIDTH 21 0
BBX 17 15 2 1
BITMAP
FFFF80
FFFF80
FFFF80
000000
000000
000000
FFFF80
FFFF80
FFFF80
000000
000000
000000
FFFF80
FFFF80
FFFF80
ENDCHAR
STARTCHAR 2262
ENCODING 8802
SWIDTH 996 0
DWIDTH 36 0
BBX 18 20 9 0
BITMAP
000600
000C00
000C00
FFFFC0
FFFFC0
003000
007000
006000
00C000
FFFFC0
FFFFC0
038000
030000
070000
060000
FFFFC0
FFFFC0
180000
380000
100000
ENDCHAR
STARTCHAR 2264
ENCODING 8804
SWIDTH 553 0
DWIDTH 20 0
BBX 18 23 1 0
BITMAP
0001C0
0007C0
001F80
00FE00
03F000
0FC000
7F0000
F80000
F00000
FE0000
3F8000
07E000
01FC00
007F00
000FC0
0003C0
0000C0
000000
000000
000000
000000
FFFFC0
FFFFC0
ENDCHAR
STARTCHAR 2265
ENCODING 8805
SWIDTH 553 0
DWIDTH 20 0
BBX 18 23 1 0
BITMAP
C00000
F80000
FE0000
1F8000
07F000
01FC00
003F00
000FC0
0003C0
001FC0
007E00
03F800
0FE000
3F0000
FC0000
E00000
800000
000000
000000
000000
000000
FFFFC0
FFFFC0
ENDCHAR
STARTCHAR 226A
ENCODING 8810
SWIDTH 996 0
DWIDTH 36 0
BBX 24 22 6 -2
BITMAP
000003
00000F
00003F
0000FC
0003F0
001F83
007E0F
01F83F
07E0FC
3F07E0
FC1F80
F83F00
7E0FC0
1F83F8
03F07E
00FC1F
003F07
000FE0
0001F8
00007E
00001F
000007
ENDCHAR
STARTCHAR 226B
ENCODING 8811
SWIDTH 996 0
DWIDTH 36 0
BBX 24 22 6 -2
BITMAP
800000
F00000
FC0000
3F0000
0FC000
83F800
F07E00
FC1F80
3F07E0
0FC1FC
01F83F
00FC1F
03F07E
1F83F0
7E0FC0
F83F00
E0FC00
07E000
1F8000
7E0000
F80000
C00000
ENDCHAR
STARTCHAR 2282
ENCODING 8834
SWIDTH 996 0
DWIDTH 36 0
BBX 20 18 8 0
BITMAP
07FFF0
0FFFF0
3E0000
380000
700000
600000
600000
E00000
E00000
E00000
600000
600000
600000
700000
380000
3E0000
1FFFF0
07FFF0
ENDCHAR
STARTCHAR 2283
ENCODING 8835
SWIDTH 996 0
DWIDTH 36 0
BBX 20 18 8 0
BITMAP
FFFE00
FFFF80
0007C0
0001C0
0000E0
000060
000070
000070
000070
000070
000070
000060
000060
0000E0
0001C0
0007C0
FFFF80
FFFE00
ENDCHAR
STARTCHAR 2284
ENCODING 8836
SWIDTH 996 0
DWIDTH 36 0
BBX 20 22 8 -1
BITMAP
000060
0000C0
07FFF0
0FFFF0
3E0300
380300
700600
600600
600C00
601800
E01800
E03000
E03000
606000
70C000
70C000
398000
3F8000
1FFFF0
07FFF0
060000
040000
ENDCHAR
STARTCHAR 2285
ENCODING 8837
SWIDTH 996 0
DWIDTH 36 0
BBX 20 22 8 -1
BITMAP
700000
300000
FFFE00
FFFF80
0C07C0
0C01C0
0600E0
030060
030070
018070
018070
00C070
00C070
006060
003060
0030E0
0019C0
001FC0
FFFF80
FFFE00
000600
000200
ENDCHAR
STARTCHAR 2286
ENCODING 8838
SWIDTH 996 0
DWIDTH 36 0
BBX 20 22 8 0
BITMAP
07FFF0
0FFFF0
1E0000
380000
700000
600000
600000
600000
E00000
E00000
E00000
600000
600000
700000
380000
3C0000
1FFFF0
07FFF0
000000
000000
FFFFF0
FFFFF0
ENDCHAR
STARTCHAR 2287
ENCODING 8839
SWIDTH 996 0
DWIDTH 36 0
BBX 20 22 8 0
BITMAP
FFFE00
FFFF80
0007C0
0001C0
0000E0
000060
000070
000070
000070
000070
000070
000070
000060
0000E0
0000C0
0003C0
FFFF80
FFFE00
000000
000000
FFFFF0
FFFFF0
ENDCHAR
STARTCHAR 2295
ENCODING 8853
SWIDTH 996 0
DWIDTH 36 0
BBX 26 26 5 0
BITMAP
003F0000
01FFE000
03CCF800
0F0C3C00
1C0C0E00
180C0700
300C0300
700C0380
600C0180
600C01C0
C00C00C0
C00C00C0
FFFFFFC0
FFFFFFC0
C00C00C0
C00C00C0
600C01C0
600C0180
700C0180
300C0300
380C0700
1C0C0E00
0F0C1C00
07CCF800
01FFE000
007F8000
ENDCHAR
STARTCHAR 2296
ENCODING 8854
SWIDTH 996 0
DWIDTH 36 0
BBX 26 26 5 -1
BITMAP
007F8000
01FFE000
07C0F800
0E003C00
1C000E00
38000700
30000300
70000380
60000180
E00001C0
C00000C0
C00000C0
FFFFFFC0
FFFFFFC0
C00000C0
C00000C0
E0000180
60000180
70000380
30000300
38000700
1C000E00
0F003C00
07C0F800
01FFE000
007F0000
ENDCHAR
STARTCHAR 2297
ENCODING 8855
SWIDTH 996 0
DWIDTH 36 0
BBX 26 26 5 0
BITMAP
003F8000
01FFE000
03C1F800
0F003C00
1C000E00
1E001F00
37003B00
73807380
61C0E180
60E1C1C0
C07380C0
C03F00C0
C01E00C0
C01E00C0
C03F00C0
C07380C0
60E1C1C0
61C0E180
73807380
37003B00
3E001F00
1C000E00
0F003C00
07E0F800
01FFE000
007F0000
ENDCHAR
STARTCHAR 2298
ENCODING 8856
SWIDTH 996 0
DWIDTH 36 0
BBX 26 26 5 0
BITMAP
003F8000
01FFE000
07C1F800
0F003C00
1C000E00
38001F00
30003B00
70007380
6000E180
6001C180
C00380C0
C00700C0
C00E00C0
C01C00C0
C03800C0
C07000C0
60E00180
61C00180
73800380
37000300
3E000600
1C000E00
0F003C00
07C0F000
01FFE000
007F0000
ENDCHAR
STARTCHAR 2299
ENCODING 8857
SWIDTH 996 0
DWIDTH 36 0
BBX 26 26 5 -1
BITMAP
007F8000
01FFE000
07C0F800
0E003C00
1C000E00
38000700
30000300
70000380
60000180
E00001C0
C00000C0
C01E00C0
C01E00C0
C01E00C0
C00C00C0
C00000C0
60000180
60000180
70000380
30000300
38000700
1C000E00
0F003C00
07E0F000
01FFE000
007F0000
ENDCHAR
STARTCHAR 22A2
ENCODING 8866
SWIDTH 996 0
DWIDTH 36 0
BBX 22 20 7 0
BITMAP
C00000
C00000
C00000
C00000
C00000
C00000
C00000
C00000
C00000
FFFFFC
FFFFFC
C00000
C00000
C00000
C00000
C00000
C00000
C00000
C00000
C00000
ENDCHAR
STARTCHAR 22A3
ENCODING 8867
SWIDTH 996 0
DWIDTH 36 0
BBX 22 20 7 0
BITMAP
00000C
00000C
00000C
00000C
00000C
00000C
00000C
00000C
00000C
FFFFFC
FFFFFC
00000C
00000C
00000C
00000C
00000C
00000C
00000C
00000C
00000C
ENDCHAR
STARTCHAR 22A4
ENCODING 8868
SWIDTH 996 0
DWIDTH 36 0
BBX 20 23 8 0
BITMAP
FFFFF0
FFFFF0
006000
006000
006000
006000
006000
006000
006000
006000
006000
006000
006000
006000
006000
006000
006000
006000
006000
006000
006000
006000
006000
ENDCHAR
STARTCHAR 22A5
ENCODING 8869
SWIDTH 996 0
DWIDTH 36 0
BBX 22 22 7 0
BITMAP
003000
003000
003000
003000
003000
003000
003000
003000
003000
003000
003000
003000
003000
003000
003000
003000
003000
003000
003000
003000
FFFFFC
FFFFFC
ENDCHAR
STARTCHAR 22BB
ENCODING 8891
SWIDTH 996 0
DWIDTH 36 0
BBX 20 26 8 -5
BITMAP
E00070
E00060
6000E0
7000E0
3000C0
3801C0
180180
1C0380
1C0300
0C0700
0E0700
060600
070E00
070C00
039C00
039800
01B800
01F800
00F000
00F000
00E000
000000
000000
000000
FFFFF0
FFFFF0
ENDCHAR
STARTCHAR 2302
ENCODING 8962
SWIDTH 609 0
DWIDTH 22 0
BBX 19 26 1 0
BITMAP
004000
006000
00F000
01B800
039C00
070C00
060600
0C0300
180380
3801C0
7000C0
600060
C00060
C00060
C00060
C00060
C00060
C00060
C00060
C00060
C00060
C00060
C00060
C00060
FFFFE0
FFFFE0
ENDCHAR
STARTCHAR 2310
ENCODING 8976
SWIDTH 581 0
DWIDTH 21 0
BBX 19 11 1 3
BITMAP
FFFFE0
FFFFE0
FFFFE0
E00000
E00000
E00000
E00000
E00000
E00000
E00000
E00000
ENDCHAR
STARTCHAR 2320
ENCODING 8992
SWIDTH 609 0
DWIDTH 22 0
BBX 6 41 10 -8
BITMAP
38
7C
7C
D8
C0
C0
C0
C0
C0
C0
C0
C0
C0
C0
C0
C0
C0
C0
C0
C0
C0
C0
C0
C0
C0
C0
C0
C0
C0
C0
C0
C0
C0
C0
C0
C0
C0
C0
C0
C0
C0
ENDCHAR
STARTCHAR 2321
ENCODING 8993
SWIDTH 609 0
DWIDTH 22 0
BBX 6 41 6 -8
BITMAP
0C
0C
0C
0C
0C
0C
0C
0C
0C
0C
0C
0C
0C
0C
0C
0C
0C
0C
0C
0C
0C
0C
0C
0C
0C
0C
0C
0C
0C
0C
0C
0C
0C
0C
0C
0C
0C
68
F8
F8
60
ENDCHAR
STARTCHAR 2329
ENCODING 9001
SWIDTH 332 0
DWIDTH 12 0
BBX 8 26 2 -5
BITMAP
01
03
02
06
06
0C
0C
18
18
38
30
70
60
E0
60
70
30
38
18
18
0C
0C
06
06
02
03
ENDCHAR
STARTCHAR 232A
ENCODING 9002
SWIDTH 332 0
DWIDTH 12 0
BBX 8 26 2 -5
BITMAP
80
C0
40
60
60
30
30
18
18
1C
0C
0E
06
07
06
0E
0C
1C
18
18
30
30
60
60
40
C0
ENDCHAR
STARTCHAR 2500
ENCODING 9472
SWIDTH 996 0
DWIDTH 36 0
BBX 36 2 0 8
BITMAP
FFFFFFFFF0
FFFFFFFFF0
ENDCHAR
STARTCHAR 2502
ENCODING 9474
SWIDTH 996 0
DWIDTH 36 0
BBX 2 36 17 -9
BITMAP
C0
C0
C0
C0
C0
C0
C0
C0
C0
C0
C0
C0
C0
C0
C0
C0
C0
C0
C0
C0
C0
C0
C0
C0
C0
C0
C0
C0
C0
C0
C0
C0
C0
C0
C0
C0
ENDCHAR
STARTCHAR 250C
ENCODING 9484
SWIDTH 996 0
DWIDTH 36 0
BBX 19 19 17 -9
BITMAP
FFFFE0
FFFFE0
C00000
C00000
C00000
C00000
C00000
C00000
C00000
C00000
C00000
C00000
C00000
C00000
C00000
C00000
C00000
C00000
C00000
ENDCHAR
STARTCHAR 2510
ENCODING 9488
SWIDTH 996 0
DWIDTH 36 0
BBX 19 19 0 -9
BITMAP
FFFFE0
FFFFE0
000060
000060
000060
000060
000060
000060
000060
000060
000060
000060
000060
000060
000060
000060
000060
000060
000060
ENDCHAR
STARTCHAR 2514
ENCODING 9492
SWIDTH 996 0
DWIDTH 36 0
BBX 19 19 17 8
BITMAP
C00000
C00000
C00000
C00000
C00000
C00000
C00000
C00000
C00000
C00000
C00000
C00000
C00000
C00000
C00000
C00000
C00000
FFFFE0
FFFFE0
ENDCHAR
STARTCHAR 2518
ENCODING 9496
SWIDTH 996 0
DWIDTH 36 0
BBX 19 19 0 8
BITMAP
000060
000060
000060
000060
000060
000060
000060
000060
000060
000060
000060
000060
000060
000060
000060
000060
000060
FFFFE0
FFFFE0
ENDCHAR
STARTCHAR 251C
ENCODING 9500
SWIDTH 996 0
DWIDTH 36 0
BBX 19 36 17 -9
BITMAP
C00000
C00000
C00000
C00000
C00000
C00000
C00000
C00000
C00000
C00000
C00000
C00000
C00000
C00000
C00000
C00000
C00000
FFFFE0
FFFFE0
C00000
C00000
C00000
C00000
C00000
C00000
C00000
C00000
C00000
C00000
C00000
C00000
C00000
C00000
C00000
C00000
C00000
ENDCHAR
STARTCHAR 2524
ENCODING 9508
SWIDTH 996 0
DWIDTH 36 0
BBX 19 36 0 -9
BITMAP
000060
000060
000060
000060
000060
000060
000060
000060
000060
000060
000060
000060
000060
000060
000060
000060
000060
FFFFE0
FFFFE0
000060
000060
000060
000060
000060
000060
000060
000060
000060
000060
000060
000060
000060
000060
000060
000060
000060
ENDCHAR
STARTCHAR 252C
ENCODING 9516
SWIDTH 996 0
DWIDTH 36 0
BBX 36 19 0 -9
BITMAP
FFFFFFFFF0
FFFFFFFFF0
0000600000
0000600000
0000600000
0000600000
0000600000
0000600000
0000600000
0000600000
0000600000
0000600000
0000600000
0000600000
0000600000
0000600000
0000600000
0000600000
0000600000
ENDCHAR
STARTCHAR 2534
ENCODING 9524
SWIDTH 996 0
DWIDTH 36 0
BBX 36 19 0 8
BITMAP
0000600000
0000600000
0000600000
0000600000
0000600000
0000600000
0000600000
0000600000
0000600000
0000600000
0000600000
0000600000
0000600000
0000600000
0000600000
0000600000
0000600000
FFFFFFFFF0
FFFFFFFFF0
ENDCHAR
STARTCHAR 253C
ENCODING 9532
SWIDTH 996 0
DWIDTH 36 0
BBX 36 36 0 -9
BITMAP
0000600000
0000600000
0000600000
0000600000
0000600000
0000600000
0000600000
0000600000
0000600000
0000600000
0000600000
0000600000
0000600000
0000600000
0000600000
0000600000
0000600000
FFFFFFFFF0
FFFFFFFFF0
0000600000
0000600000
0000600000
0000600000
0000600000
0000600000
0000600000
0000600000
0000600000
0000600000
0000600000
0000600000
0000600000
0000600000
0000600000
0000600000
0000600000
ENDCHAR
STARTCHAR 2550
ENCODING 9552
SWIDTH 996 0
DWIDTH 36 0
BBX 36 6 0 6
BITMAP
FFFFFFFFF0
FFFFFFFFF0
0000000000
0000000000
FFFFFFFFF0
FFFFFFFFF0
ENDCHAR
STARTCHAR 2551
ENCODING 9553
SWIDTH 996 0
DWIDTH 36 0
BBX 8 36 14 -9
BITMAP
E7
E7
E7
E7
E7
E7
E7
E7
E7
E7
E7
E7
E7
E7
E7
E7
E7
E7
E7
E7
E7
E7
E7
E7
E7
E7
E7
E7
E7
E7
E7
E7
E7
E7
E7
E7
ENDCHAR
STARTCHAR 2552
ENCODING 9554
SWIDTH 996 0
DWIDTH 36 0
BBX 19 21 17 -9
BITMAP
FFFFE0
FFFFE0
C00000
C00000
FFFFE0
FFFFE0
C00000
C00000
C00000
C00000
C00000
C00000
C00000
C00000
C00000
C00000
C00000
C00000
C00000
C00000
C00000
ENDCHAR
STARTCHAR 2553
ENCODING 9555
SWIDTH 996 0
DWIDTH 36 0
BBX 22 19 14 -9
BITMAP
FFFFFC
FFFFFC
E70000
E70000
E70000
E70000
E70000
E70000
E70000
E70000
E70000
E70000
E70000
E70000
E70000
E70000
E70000
E70000
E70000
ENDCHAR
STARTCHAR 2554
ENCODING 9556
SWIDTH 996 0
DWIDTH 36 0
BBX 22 21 14 -9
BITMAP
FFFFFC
FFFFFC
E00000
E00000
E7FFFC
E7FFFC
E70000
E70000
E70000
E70000
E70000
E70000
E70000
E70000
E70000
E70000
E70000
E70000
E70000
E70000
E70000
ENDCHAR
STARTCHAR 2555
ENCODING 9557
SWIDTH 996 0
DWIDTH 36 0
BBX 19 21 0 -9
BITMAP
FFFFE0
FFFFE0
000060
000060
FFFFE0
FFFFE0
000060
000060
000060
000060
000060
000060
000060
000060
000060
000060
000060
000060
000060
000060
000060
ENDCHAR
STARTCHAR 2556
ENCODING 9558
SWIDTH 996 0
DWIDTH 36 0
BBX 22 19 0 -9
BITMAP
FFFFFC
FFFFFC
00039C
00039C
00039C
00039C
00039C
00039C
00039C
00039C
00039C
00039C
00039C
00039C
00039C
00039C
00039C
00039C
00039C
ENDCHAR
STARTCHAR 2557
ENCODING 9559
SWIDTH 996 0
DWIDTH 36 0
BBX 22 21 0 -9
BITMAP
FFFFFC
FFFFFC
00001C
00001C
FFFF9C
FFFF9C
00039C
00039C
00039C
00039C
00039C
00039C
00039C
00039C
00039C
00039C
00039C
00039C
00039C
00039C
00039C
ENDCHAR
STARTCHAR 2558
ENCODING 9560
SWIDTH 996 0
DWIDTH 36 0
BBX 19 21 17 6
BITMAP
C00000
C00000
C00000
C00000
C00000
C00000
C00000
C00000
C00000
C00000
C00000
C00000
C00000
C00000
C00000
FFFFE0
FFFFE0
C00000
C00000
FFFFE0
FFFFE0
ENDCHAR
STARTCHAR 2559
ENCODING 9561
SWIDTH 996 0
DWIDTH 36 0
BBX 22 19 14 8
BITMAP
E70000
E70000
E70000
E70000
E70000
E70000
E70000
E70000
E70000
E70000
E70000
E70000
E70000
E70000
E70000
E70000
E70000
FFFFFC
FFFFFC
ENDCHAR
STARTCHAR 255A
ENCODING 9562
SWIDTH 996 0
DWIDTH 36 0
BBX 22 21 14 6
BITMAP
E70000
E70000
E70000
E70000
E70000
E70000
E70000
E70000
E70000
E70000
E70000
E70000
E70000
E70000
E70000
E7FFFC
E7FFFC
E00000
E00000
FFFFFC
FFFFFC
ENDCHAR
STARTCHAR 255B
ENCODING 9563
SWIDTH 996 0
DWIDTH 36 0
BBX 19 21 0 6
BITMAP
000060
000060
000060
000060
000060
000060
000060
000060
000060
000060
000060
000060
000060
000060
000060
FFFFE0
FFFFE0
000060
000060
FFFFE0
FFFFE0
ENDCHAR
STARTCHAR 255C
ENCODING 9564
SWIDTH 996 0
DWIDTH 36 0
BBX 22 19 0 8
BITMAP
00039C
00039C
00039C
00039C
00039C
00039C
00039C
00039C
00039C
00039C
00039C
00039C
00039C
00039C
00039C
00039C
00039C
FFFFFC
FFFFFC
ENDCHAR
STARTCHAR 255D
ENCODING 9565
SWIDTH 996 0
DWIDTH 36 0
BBX 22 21 0 6
BITMAP
00039C
00039C
00039C
00039C
00039C
00039C
00039C
00039C
00039C
00039C
00039C
00039C
00039C
00039C
00039C
FFFF9C
FFFF9C
00001C
00001C
FFFFFC
FFFFFC
ENDCHAR
STARTCHAR 255E
ENCODING 9566
SWIDTH 996 0
DWIDTH 36 0
BBX 19 36 17 -9
BITMAP
C00000
C00000
C00000
C00000
C00000
C00000
C00000
C00000
C00000
C00000
C00000
C00000
C00000
C00000
C00000
FFFFE0
FFFFE0
C00000
C00000
FFFFE0
FFFFE0
C00000
C00000
C00000
C00000
C00000
C00000
C00000
C00000
C00000
C00000
C00000
C00000
C00000
C00000
C00000
ENDCHAR
STARTCHAR 255F
ENCODING 9567
SWIDTH 996 0
DWIDTH 36 0
BBX 22 36 14 -9
BITMAP
E70000
E70000
E70000
E70000
E70000
E70000
E70000
E70000
E70000
E70000
E70000
E70000
E70000
E70000
E70000
E70000
E70000
E7FFFC
E7FFFC
E70000
E70000
E70000
E70000
E70000
E70000
E70000
E70000
E70000
E70000
E70000
E70000
E70000
E70000
E70000
E70000
E70000
ENDCHAR
STARTCHAR 2560
ENCODING 9568
SWIDTH 996 0
DWIDTH 36 0
BBX 22 36 14 -9
BITMAP
E70000
E70000
E70000
E70000
E70000
E70000
E70000
E70000
E70000
E70000
E70000
E70000
E70000
E70000
E70000
E7FFFC
E7FFFC
E00000
E00000
E7FFFC
E7FFFC
E70000
E70000
E70000
E70000
E70000
E70000
E70000
E70000
E70000
E70000
E70000
E70000
E70000
E70000
E70000
ENDCHAR
STARTCHAR 2561
ENCODING 9569
SWIDTH 996 0
DWIDTH 36 0
BBX 19 36 0 -9
BITMAP
000060
000060
000060
000060
000060
000060
000060
000060
000060
000060
000060
000060
000060
000060
000060
FFFFE0
FFFFE0
000060
000060
FFFFE0
FFFFE0
000060
000060
000060
000060
000060
000060
000060
000060
000060
000060
000060
000060
000060
000060
000060
ENDCHAR
STARTCHAR 2562
ENCODING 9570
SWIDTH 996 0
DWIDTH 36 0
BBX 22 36 0 -9
BITMAP
00039C
00039C
00039C
00039C
00039C
00039C
00039C
00039C
00039C
00039C
00039C
00039C
00039C
00039C
00039C
00039C
00039C
FFFF9C
FFFF9C
00039C
00039C
00039C
00039C
00039C
00039C
00039C
00039C
00039C
00039C
00039C
00039C
00039C
00039C
00039C
00039C
00039C
ENDCHAR
STARTCHAR 2563
ENCODING 9571
SWIDTH 996 0
DWIDTH 36 0
BBX 22 36 0 -9
BITMAP
00039C
00039C
00039C
00039C
00039C
00039C
00039C
00039C
00039C
00039C
00039C
00039C
00039C
00039C
00039C
FFFF9C
FFFF9C
00001C
00001C
FFFF9C
FFFF9C
00039C
00039C
00039C
00039C
00039C
00039C
00039C
00039C
00039C
00039C
00039C
00039C
00039C
00039C
00039C
ENDCHAR
STARTCHAR 2564
ENCODING 9572
SWIDTH 996 0
DWIDTH 36 0
BBX 36 21 0 -9
BITMAP
FFFFFFFFF0
FFFFFFFFF0
0000000000
0000000000
FFFFFFFFF0
FFFFFFFFF0
0000600000
0000600000
0000600000
0000600000
0000600000
0000600000
0000600000
0000600000
0000600000
0000600000
0000600000
0000600000
0000600000
0000600000
0000600000
ENDCHAR
STARTCHAR 2565
ENCODING 9573
SWIDTH 996 0
DWIDTH 36 0
BBX 36 19 0 -9
BITMAP
FFFFFFFFF0
FFFFFFFFF0
00039C0000
00039C0000
00039C0000
00039C0000
00039C0000
00039C0000
00039C0000
00039C0000
00039C0000
00039C0000
00039C0000
00039C0000
00039C0000
00039C0000
00039C0000
00039C0000
00039C0000
ENDCHAR
STARTCHAR 2566
ENCODING 9574
SWIDTH 996 0
DWIDTH 36 0
BBX 36 21 0 -9
BITMAP
FFFFFFFFF0
FFFFFFFFF0
0000000000
0000000000
FFFF9FFFF0
FFFF9FFFF0
00039C0000
00039C0000
00039C0000
00039C0000
00039C0000
00039C0000
00039C0000
00039C0000
00039C0000
00039C0000
00039C0000
00039C0000
00039C0000
00039C0000
00039C0000
ENDCHAR
STARTCHAR 2567
ENCODING 9575
SWIDTH 996 0
DWIDTH 36 0
BBX 36 21 0 6
BITMAP
0000600000
0000600000
0000600000
0000600000
0000600000
0000600000
0000600000
0000600000
0000600000
0000600000
0000600000
0000600000
0000600000
0000600000
0000600000
FFFFFFFFF0
FFFFFFFFF0
0000000000
0000000000
FFFFFFFFF0
FFFFFFFFF0
ENDCHAR
STARTCHAR 2568
ENCODING 9576
SWIDTH 996 0
DWIDTH 36 0
BBX 36 19 0 8
BITMAP
00039C0000
00039C0000
00039C0000
00039C0000
00039C0000
00039C0000
00039C0000
00039C0000
00039C0000
00039C0000
00039C0000
00039C0000
00039C0000
00039C0000
00039C0000
00039C0000
00039C0000
FFFFFFFFF0
FFFFFFFFF0
ENDCHAR
STARTCHAR 2569
ENCODING 9577
SWIDTH 996 0
DWIDTH 36 0
BBX 36 21 0 6
BITMAP
00039C0000
00039C0000
00039C0000
00039C0000
00039C0000
00039C0000
00039C0000
00039C0000
00039C0000
00039C0000
00039C0000
00039C0000
00039C0000
00039C0000
00039C0000
FFFF9FFFF0
FFFF9FFFF0
0000000000
0000000000
FFFFFFFFF0
FFFFFFFFF0
ENDCHAR
STARTCHAR 256A
ENCODING 9578
SWIDTH 996 0
DWIDTH 36 0
BBX 36 36 0 -9
BITMAP
0000600000
0000600000
0000600000
0000600000
0000600000
0000600000
0000600000
0000600000
0000600000
0000600000
0000600000
0000600000
0000600000
0000600000
0000600000
FFFFFFFFF0
FFFFFFFFF0
0000600000
0000600000
FFFFFFFFF0
FFFFFFFFF0
0000600000
0000600000
0000600000
0000600000
0000600000
0000600000
0000600000
0000600000
0000600000
0000600000
0000600000
0000600000
0000600000
0000600000
0000600000
ENDCHAR
STARTCHAR 256B
ENCODING 9579
SWIDTH 996 0
DWIDTH 36 0
BBX 36 36 0 -9
BITMAP
00039C0000
00039C0000
00039C0000
00039C0000
00039C0000
00039C0000
00039C0000
00039C0000
00039C0000
00039C0000
00039C0000
00039C0000
00039C0000
00039C0000
00039C0000
00039C0000
00039C0000
FFFFFFFFF0
FFFFFFFFF0
00039C0000
00039C0000
00039C0000
00039C0000
00039C0000
00039C0000
00039C0000
00039C0000
00039C0000
00039C0000
00039C0000
00039C0000
00039C0000
00039C0000
00039C0000
00039C0000
00039C0000
ENDCHAR
STARTCHAR 256C
ENCODING 9580
SWIDTH 996 0
DWIDTH 36 0
BBX 36 36 0 -9
BITMAP
00039C0000
00039C0000
00039C0000
00039C0000
00039C0000
00039C0000
00039C0000
00039C0000
00039C0000
00039C0000
00039C0000
00039C0000
00039C0000
00039C0000
00039C0000
FFFF9FFFF0
FFFF9FFFF0
0000000000
0000000000
FFFF9FFFF0
FFFF9FFFF0
00039C0000
00039C0000
00039C0000
00039C0000
00039C0000
00039C0000
00039C0000
00039C0000
00039C0000
00039C0000
00039C0000
00039C0000
00039C0000
00039C0000
00039C0000
ENDCHAR
STARTCHAR 256D
ENCODING 9581
SWIDTH 996 0
DWIDTH 36 0
BBX 19 19 17 -9
BITMAP
001FE0
00FFE0
03F000
078000
0E0000
1C0000
380000
700000
700000
600000
E00000
E00000
C00000
C00000
C00000
C00000
C00000
C00000
C00000
ENDCHAR
STARTCHAR 256E
ENCODING 9582
SWIDTH 996 0
DWIDTH 36 0
BBX 19 19 0 -9
BITMAP
FF8000
FFE000
03F800
003C00
000E00
000700
000380
0001C0
0001C0
0000C0
0000E0
0000E0
000060
000060
000060
000060
000060
000060
000060
ENDCHAR
STARTCHAR 256F
ENCODING 9583
SWIDTH 996 0
DWIDTH 36 0
BBX 19 19 0 8
BITMAP
000060
000060
000060
000060
000060
000060
000060
0000E0
0000E0
0000C0
0001C0
000180
000380
000700
000E00
003C00
07F800
FFE000
FE0000
ENDCHAR
STARTCHAR 2570
ENCODING 9584
SWIDTH 996 0
DWIDTH 36 0
BBX 19 19 17 8
BITMAP
C00000
C00000
C00000
C00000
C00000
C00000
C00000
E00000
E00000
600000
700000
300000
380000
1C0000
0E0000
07C000
03FC00
00FFE0
001FE0
ENDCHAR
STARTCHAR 2580
ENCODING 9600
SWIDTH 996 0
DWIDTH 36 0
BBX 36 18 0 9
BITMAP
FFFFFFFFF0
FFFFFFFFF0
FFFFFFFFF0
FFFFFFFFF0
FFFFFFFFF0
FFFFFFFFF0
FFFFFFFFF0
FFFFFFFFF0
FFFFFFFFF0
FFFFFFFFF0
FFFFFFFFF0
FFFFFFFFF0
FFFFFFFFF0
FFFFFFFFF0
FFFFFFFFF0
FFFFFFFFF0
FFFFFFFFF0
FFFFFFFFF0
ENDCHAR
STARTCHAR 2584
ENCODING 9604
SWIDTH 996 0
DWIDTH 36 0
BBX 36 18 0 -9
BITMAP
FFFFFFFFF0
FFFFFFFFF0
FFFFFFFFF0
FFFFFFFFF0
FFFFFFFFF0
FFFFFFFFF0
FFFFFFFFF0
FFFFFFFFF0
FFFFFFFFF0
FFFFFFFFF0
FFFFFFFFF0
FFFFFFFFF0
FFFFFFFFF0
FFFFFFFFF0
FFFFFFFFF0
FFFFFFFFF0
FFFFFFFFF0
FFFFFFFFF0
ENDCHAR
STARTCHAR 2588
ENCODING 9608
SWIDTH 996 0
DWIDTH 36 0
BBX 36 36 0 -9
BITMAP
FFFFFFFFF0
FFFFFFFFF0
FFFFFFFFF0
FFFFFFFFF0
FFFFFFFFF0
FFFFFFFFF0
FFFFFFFFF0
FFFFFFFFF0
FFFFFFFFF0
FFFFFFFFF0
FFFFFFFFF0
FFFFFFFFF0
FFFFFFFFF0
FFFFFFFFF0
FFFFFFFFF0
FFFFFFFFF0
FFFFFFFFF0
FFFFFFFFF0
FFFFFFFFF0
FFFFFFFFF0
FFFFFFFFF0
FFFFFFFFF0
FFFFFFFFF0
FFFFFFFFF0
FFFFFFFFF0
FFFFFFFFF0
FFFFFFFFF0
FFFFFFFFF0
FFFFFFFFF0
FFFFFFFFF0
FFFFFFFFF0
FFFFFFFFF0
FFFFFFFFF0
FFFFFFFFF0
FFFFFFFFF0
FFFFFFFFF0
ENDCHAR
STARTCHAR 258C
ENCODING 9612
SWIDTH 996 0
DWIDTH 36 0
BBX 18 36 0 -9
BITMAP
FFFFC0
FFFFC0
FFFFC0
FFFFC0
FFFFC0
FFFFC0
FFFFC0
FFFFC0
FFFFC0
FFFFC0
FFFFC0
FFFFC0
FFFFC0
FFFFC0
FFFFC0
FFFFC0
FFFFC0
FFFFC0
FFFFC0
FFFFC0
FFFFC0
FFFFC0
FFFFC0
FFFFC0
FFFFC0
FFFFC0
FFFFC0
FFFFC0
FFFFC0
FFFFC0
FFFFC0
FFFFC0
FFFFC0
FFFFC0
FFFFC0
FFFFC0
ENDCHAR
STARTCHAR 2590
ENCODING 9616
SWIDTH 996 0
DWIDTH 36 0
BBX 18 36 18 -9
BITMAP
FFFFC0
FFFFC0
FFFFC0
FFFFC0
FFFFC0
FFFFC0
FFFFC0
FFFFC0
FFFFC0
FFFFC0
FFFFC0
FFFFC0
FFFFC0
FFFFC0
FFFFC0
FFFFC0
FFFFC0
FFFFC0
FFFFC0
FFFFC0
FFFFC0
FFFFC0
FFFFC0
FFFFC0
FFFFC0
FFFFC0
FFFFC0
FFFFC0
FFFFC0
FFFFC0
FFFFC0
FFFFC0
FFFFC0
FFFFC0
FFFFC0
FFFFC0
ENDCHAR
STARTCHAR 2591
ENCODING 9617
SWIDTH 996 0
DWIDTH 36 0
BBX 30 30 1 -3
BITMAP
FC0FC0FC
FC0FC0FC
FC0FC0FC
FC0FC0FC
FC0FC0FC
FC0FC0FC
00000000
00000000
00000000
00000000
00000000
00000000
FC0FC0FC
FC0FC0FC
FC0FC0FC
FC0FC0FC
FC0FC0FC
FC0FC0FC
00000000
00000000
00000000
00000000
00000000
00000000
FC0FC0FC
FC0FC0FC
FC0FC0FC
FC0FC0FC
FC0FC0FC
FC0FC0FC
ENDCHAR
STARTCHAR 2592
ENCODING 9618
SWIDTH 996 0
DWIDTH 36 0
BBX 36 36 0 -9
BITMAP
FC0FC0FC00
FC0FC0FC00
FC0FC0FC00
FC0FC0FC00
FC0FC0FC00
FC0FC0FC00
03F03F03F0
03F03F03F0
03F03F03F0
03F03F03F0
03F03F03F0
03F03F03F0
FC0FC0FC00
FC0FC0FC00
FC0FC0FC00
FC0FC0FC00
FC0FC0FC00
FC0FC0FC00
03F03F03F0
03F03F03F0
03F03F03F0
03F03F03F0
03F03F03F0
03F03F03F0
FC0FC0FC00
FC0FC0FC00
FC0FC0FC00
FC0FC0FC00
FC0FC0FC00
FC0FC0FC00
03F03F03F0
03F03F03F0
03F03F03F0
03F03F03F0
03F03F03F0
03F03F03F0
ENDCHAR
STARTCHAR 2593
ENCODING 9619
SWIDTH 996 0
DWIDTH 36 0
BBX 36 36 0 -9
BITMAP
FFFFFFFFF0
FFFFFFFFF0
FFFFFFFFF0
FFFFFFFFF0
FFFFFFFFF0
FFFFFFFFF0
FC0FC0FC00
FC0FC0FC00
FC0FC0FC00
FC0FC0FC00
FC0FC0FC00
FC0FC0FC00
FFFFFFFFF0
FFFFFFFFF0
FFFFFFFFF0
FFFFFFFFF0
FFFFFFFFF0
FFFFFFFFF0
FC0FC0FC00
FC0FC0FC00
FC0FC0FC00
FC0FC0FC00
FC0FC0FC00
FC0FC0FC00
FFFFFFFFF0
FFFFFFFFF0
FFFFFFFFF0
FFFFFFFFF0
FFFFFFFFF0
FFFFFFFFF0
FC0FC0FC00
FC0FC0FC00
FC0FC0FC00
FC0FC0FC00
FC0FC0FC00
FC0FC0FC00
ENDCHAR
STARTCHAR 25A0
ENCODING 9632
SWIDTH 609 0
DWIDTH 22 0
BBX 26 26 -2 0
BITMAP
FFFFFFC0
FFFFFFC0
FFFFFFC0
FFFFFFC0
FFFFFFC0
FFFFFFC0
FFFFFFC0
FFFFFFC0
FFFFFFC0
FFFFFFC0
FFFFFFC0
FFFFFFC0
FFFFFFC0
FFFFFFC0
FFFFFFC0
FFFFFFC0
FFFFFFC0
FFFFFFC0
FFFFFFC0
FFFFFFC0
FFFFFFC0
FFFFFFC0
FFFFFFC0
FFFFFFC0
FFFFFFC0
FFFFFFC0
ENDCHAR
STARTCHAR 25A1
ENCODING 9633
SWIDTH 609 0
DWIDTH 22 0
BBX 18 19 2 0
BITMAP
FFFFC0
FFFFC0
8000C0
8000C0
8000C0
8000C0
8000C0
8000C0
8000C0
8000C0
8000C0
8000C0
8000C0
8000C0
8000C0
8000C0
8000C0
FFFFC0
FFFFC0
ENDCHAR
STARTCHAR 25AA
ENCODING 9642
SWIDTH 360 0
DWIDTH 13 0
BBX 9 9 2 5
BITMAP
FF80
FF80
FF80
FF80
FF80
FF80
FF80
FF80
FF80
ENDCHAR
STARTCHAR 25AB
ENCODING 9643
SWIDTH 360 0
DWIDTH 13 0
BBX 9 9 2 5
BITMAP
FF80
FF80
C180
C180
C180
C180
C180
FF80
FF80
ENDCHAR
STARTCHAR 25AC
ENCODING 9644
SWIDTH 996 0
DWIDTH 36 0
BBX 26 13 5 0
BITMAP
FFFFFFC0
FFFFFFC0
FFFFFFC0
FFFFFFC0
FFFFFFC0
FFFFFFC0
FFFFFFC0
FFFFFFC0
FFFFFFC0
FFFFFFC0
FFFFFFC0
FFFFFFC0
FFFFFFC0
ENDCHAR
STARTCHAR 25B2
ENCODING 9650
SWIDTH 996 0
DWIDTH 36 0
BBX 22 20 7 3
BITMAP
003000
003000
007800
007800
00FC00
00FC00
01FE00
03FE00
03FF00
07FF00
07FF80
0FFF80
0FFFC0
1FFFC0
1FFFE0
3FFFF0
3FFFF0
7FFFF8
7FFFF8
FFFFFC
ENDCHAR
STARTCHAR 25B5
ENCODING 9653
SWIDTH 720 0
DWIDTH 26 0
BBX 16 17 5 1
BITMAP
0100
0180
0180
03C0
03C0
07E0
0660
0E70
0C30
1C38
1818
381C
300C
700E
6006
FFFF
FFFF
ENDCHAR
STARTCHAR 25B9
ENCODING 9657
SWIDTH 720 0
DWIDTH 26 0
BBX 16 16 5 1
BITMAP
C000
E000
F800
DE00
C780
C1E0
C078
C01E
C00F
C07C
C1F0
C7C0
DF00
FC00
F000
C000
ENDCHAR
STARTCHAR 25BA
ENCODING 9658
SWIDTH 996 0
DWIDTH 36 0
BBX 20 14 8 5
BITMAP
C00000
F80000
FE0000
FFC000
FFF800
FFFF00
FFFFE0
FFFFF0
FFFF80
FFFC00
FFF000
FF8000
FC0000
E00000
ENDCHAR
STARTCHAR 25BC
ENCODING 9660
SWIDTH 996 0
DWIDTH 36 0
BBX 22 20 7 1
BITMAP
FFFFFC
7FFFF8
7FFFF8
3FFFF0
3FFFE0
1FFFE0
1FFFC0
0FFFC0
0FFF80
07FF80
07FF00
03FF00
01FE00
01FE00
00FC00
00FC00
007800
007800
003000
002000
ENDCHAR
STARTCHAR 25BF
ENCODING 9663
SWIDTH 720 0
DWIDTH 26 0
BBX 16 16 5 1
BITMAP
FFFF
FFFF
6006
700E
300C
381C
1818
1C38
0C30
0E70
0660
07E0
03C0
03C0
0180
0180
ENDCHAR
STARTCHAR 25C3
ENCODING 9667
SWIDTH 720 0
DWIDTH 26 0
BBX 16 16 5 1
BITMAP
0003
0007
001F
007B
01E3
0783
1E03
7803
F003
3E03
0F83
03E3
00FB
003F
000F
0003
ENDCHAR
STARTCHAR 25C4
ENCODING 9668
SWIDTH 996 0
DWIDTH 36 0
BBX 19 14 8 5
BITMAP
000020
0001E0
000FE0
003FE0
01FFE0
0FFFE0
7FFFE0
FFFFE0
1FFFE0
07FFE0
00FFE0
001FE0
0003E0
000060
ENDCHAR
STARTCHAR 25C6
ENCODING 9670
SWIDTH 996 0
DWIDTH 36 0
BBX 18 20 9 1
BITMAP
00C000
01E000
03F000
03F800
07FC00
0FFE00
1FFE00
3FFF00
7FFF80
FFFFC0
FFFFC0
7FFF80
3FFF80
1FFF00
0FFE00
07FC00
03F800
03F000
01E000
00C000
ENDCHAR
STARTCHAR 25C7
ENCODING 9671
SWIDTH 996 0
DWIDTH 36 0
BBX 22 24 7 1
BITMAP
003000
007800
00CC00
018600
030300
060180
0C00C0
080060
100020
200010
400008
C00004
400008
200018
300030
180060
0C00C0
060180
030300
018600
00C400
004800
003000
001000
ENDCHAR
STARTCHAR 25CA
ENCODING 9674
SWIDTH 470 0
DWIDTH 17 0
BBX 16 27 0 0
BITMAP
01C0
01C0
03E0
0360
0670
0E30
0C38
1C18
181C
380C
300E
7006
6003
E003
6003
7006
3006
380C
180C
1C18
0C18
0E30
0630
0760
0360
03C0
01C0
ENDCHAR
STARTCHAR 25CB
ENCODING 9675
SWIDTH 609 0
DWIDTH 22 0
BBX 20 20 1 3
BITMAP
01F800
07FE00
1E0780
3801C0
3000C0
600060
400060
C00030
C00030
C00030
C00030
C00030
C00030
400060
600060
3000C0
3801C0
1E0700
07FE00
01F800
ENDCHAR
STARTCHAR 25CF
ENCODING 9679
SWIDTH 609 0
DWIDTH 22 0
BBX 18 19 2 0
BITMAP
01E000
0FFC00
1FFE00
3FFF00
7FFF80
7FFF80
FFFFC0
FFFFC0
FFFFC0
FFFFC0
FFFFC0
FFFFC0
FFFFC0
FFFF80
7FFF80
3FFF00
1FFE00
0FFC00
03F000
ENDCHAR
STARTCHAR 25D8
ENCODING 9688
SWIDTH 609 0
DWIDTH 22 0
BBX 22 23 0 0
BITMAP
FFFFFC
FFFFFC
FFFFFC
FFFFFC
FFFFFC
FFFFFC
FFFFFC
FF87FC
FF03FC
FE01FC
FC01FC
FC01FC
FC01FC
FE01FC
FE01FC
FF03FC
FFFFFC
FFFFFC
FFFFFC
FFFFFC
FFFFFC
FFFFFC
FFFFFC
ENDCHAR
STARTCHAR 25D9
ENCODING 9689
SWIDTH 609 0
DWIDTH 22 0
BBX 26 26 -2 0
BITMAP
FFFFFFC0
FFFFFFC0
FFFFFFC0
FF80FFC0
FE0C3FC0
FC7F8FC0
F9FFC7C0
F1FFE7C0
F3FFF3C0
E7FFFBC0
E7FFF9C0
E7FFF9C0
E7FFF9C0
E7FFF9C0
E7FFF9C0
E7FFF9C0
F3FFF3C0
F3FFF3C0
F9FFE7C0
FCFFCFC0
FE3F1FC0
FF003FC0
FFC1FFC0
FFFFFFC0
FFFFFFC0
FFFFFFC0
ENDCHAR
STARTCHAR 25E6
ENCODING 9702
SWIDTH 498 0
DWIDTH 18 0
BBX 14 14 2 3
BITMAP
0FC0
1FE0
3870
7038
6018
C01C
C00C
C00C
C01C
6018
7038
3870
1FE0
0F80
ENDCHAR
STARTCHAR 263A
ENCODING 9786
SWIDTH 1024 0
DWIDTH 37 0
BBX 27 26 5 0
BITMAP
003F8000
01FFF000
03807800
0E000E00
1C000700
18000300
30000180
60404180
60E0E0C0
60E0E0C0
40E0E040
C0000060
C8000460
C4000460
C4000460
42000840
630018C0
61C070C0
31FFF180
30FFC180
183F8300
1C000600
0E000C00
03803800
01FFF000
003F8000
ENDCHAR
STARTCHAR 263B
ENCODING 9787
SWIDTH 1052 0
DWIDTH 38 0
BBX 26 26 6 0
BITMAP
003F8000
01FFE000
07FFF800
0FFFFC00
1FFFFE00
3FFFFF00
3FFFFF80
7FFFFF80
7E1E1F80
FE1E1FC0
FF1E1FC0
FFFFFFC0
FFFFFFC0
FFFFFFC0
FBFFF7C0
F9FFE7C0
FCFFC7C0
7C3F0F80
7E001F80
3F003F00
3FE0FF00
1FFFFE00
0FFFFC00
07FFF800
01FFE000
007F0000
ENDCHAR
STARTCHAR 263C
ENCODING 9788
SWIDTH 913 0
DWIDTH 33 0
BBX 27 28 3 0
BITMAP
000E0000
000E0000
000E0000
080E0200
1C0E0700
0E7FCE00
07FFFC00
03E0F800
03803800
07001C00
07001C00
06000E00
0E000E00
FE000FE0
FE000FE0
0E000E00
0E000E00
07001C00
07801C00
03C03800
03F0F800
07FFFC00
0E7FCE00
1C0E0700
080E0200
000E0000
000E0000
000E0000
ENDCHAR
STARTCHAR 2640
ENCODING 9792
SWIDTH 747 0
DWIDTH 27 0
BBX 13 25 7 1
BITMAP
0F80
1FE0
3070
6030
C018
C018
C018
C018
C018
6030
7070
3FE0
1FC0
0200
0200
0200
0200
FFF8
FFF8
0200
0200
0200
0200
0200
0200
ENDCHAR
STARTCHAR 2642
ENCODING 9794
SWIDTH 747 0
DWIDTH 27 0
BBX 19 21 4 5
BITMAP
001FE0
000FE0
0003E0
0001E0
000360
000660
000C60
071820
1FF000
30E000
603000
C01800
C01800
C01800
C01800
C01800
C01000
603000
70E000
1FC000
070000
ENDCHAR
STARTCHAR 2660
ENCODING 9824
SWIDTH 526 0
DWIDTH 19 0
BBX 22 26 0 1
BITMAP
003000
003000
007000
007800
00FC00
01FE00
03FF00
07FF80
0FFFC0
1FFFE0
3FFFF0
7FFFF8
7FFFF8
FFFFFC
FFFFFC
FFFFFC
FFEFF8
7FEFF8
3FA7F0
1E31E0
003000
003000
007800
00FC00
03FF00
3FFFF0
ENDCHAR
STARTCHAR 2663
ENCODING 9827
SWIDTH 664 0
DWIDTH 24 0
BBX 26 26 -1 0
BITMAP
003E0000
007F8000
00FFC000
01FFC000
01FFE000
01FFE000
01FFE000
01FFC000
00FFC800
3FFFFF00
7FFFFF80
FFFFFF80
FFFFFFC0
FFFFFFC0
FFFFFFC0
FFF7FFC0
FFFBFFC0
7FE9FF80
7FC8FF00
1F8C7E00
000C0000
001E0000
003F0000
007F8000
01FFE000
0FFFFC00
ENDCHAR
STARTCHAR 2665
ENCODING 9829
SWIDTH 581 0
DWIDTH 21 0
BBX 23 27 -1 -1
BITMAP
1F00F0
3F83FC
7FC7FE
FFEFFE
FFEFFE
FFFFFE
FFFFFE
FFFFFE
7FFFFE
7FFFFC
3FFFFC
3FFFF8
1FFFF8
0FFFF0
0FFFE0
07FFC0
03FFC0
01FF80
01FF00
00FE00
007E00
007C00
003C00
003800
001800
001000
001000
ENDCHAR
STARTCHAR 2666
ENCODING 9830
SWIDTH 498 0
DWIDTH 18 0
BBX 19 28 0 -1
BITMAP
004000
006000
00E000
01F000
01F800
03F800
07FC00
07FE00
0FFF00
1FFF00
3FFF80
3FFFC0
7FFFE0
FFFFE0
FFFFE0
7FFFC0
3FFFC0
1FFF80
1FFF00
0FFE00
07FE00
07FC00
03F800
01F000
00F000
00E000
006000
004000
ENDCHAR
STARTCHAR 266A
ENCODING 9834
SWIDTH 498 0
DWIDTH 18 0
BBX 14 26 2 0
BITMAP
0300
0300
0300
0380
03C0
03E0
03F0
03F0
0338
0318
031C
030C
030C
030C
030C
030C
030C
030C
0308
3F10
7F00
FF00
FF00
FE00
FC00
6000
ENDCHAR
STARTCHAR 266B
ENCODING 9835
SWIDTH 747 0
DWIDTH 27 0
BBX 20 24 3 -1
BITMAP
03F000
03FFC0
03FFF0
037FF0
0300F0
030030
030030
030030
030030
030030
030030
030030
030030
030030
030030
030030
3F0030
7F0030
FF03F0
FE07F0
FC0FF0
780FE0
000FC0
000780
ENDCHAR
STARTCHAR 301A
ENCODING 12314
SWIDTH 720 0
DWIDTH 26 0
BBX 10 35 8 -6
BITMAP
FFC0
FFC0
C600
C600
C600
C600
C600
C600
C600
C600
C600
C600
C600
C600
C600
C600
C600
C600
C600
C600
C600
C600
C600
C600
C600
C600
C600
C600
C600
C600
C600
C600
C600
FFC0
FFC0
ENDCHAR
STARTCHAR 301B
ENCODING 12315
SWIDTH 720 0
DWIDTH 26 0
BBX 10 35 8 -6
BITMAP
FFC0
FFC0
18C0
18C0
18C0
18C0
18C0
18C0
18C0
18C0
18C0
18C0
18C0
18C0
18C0
18C0
18C0
18C0
18C0
18C0
18C0
18C0
18C0
18C0
18C0
18C0
18C0
18C0
18C0
18C0
18C0
18C0
18C0
FFC0
FFC0
ENDCHAR
STARTCHAR EFBF
ENCODING 61375
SWIDTH 720 0
DWIDTH 26 0
BBX 32 32 -5 0
BITMAP
00000002
00000006
00000007
0000000E
0000001E
0000003C
00000038
00000070
000000F0
000000E0
000001C0
00000380
02000780
0F000700
3F000E00
E7001E00
83803C00
03803800
03807000
01C0F000
01C1E000
01C1C000
00C38000
00E78000
00E70000
00EE0000
007C0000
007C0000
00780000
00300000
00300000
00200000
ENDCHAR
STARTCHAR EFC0
ENCODING 61376
SWIDTH 720 0
DWIDTH 26 0
BBX 17 39 0 -7
BITMAP
007380
007380
007380
007380
007380
007380
007380
007380
007380
007380
007380
007380
007380
007380
007380
007380
007380
007380
007380
007380
007380
007380
007380
007380
007380
007380
007380
007380
007380
007380
007380
007380
007380
007380
007380
007380
FFFF80
FFFF80
FFFF80
ENDCHAR
STARTCHAR EFC1
ENCODING 61377
SWIDTH 720 0
DWIDTH 26 0
BBX 17 39 0 -7
BITMAP
FFFF80
FFFF80
FFFF80
007380
007380
007380
007380
007380
007380
007380
007380
007380
007380
007380
007380
007380
007380
007380
007380
007380
007380
007380
007380
007380
007380
007380
007380
007380
007380
007380
007380
007380
007380
007380
007380
007380
007380
007380
007380
ENDCHAR
STARTCHAR EFC2
ENCODING 61378
SWIDTH 720 0
DWIDTH 26 0
BBX 26 36 0 -9
BITMAP
FFFFFFC0
FFFFFFC0
300003C0
30000300
30000300
30000300
30000300
30000300
30000300
30000300
30000300
30000300
30000300
30000300
30000300
30000300
30000300
30000300
30000300
30000300
30000300
30000300
30000300
30000300
30000300
30000300
30000300
30000300
30000300
30000300
30000300
30000300
30000300
30000300
30000300
30000300
ENDCHAR
STARTCHAR EFC3
ENCODING 61379
SWIDTH 720 0
DWIDTH 26 0
BBX 26 36 0 -9
BITMAP
30000300
30000300
30000300
30000300
30000300
30000300
30000300
30000300
30000300
30000300
30000300
30000300
30000300
30000300
30000300
30000300
30000300
30000300
30000300
30000300
30000300
30000300
30000300
30000300
30000300
30000300
30000300
30000300
30000300
30000300
30000300
30000300
30000300
30000300
FFFFFFC0
FFFFFFC0
ENDCHAR
STARTCHAR EFC4
ENCODING 61380
SWIDTH 720 0
DWIDTH 26 0
BBX 17 39 9 -7
BITMAP
E70000
E70000
E70000
E70000
E70000
E70000
E70000
E70000
E70000
E70000
E70000
E70000
E70000
E70000
E70000
E70000
E70000
E70000
E70000
E70000
E70000
E70000
E70000
E70000
E70000
E70000
E70000
E70000
E70000
E70000
E70000
E70000
E70000
E70000
E70000
E70000
FFFF80
FFFF80
FFFF80
ENDCHAR
STARTCHAR EFC5
ENCODING 61381
SWIDTH 720 0
DWIDTH 26 0
BBX 17 39 9 -7
BITMAP
FFFF80
FFFF80
FFFF80
E70000
E70000
E70000
E70000
E70000
E70000
E70000
E70000
E70000
E70000
E70000
E70000
E70000
E70000
E70000
E70000
E70000
E70000
E70000
E70000
E70000
E70000
E70000
E70000
E70000
E70000
E70000
E70000
E70000
E70000
E70000
E70000
E70000
E70000
E70000
E70000
ENDCHAR
STARTCHAR EFC6
ENCODING 61382
SWIDTH 720 0
DWIDTH 26 0
BBX 22 36 2 -9
BITMAP
00FE00
07FF80
1FFFE0
3E01F0
380078
700038
60001C
E0001C
E0001C
C0000C
C0000C
C0000C
C0000C
C0000C
C0000C
C0000C
C0000C
C0000C
C0000C
C0000C
C0000C
C0000C
C0000C
C0000C
C0000C
C0000C
C0000C
C0000C
C0000C
C0000C
C0000C
C0000C
C0000C
C0000C
C0000C
C0000C
ENDCHAR
STARTCHAR EFC7
ENCODING 61383
SWIDTH 720 0
DWIDTH 26 0
BBX 22 36 2 -9
BITMAP
C0000C
C0000C
C0000C
C0000C
C0000C
C0000C
C0000C
C0000C
C0000C
C0000C
C0000C
C0000C
C0000C
C0000C
C0000C
C0000C
C0000C
C0000C
C0000C
C0000C
C0000C
C0000C
C0000C
C0000C
C0000C
C0000C
C0000C
E0000C
E0001C
E0001C
700038
380038
3C00F0
1FFFE0
07FF80
01FE00
ENDCHAR
STARTCHAR EFC8
ENCODING 61384
SWIDTH 720 0
DWIDTH 26 0
BBX 22 36 2 -9
BITMAP
C0000C
C0000C
C0000C
C0000C
C0000C
C0000C
C0000C
C0000C
C0000C
C0000C
C0000C
C0000C
C0000C
C0000C
C0000C
C0000C
C0000C
C0000C
C0000C
C0000C
C0000C
C0000C
C0000C
C0000C
C0000C
C0000C
C0000C
C0000C
C0000C
C0000C
C0000C
C0000C
C0000C
C0000C
C0000C
C0000C
ENDCHAR
STARTCHAR EFC9
ENCODING 61385
SWIDTH 720 0
DWIDTH 26 0
BBX 8 39 9 -7
BITMAP
E7
E7
E7
E7
E7
E7
E7
E7
E7
E7
E7
E7
E7
E7
E7
E7
E7
E7
E7
E7
E7
E7
E7
E7
E7
E7
E7
E7
E7
E7
E7
E7
E7
E7
E7
E7
E7
E7
E7
ENDCHAR
ENDFONT
